STARTFONT 2.1
FONT -FontForge-Pacifico-Book-R-Normal--16-160-72-72-P-94-ISO10646-1
SIZE 16 72 72
FONTBOUNDINGBOX 36 32 -9 -8
COMMENT "Generated by fontforge, http://fontforge.sourceforge.net"
COMMENT "Copyright 2018 The Pacifico Project Authors (https://github.com/googlefonts/Pacifico)"
STARTPROPERTIES 40
FOUNDRY "FontForge"
FAMILY_NAME "Pacifico"
WEIGHT_NAME "Book"
SLANT "R"
SETWIDTH_NAME "Normal"
ADD_STYLE_NAME ""
PIXEL_SIZE 16
POINT_SIZE 160
RESOLUTION_X 72
RESOLUTION_Y 72
SPACING "P"
AVERAGE_WIDTH 94
CHARSET_REGISTRY "ISO10646"
CHARSET_ENCODING "1"
FONTNAME_REGISTRY ""
CHARSET_COLLECTIONS "ISO8859-2 ISO8859-5 ISO8859-9 ISO8859-4 ISO10646-1"
FONT_NAME "Pacifico-Regular"
FACE_NAME "Pacifico Regular"
COPYRIGHT "Copyright 2018 The Pacifico Project Authors (https://github.com/googlefonts/Pacifico)"
FONT_VERSION "3.001"
FONT_ASCENT 13
FONT_DESCENT 3
UNDERLINE_POSITION -2
UNDERLINE_THICKNESS 1
X_HEIGHT 7
CAP_HEIGHT 14
DEFAULT_CHAR 1
RAW_ASCENT 800
RAW_DESCENT 200
NORM_SPACE 4
RELATIVE_WEIGHT 40
RELATIVE_SETWIDTH 50
SUPERSCRIPT_X 0
SUPERSCRIPT_Y 5
SUPERSCRIPT_SIZE 9
SUBSCRIPT_X 0
SUBSCRIPT_Y 1
SUBSCRIPT_SIZE 9
AVG_LOWERCASE_WIDTH 75
AVG_UPPERCASE_WIDTH 130
ENDPROPERTIES
CHARS 1514
STARTCHAR NULL.dup1
ENCODING 0
SWIDTH 0 0
DWIDTH 0 0
BBX 1 1 0 0
BITMAP
00
ENDCHAR
STARTCHAR nonmarkingreturn
ENCODING 13
SWIDTH 265 0
DWIDTH 4 0
BBX 1 1 0 0
BITMAP
00
ENDCHAR
STARTCHAR space
ENCODING 32
SWIDTH 265 0
DWIDTH 4 0
BBX 1 1 0 0
BITMAP
00
ENDCHAR
STARTCHAR exclam
ENCODING 33
SWIDTH 340 0
DWIDTH 5 0
BBX 5 15 1 0
BITMAP
18
38
30
30
30
30
70
60
60
60
40
00
C0
E0
C0
ENDCHAR
STARTCHAR quotedbl
ENCODING 34
SWIDTH 510 0
DWIDTH 8 0
BBX 6 6 2 9
BITMAP
CC
EC
CC
DC
D8
D8
ENDCHAR
STARTCHAR numbersign
ENCODING 35
SWIDTH 700 0
DWIDTH 11 0
BBX 10 10 1 0
BITMAP
1980
1B00
FFC0
FFC0
3300
3600
FF80
FF80
6600
4C00
ENDCHAR
STARTCHAR dollar
ENCODING 36
SWIDTH 524 0
DWIDTH 8 0
BBX 7 15 1 -2
BITMAP
08
08
18
7C
7E
D6
D0
70
3C
9E
F4
FC
78
20
20
ENDCHAR
STARTCHAR percent
ENCODING 37
SWIDTH 896 0
DWIDTH 14 0
BBX 13 13 1 0
BITMAP
7040
F8C0
D9C0
DF80
DF80
FB00
2620
06F8
0CD8
0C98
1898
18F8
1070
ENDCHAR
STARTCHAR ampersand
ENCODING 38
SWIDTH 851 0
DWIDTH 14 0
BBX 12 16 1 -1
BITMAP
0E00
1F00
3180
3180
3300
3300
3E00
1C00
7C10
EE30
C760
C3E0
C3C0
FFC0
3EE0
0060
ENDCHAR
STARTCHAR quotesingle
ENCODING 39
SWIDTH 290 0
DWIDTH 5 0
BBX 3 6 2 9
BITMAP
C0
E0
C0
C0
C0
C0
ENDCHAR
STARTCHAR parenleft
ENCODING 40
SWIDTH 613 0
DWIDTH 10 0
BBX 11 18 1 -2
BITMAP
03C0
0FE0
1C40
1800
3800
3000
7000
6000
6000
6000
6000
6000
E000
E000
6000
6300
7F00
3C00
ENDCHAR
STARTCHAR parenright
ENCODING 41
SWIDTH 613 0
DWIDTH 10 0
BBX 10 18 -1 -2
BITMAP
0F00
1F80
39C0
10C0
00C0
00C0
00C0
00C0
00C0
01C0
0180
0180
0380
0300
0700
8600
FC00
7800
ENDCHAR
STARTCHAR asterisk
ENCODING 42
SWIDTH 520 0
DWIDTH 8 0
BBX 6 7 2 9
BITMAP
D0
F4
3C
F8
EC
3C
20
ENDCHAR
STARTCHAR plus
ENCODING 43
SWIDTH 700 0
DWIDTH 11 0
BBX 9 10 1 0
BITMAP
0C00
0C00
0C00
0C00
FF80
FF80
0800
1800
1800
1800
ENDCHAR
STARTCHAR comma
ENCODING 44
SWIDTH 257 0
DWIDTH 4 0
BBX 3 6 0 -3
BITMAP
60
60
60
60
C0
C0
ENDCHAR
STARTCHAR hyphen
ENCODING 45
SWIDTH 403 0
DWIDTH 6 0
BBX 5 2 1 4
BITMAP
F8
F8
ENDCHAR
STARTCHAR period
ENCODING 46
SWIDTH 257 0
DWIDTH 4 0
BBX 3 3 0 0
BITMAP
60
E0
60
ENDCHAR
STARTCHAR slash
ENCODING 47
SWIDTH 509 0
DWIDTH 8 0
BBX 9 16 0 0
BITMAP
0180
0180
0300
0300
0600
0600
0C00
0C00
1800
1800
3000
3000
6000
6000
C000
C000
ENDCHAR
STARTCHAR zero
ENCODING 48
SWIDTH 543 0
DWIDTH 9 0
BBX 7 10 1 0
BITMAP
3C
7E
E6
C6
C6
C6
C6
CC
FC
78
ENDCHAR
STARTCHAR one
ENCODING 49
SWIDTH 376 0
DWIDTH 6 0
BBX 4 10 1 0
BITMAP
70
F0
B0
30
30
30
70
60
60
60
ENDCHAR
STARTCHAR two
ENCODING 50
SWIDTH 560 0
DWIDTH 9 0
BBX 7 10 1 0
BITMAP
3C
7E
C6
C6
06
0C
18
70
FE
FE
ENDCHAR
STARTCHAR three
ENCODING 51
SWIDTH 520 0
DWIDTH 8 0
BBX 8 10 0 0
BITMAP
3E
7F
63
47
1E
1E
46
C7
7E
3C
ENDCHAR
STARTCHAR four
ENCODING 52
SWIDTH 577 0
DWIDTH 9 0
BBX 8 10 1 0
BITMAP
30
30
66
66
E6
CC
FF
FF
0C
0C
ENDCHAR
STARTCHAR five
ENCODING 53
SWIDTH 518 0
DWIDTH 8 0
BBX 7 10 1 0
BITMAP
FE
FE
60
60
F8
7C
0E
CE
FC
78
ENDCHAR
STARTCHAR six
ENCODING 54
SWIDTH 541 0
DWIDTH 9 0
BBX 7 10 1 0
BITMAP
3C
7E
E6
C2
FC
FE
C6
C6
FC
78
ENDCHAR
STARTCHAR seven
ENCODING 55
SWIDTH 497 0
DWIDTH 8 0
BBX 7 10 1 0
BITMAP
FE
FE
0C
18
30
30
70
60
60
60
ENDCHAR
STARTCHAR eight
ENCODING 56
SWIDTH 512 0
DWIDTH 8 0
BBX 7 10 1 0
BITMAP
3C
7E
C6
C6
7C
7C
CE
C6
FC
78
ENDCHAR
STARTCHAR nine
ENCODING 57
SWIDTH 541 0
DWIDTH 9 0
BBX 7 10 1 0
BITMAP
3C
7C
C6
C6
FE
76
86
CC
FC
78
ENDCHAR
STARTCHAR colon
ENCODING 58
SWIDTH 257 0
DWIDTH 4 0
BBX 4 8 0 0
BITMAP
70
70
70
00
00
60
E0
60
ENDCHAR
STARTCHAR semicolon
ENCODING 59
SWIDTH 257 0
DWIDTH 4 0
BBX 4 11 0 -3
BITMAP
70
70
70
00
00
60
60
60
60
C0
C0
ENDCHAR
STARTCHAR less
ENCODING 60
SWIDTH 700 0
DWIDTH 11 0
BBX 9 8 1 1
BITMAP
0080
0380
1F00
7800
F000
7C00
0F80
0380
ENDCHAR
STARTCHAR equal
ENCODING 61
SWIDTH 700 0
DWIDTH 11 0
BBX 9 6 1 2
BITMAP
7F80
7F80
0000
0000
FF80
FF80
ENDCHAR
STARTCHAR greater
ENCODING 62
SWIDTH 700 0
DWIDTH 11 0
BBX 9 8 1 1
BITMAP
4000
7000
3E00
0F80
0380
1F00
F800
C000
ENDCHAR
STARTCHAR question
ENCODING 63
SWIDTH 476 0
DWIDTH 8 0
BBX 7 15 1 0
BITMAP
3C
7E
46
C6
46
0E
1C
38
30
20
60
00
E0
E0
E0
ENDCHAR
STARTCHAR at
ENCODING 64
SWIDTH 1015 0
DWIDTH 16 0
BBX 15 18 1 -5
BITMAP
03E0
0FF8
1C1C
300C
6006
6386
C7C6
C6C6
CCC6
CCCC
CCCC
CFF8
C770
C000
6008
7038
3FF0
0FC0
ENDCHAR
STARTCHAR A
ENCODING 65
SWIDTH 786 0
DWIDTH 13 0
BBX 14 15 1 0
BITMAP
03F0
0FF0
1C00
3860
70E0
60C0
E0C0
C0C0
C1C0
C1C0
C1C0
C3C4
E3CC
7EF8
3CF0
ENDCHAR
STARTCHAR B
ENCODING 66
SWIDTH 827 0
DWIDTH 13 0
BBX 14 16 0 -1
BITMAP
0FE0
3FF8
F01C
C01C
1C1C
181C
1838
19F0
19E0
3870
3030
3030
3070
3FE0
3F80
3000
ENDCHAR
STARTCHAR C
ENCODING 67
SWIDTH 686 0
DWIDTH 11 0
BBX 12 15 1 0
BITMAP
0F80
1FC0
38C0
70C0
60C0
E0C0
E000
C000
C000
C000
E000
6000
7030
3FF0
1FC0
ENDCHAR
STARTCHAR D
ENCODING 68
SWIDTH 836 0
DWIDTH 13 0
BBX 12 15 1 0
BITMAP
1F80
FFC0
E0E0
8070
3870
3030
3030
3030
7030
6070
6060
60E0
61C0
7F80
7E00
ENDCHAR
STARTCHAR E
ENCODING 69
SWIDTH 686 0
DWIDTH 11 0
BBX 13 15 0 0
BITMAP
07C0
1FE0
3860
3860
3060
3820
1F00
1F00
7000
6000
6000
E000
7018
3FF8
1FE0
ENDCHAR
STARTCHAR F
ENCODING 70
SWIDTH 712 0
DWIDTH 11 0
BBX 15 15 0 0
BITMAP
07FE
1FFE
3380
6380
6300
3300
0300
0FF0
0FF0
0300
0300
8700
C600
FE00
3C00
ENDCHAR
STARTCHAR G
ENCODING 71
SWIDTH 811 0
DWIDTH 13 0
BBX 14 23 1 -8
BITMAP
0F80
1FC0
38C0
7060
60E0
E0C0
E000
C000
C000
C3E0
E1E0
6060
706C
3FF8
1FF0
00C0
01C0
03C0
06C0
0580
0D80
0F00
0700
ENDCHAR
STARTCHAR H
ENCODING 72
SWIDTH 873 0
DWIDTH 14 0
BBX 16 15 0 0
BITMAP
380E
7C1E
CC1A
8C32
0C36
0C66
0C7C
3FF8
3FE0
1860
1860
1861
1873
383E
301C
ENDCHAR
STARTCHAR I
ENCODING 73
SWIDTH 495 0
DWIDTH 8 0
BBX 9 15 0 0
BITMAP
3F80
3F80
0C00
0C00
0C00
1C00
1C00
1800
1800
1800
1800
1800
1800
FE00
FE00
ENDCHAR
STARTCHAR J
ENCODING 74
SWIDTH 743 0
DWIDTH 12 0
BBX 11 16 1 -1
BITMAP
1FE0
7FE0
E0C0
C0C0
C0C0
C0C0
00C0
03C0
0F80
1D80
3180
3180
6300
6700
3E00
3C00
ENDCHAR
STARTCHAR K
ENCODING 75
SWIDTH 937 0
DWIDTH 15 0
BBX 17 15 0 0
BITMAP
1F8600
3F8600
738600
638E00
630C00
631800
233800
07E000
07C000
036000
077000
463080
C63980
7E1F00
3C0E00
ENDCHAR
STARTCHAR L
ENCODING 76
SWIDTH 673 0
DWIDTH 11 0
BBX 14 15 -1 0
BITMAP
01E0
07F0
0638
0E18
0C18
0C30
0C00
0C00
1C00
1C00
1C00
1800
7E0C
FFF8
71F0
ENDCHAR
STARTCHAR M
ENCODING 77
SWIDTH 1232 0
DWIDTH 20 0
BBX 22 15 0 0
BITMAP
38E1C0
7DF3E0
CD34E0
8E3460
0E38E0
0C38E0
0C38C0
1C30C0
1C30C0
1831C0
1871C0
187184
1861CC
1860F8
1860F0
ENDCHAR
STARTCHAR N
ENCODING 78
SWIDTH 884 0
DWIDTH 14 0
BBX 16 15 0 0
BITMAP
3870
7CF8
CD18
8F18
0E18
0E18
0C38
1C38
1C30
1830
1830
1831
1833
183E
181C
ENDCHAR
STARTCHAR O
ENCODING 79
SWIDTH 816 0
DWIDTH 13 0
BBX 12 15 1 0
BITMAP
0F80
1FC0
38E0
7060
6070
E070
E070
C070
C070
C060
E060
E0E0
71C0
3F80
1E00
ENDCHAR
STARTCHAR P
ENCODING 80
SWIDTH 805 0
DWIDTH 13 0
BBX 12 16 1 -1
BITMAP
07C0
1FE0
3870
7030
6630
C630
C670
CE60
DFC0
DF80
CC00
CC00
CC00
DC00
7800
3800
ENDCHAR
STARTCHAR Q
ENCODING 81
SWIDTH 816 0
DWIDTH 13 0
BBX 13 20 1 -5
BITMAP
0F80
1FC0
38E0
7060
6070
E070
E070
C070
C060
C060
E0E0
60C0
7FC0
3F00
0E00
0700
0308
0398
01F0
00E0
ENDCHAR
STARTCHAR R
ENCODING 82
SWIDTH 880 0
DWIDTH 14 0
BBX 15 15 1 0
BITMAP
07C0
1FE0
3070
6470
6630
C670
CE60
CCE0
DFC0
DF80
CDC0
CCC2
DCE6
787C
3838
ENDCHAR
STARTCHAR S
ENCODING 83
SWIDTH 693 0
DWIDTH 11 0
BBX 10 15 1 0
BITMAP
1F00
3F80
60C0
60C0
60C0
7080
7800
3F00
0F80
8380
C1C0
C180
C180
FF00
3E00
ENDCHAR
STARTCHAR T
ENCODING 84
SWIDTH 697 0
DWIDTH 11 0
BBX 13 15 1 0
BITMAP
1FF8
7FF8
C700
8700
C600
C600
0600
0600
0E00
0E00
0C00
0C00
0C00
0C00
0C00
ENDCHAR
STARTCHAR U
ENCODING 85
SWIDTH 890 0
DWIDTH 14 0
BBX 16 15 0 0
BITMAP
3C18
7C18
CC18
8C18
0C18
0C38
1C38
1C38
1830
1870
1870
18B1
19B3
1F3E
0E1C
ENDCHAR
STARTCHAR V
ENCODING 86
SWIDTH 763 0
DWIDTH 12 0
BBX 13 15 2 0
BITMAP
61C0
E3C0
E260
C260
C660
C2C0
C3C0
C1F8
C1F0
C180
C300
E300
6600
7C00
3800
ENDCHAR
STARTCHAR W
ENCODING 87
SWIDTH 1217 0
DWIDTH 19 0
BBX 20 15 2 0
BITMAP
60C380
E0C7C0
E0C6C0
C1C4C0
C1C4C0
C1C6C0
C1C780
C3C3F0
C3C1F0
C3C300
C6C300
E6C600
6CEC00
7C7C00
387000
ENDCHAR
STARTCHAR X
ENCODING 88
SWIDTH 712 0
DWIDTH 11 0
BBX 13 15 0 0
BITMAP
3830
7C70
CE60
86C0
07C0
0780
0700
0700
0F00
1F00
3B80
3188
7188
E1F8
C0F0
ENDCHAR
STARTCHAR Y
ENCODING 89
SWIDTH 851 0
DWIDTH 14 0
BBX 15 20 0 -5
BITMAP
3C18
7C18
CC18
8C18
0C18
0C38
1C38
1878
1870
18F0
1FB6
0F3E
00F8
03F0
0730
0E60
0C60
0CE0
0FC0
0780
ENDCHAR
STARTCHAR Z
ENCODING 90
SWIDTH 721 0
DWIDTH 12 0
BBX 14 15 0 0
BITMAP
0FE0
3FF0
6070
6060
60C0
61C0
0180
0380
0300
0700
0600
0E00
7E0C
FFF8
71F0
ENDCHAR
STARTCHAR bracketleft
ENCODING 91
SWIDTH 405 0
DWIDTH 6 0
BBX 7 17 1 -1
BITMAP
3E
3E
30
30
70
70
60
60
60
60
60
60
E0
E0
C0
F8
F8
ENDCHAR
STARTCHAR backslash
ENCODING 92
SWIDTH 509 0
DWIDTH 8 0
BBX 5 16 2 0
BITMAP
C0
C0
C0
C0
60
60
60
60
30
30
30
38
18
18
18
08
ENDCHAR
STARTCHAR bracketright
ENCODING 93
SWIDTH 405 0
DWIDTH 6 0
BBX 7 17 -1 -1
BITMAP
3E
3E
06
06
06
0E
0C
0C
0C
0C
0C
0C
0C
1C
18
F8
F8
ENDCHAR
STARTCHAR asciicircum
ENCODING 94
SWIDTH 700 0
DWIDTH 11 0
BBX 8 9 1 1
BITMAP
0C
0C
1E
1E
32
33
63
63
C1
ENDCHAR
STARTCHAR underscore
ENCODING 95
SWIDTH 354 0
DWIDTH 6 0
BBX 5 2 0 -2
BITMAP
F8
F8
ENDCHAR
STARTCHAR grave
ENCODING 96
SWIDTH 600 0
DWIDTH 10 0
BBX 3 5 2 9
BITMAP
C0
C0
60
60
20
ENDCHAR
STARTCHAR a
ENCODING 97
SWIDTH 470 0
DWIDTH 8 0
BBX 9 8 1 0
BITMAP
3000
7C00
EC00
CC00
D880
D980
FF00
EE00
ENDCHAR
STARTCHAR b
ENCODING 98
SWIDTH 473 0
DWIDTH 8 0
BBX 9 16 1 0
BITMAP
1800
3C00
2C00
6C00
6C00
4800
D800
D000
F800
FC00
DC00
CF80
CF00
CC00
7800
7000
ENDCHAR
STARTCHAR c
ENCODING 99
SWIDTH 368 0
DWIDTH 6 0
BBX 7 8 1 0
BITMAP
70
F8
D8
D0
C2
C6
FC
78
ENDCHAR
STARTCHAR d
ENCODING 100
SWIDTH 515 0
DWIDTH 8 0
BBX 9 16 1 0
BITMAP
0300
0780
0780
0580
0D80
0D00
0D00
0F00
3E00
7E00
CC00
CC00
CC80
DD80
FF80
E600
ENDCHAR
STARTCHAR e
ENCODING 101
SWIDTH 393 0
DWIDTH 6 0
BBX 7 8 1 0
BITMAP
78
F8
D8
D8
F2
C6
FE
78
ENDCHAR
STARTCHAR f
ENCODING 102
SWIDTH 371 0
DWIDTH 6 0
BBX 7 22 1 -6
BITMAP
0C
1C
34
34
64
6C
6C
68
D0
F0
E0
C0
FE
FC
F0
D0
D0
D0
D0
D0
F0
60
ENDCHAR
STARTCHAR g
ENCODING 103
SWIDTH 479 0
DWIDTH 8 0
BBX 9 16 0 -8
BITMAP
1800
3E00
7600
6600
6C80
6D80
7F00
7E00
1C00
3C00
6800
5800
D800
D800
F000
6000
ENDCHAR
STARTCHAR h
ENCODING 104
SWIDTH 502 0
DWIDTH 8 0
BBX 9 16 1 0
BITMAP
1800
3C00
2C00
6C00
6C00
4800
D800
D000
EC00
DC00
FC00
EC00
EC80
CD80
CF00
CE00
ENDCHAR
STARTCHAR i
ENCODING 105
SWIDTH 246 0
DWIDTH 4 0
BBX 5 12 1 0
BITMAP
60
60
60
00
40
C0
C0
C0
C8
D8
F0
E0
ENDCHAR
STARTCHAR j
ENCODING 106
SWIDTH 254 0
DWIDTH 4 0
BBX 10 20 -4 -8
BITMAP
0300
0700
0700
0000
0600
0600
0600
0600
0640
07C0
0780
0600
0C00
1C00
3C00
6C00
4800
D800
F000
7000
ENDCHAR
STARTCHAR k
ENCODING 107
SWIDTH 525 0
DWIDTH 8 0
BBX 9 16 1 0
BITMAP
1800
3C00
2C00
6C00
6800
4800
D800
F000
EE00
DE00
F600
E600
FC80
D880
DF80
CF00
ENDCHAR
STARTCHAR l
ENCODING 108
SWIDTH 326 0
DWIDTH 5 0
BBX 6 16 1 0
BITMAP
18
3C
2C
6C
6C
4C
C8
D8
D0
F0
E0
E0
C4
CC
FC
70
ENDCHAR
STARTCHAR m
ENCODING 109
SWIDTH 744 0
DWIDTH 12 0
BBX 13 8 1 0
BITMAP
4CC0
DDC0
FFC0
EEC0
EEC8
CCD8
CCF0
CCE0
ENDCHAR
STARTCHAR n
ENCODING 110
SWIDTH 496 0
DWIDTH 8 0
BBX 9 8 1 0
BITMAP
4C00
DC00
FC00
EC00
EC80
CD80
CF00
CE00
ENDCHAR
STARTCHAR o
ENCODING 111
SWIDTH 451 0
DWIDTH 7 0
BBX 8 8 1 0
BITMAP
78
F8
DC
DF
CF
CC
F8
70
ENDCHAR
STARTCHAR p
ENCODING 112
SWIDTH 481 0
DWIDTH 8 0
BBX 12 16 -2 -8
BITMAP
1B00
1F80
1980
1980
1990
3B30
3FE0
3FC0
5800
5800
5800
D000
D000
F000
F000
6000
ENDCHAR
STARTCHAR q
ENCODING 113
SWIDTH 500 0
DWIDTH 8 0
BBX 9 16 1 -7
BITMAP
0400
3E00
7C00
EC00
CC00
DC00
DB80
FB80
FA00
1A00
1A00
1A00
1A00
1E00
1C00
1C00
ENDCHAR
STARTCHAR r
ENCODING 114
SWIDTH 455 0
DWIDTH 7 0
BBX 9 8 1 0
BITMAP
4C00
DC00
DC00
ED80
EF00
C600
C000
C000
ENDCHAR
STARTCHAR s
ENCODING 115
SWIDTH 427 0
DWIDTH 7 0
BBX 9 8 0 0
BITMAP
1800
1800
3800
3800
6C80
CD80
BF00
3E00
ENDCHAR
STARTCHAR t
ENCODING 116
SWIDTH 393 0
DWIDTH 6 0
BBX 8 15 0 0
BITMAP
0C
1E
1E
36
36
34
38
FE
FE
60
60
61
33
3F
1C
ENDCHAR
STARTCHAR u
ENCODING 117
SWIDTH 462 0
DWIDTH 7 0
BBX 8 8 1 0
BITMAP
4C
CC
CC
D8
D9
F9
FF
CE
ENDCHAR
STARTCHAR v
ENCODING 118
SWIDTH 449 0
DWIDTH 7 0
BBX 8 8 1 0
BITMAP
CC
DC
DC
DF
DF
F0
F0
E0
ENDCHAR
STARTCHAR w
ENCODING 119
SWIDTH 700 0
DWIDTH 11 0
BBX 12 8 1 0
BITMAP
CCC0
CDC0
DDC0
DDF0
DDF0
FF00
EF00
E600
ENDCHAR
STARTCHAR x
ENCODING 120
SWIDTH 529 0
DWIDTH 8 0
BBX 11 8 0 0
BITMAP
3B80
7F80
6D00
0C00
4C20
DC40
FFC0
7780
ENDCHAR
STARTCHAR y
ENCODING 121
SWIDTH 479 0
DWIDTH 8 0
BBX 9 16 0 -8
BITMAP
2600
6600
6600
6E00
6C80
7D80
7F00
6E00
1C00
3C00
6800
5800
D800
D000
F000
E000
ENDCHAR
STARTCHAR z
ENCODING 122
SWIDTH 445 0
DWIDTH 7 0
BBX 8 8 1 0
BITMAP
FE
FC
38
60
C1
C3
FE
7C
ENDCHAR
STARTCHAR braceleft
ENCODING 123
SWIDTH 490 0
DWIDTH 8 0
BBX 8 18 1 -2
BITMAP
0F
1F
18
18
18
18
38
F0
F0
30
30
30
30
30
30
30
3E
1C
ENDCHAR
STARTCHAR bar
ENCODING 124
SWIDTH 326 0
DWIDTH 5 0
BBX 5 21 0 -5
BITMAP
18
18
18
18
18
30
30
30
30
30
30
30
60
60
60
60
60
60
60
60
C0
ENDCHAR
STARTCHAR braceright
ENCODING 125
SWIDTH 490 0
DWIDTH 8 0
BBX 9 18 -1 -2
BITMAP
3C00
3E00
0600
0600
0600
0E00
0E00
0780
0780
0C00
0C00
0C00
0C00
1C00
1C00
1800
F800
7000
ENDCHAR
STARTCHAR asciitilde
ENCODING 126
SWIDTH 700 0
DWIDTH 11 0
BBX 9 4 1 3
BITMAP
3080
7980
CF80
C700
ENDCHAR
STARTCHAR uni00A0
ENCODING 160
SWIDTH 265 0
DWIDTH 4 0
BBX 1 1 0 0
BITMAP
00
ENDCHAR
STARTCHAR exclamdown
ENCODING 161
SWIDTH 340 0
DWIDTH 5 0
BBX 5 14 0 -6
BITMAP
38
38
38
00
30
20
60
60
60
60
E0
C0
C0
C0
ENDCHAR
STARTCHAR cent
ENCODING 162
SWIDTH 466 0
DWIDTH 7 0
BBX 6 12 1 -2
BITMAP
10
10
38
7C
DC
DC
E4
EC
FC
70
20
20
ENDCHAR
STARTCHAR sterling
ENCODING 163
SWIDTH 525 0
DWIDTH 8 0
BBX 8 10 0 0
BITMAP
1E
3F
33
30
7C
FC
60
60
FF
FF
ENDCHAR
STARTCHAR currency
ENCODING 164
SWIDTH 700 0
DWIDTH 11 0
BBX 7 8 2 1
BITMAP
BA
FE
46
C6
C6
46
FE
FA
ENDCHAR
STARTCHAR yen
ENCODING 165
SWIDTH 497 0
DWIDTH 8 0
BBX 8 10 1 0
BITMAP
83
C6
EC
6C
78
FC
30
FC
30
30
ENDCHAR
STARTCHAR brokenbar
ENCODING 166
SWIDTH 326 0
DWIDTH 5 0
BBX 5 21 0 -5
BITMAP
18
18
18
18
18
30
30
30
30
00
00
00
20
60
60
60
60
60
60
60
C0
ENDCHAR
STARTCHAR section
ENCODING 167
SWIDTH 607 0
DWIDTH 10 0
BBX 8 15 1 0
BITMAP
1E
3F
33
63
30
3C
6E
63
73
3E
1E
C6
C6
FE
7C
ENDCHAR
STARTCHAR dieresis
ENCODING 168
SWIDTH 600 0
DWIDTH 10 0
BBX 6 3 2 9
BITMAP
4C
FC
CC
ENDCHAR
STARTCHAR copyright
ENCODING 169
SWIDTH 647 0
DWIDTH 10 0
BBX 10 10 1 6
BITMAP
1E00
2100
4E80
5280
D0C0
D0C0
5280
5C80
2100
1E00
ENDCHAR
STARTCHAR ordfeminine
ENCODING 170
SWIDTH 393 0
DWIDTH 6 0
BBX 6 6 1 8
BITMAP
38
6C
4C
C8
D8
78
ENDCHAR
STARTCHAR guillemotleft
ENCODING 171
SWIDTH 615 0
DWIDTH 10 0
BBX 9 7 0 1
BITMAP
1980
3B80
7700
E600
7700
3B80
1980
ENDCHAR
STARTCHAR logicalnot
ENCODING 172
SWIDTH 700 0
DWIDTH 11 0
BBX 9 5 1 1
BITMAP
7F80
FF80
0180
0180
0180
ENDCHAR
STARTCHAR uni00AD
ENCODING 173
SWIDTH 403 0
DWIDTH 6 0
BBX 5 2 1 4
BITMAP
F8
F8
ENDCHAR
STARTCHAR registered
ENCODING 174
SWIDTH 647 0
DWIDTH 10 0
BBX 10 10 1 6
BITMAP
1E00
2100
5C80
4A80
D2C0
DCC0
5480
5680
2100
1E00
ENDCHAR
STARTCHAR macron
ENCODING 175
SWIDTH 600 0
DWIDTH 10 0
BBX 5 2 2 9
BITMAP
F8
F8
ENDCHAR
STARTCHAR degree
ENCODING 176
SWIDTH 385 0
DWIDTH 6 0
BBX 4 6 2 9
BITMAP
60
F0
90
90
F0
E0
ENDCHAR
STARTCHAR plusminus
ENCODING 177
SWIDTH 700 0
DWIDTH 11 0
BBX 9 10 1 0
BITMAP
0C00
0C00
0C00
7F80
7F00
0C00
0800
0000
7F00
FF00
ENDCHAR
STARTCHAR uni00B2
ENCODING 178
SWIDTH 450 0
DWIDTH 7 0
BBX 6 8 1 6
BITMAP
38
6C
CC
0C
18
30
FC
FC
ENDCHAR
STARTCHAR uni00B3
ENCODING 179
SWIDTH 450 0
DWIDTH 7 0
BBX 6 8 1 6
BITMAP
3C
6C
4C
18
38
8C
CC
78
ENDCHAR
STARTCHAR acute
ENCODING 180
SWIDTH 600 0
DWIDTH 10 0
BBX 4 5 4 9
BITMAP
30
70
60
40
C0
ENDCHAR
STARTCHAR uni00B5
ENCODING 181
SWIDTH 462 0
DWIDTH 7 0
BBX 9 12 0 -4
BITMAP
2600
6600
6600
6C00
6C80
7C80
7F80
6700
4000
C000
C000
C000
ENDCHAR
STARTCHAR paragraph
ENCODING 182
SWIDTH 739 0
DWIDTH 12 0
BBX 9 15 2 0
BITMAP
3F00
FF80
FD80
F980
F980
F980
3B80
1B00
3B00
3300
3300
3300
3300
3700
3200
ENDCHAR
STARTCHAR periodcentered
ENCODING 183
SWIDTH 257 0
DWIDTH 4 0
BBX 3 3 1 2
BITMAP
C0
E0
C0
ENDCHAR
STARTCHAR cedilla
ENCODING 184
SWIDTH 600 0
DWIDTH 10 0
BBX 5 5 1 -4
BITMAP
70
70
18
F0
E0
ENDCHAR
STARTCHAR uni00B9
ENCODING 185
SWIDTH 450 0
DWIDTH 7 0
BBX 4 8 2 6
BITMAP
70
F0
30
30
30
20
60
60
ENDCHAR
STARTCHAR ordmasculine
ENCODING 186
SWIDTH 408 0
DWIDTH 7 0
BBX 6 6 1 8
BITMAP
38
7C
CC
CC
CC
78
ENDCHAR
STARTCHAR guillemotright
ENCODING 187
SWIDTH 615 0
DWIDTH 10 0
BBX 8 7 1 1
BITMAP
CC
EE
77
33
77
EE
CC
ENDCHAR
STARTCHAR onequarter
ENCODING 188
SWIDTH 955 0
DWIDTH 15 0
BBX 13 14 2 0
BITMAP
7000
F080
3180
3380
3300
2600
6660
6CD0
0CF0
19B0
19F0
11F8
0030
0020
ENDCHAR
STARTCHAR onehalf
ENCODING 189
SWIDTH 1024 0
DWIDTH 16 0
BBX 14 14 2 0
BITMAP
7000
F080
3180
3380
3300
2600
6678
6CD8
0C8C
1818
1818
1070
00F8
01FC
ENDCHAR
STARTCHAR threequarters
ENCODING 190
SWIDTH 1035 0
DWIDTH 17 0
BBX 15 14 1 0
BITMAP
3C00
6C30
4C60
1860
38C0
8CC0
CD98
79B4
0334
072C
067E
047E
000C
000C
ENDCHAR
STARTCHAR questiondown
ENCODING 191
SWIDTH 476 0
DWIDTH 8 0
BBX 8 15 -1 -7
BITMAP
06
07
06
00
04
0C
0C
18
30
70
66
E6
E6
7E
38
ENDCHAR
STARTCHAR Agrave
ENCODING 192
SWIDTH 786 0
DWIDTH 13 0
BBX 14 19 1 0
BITMAP
0C00
0E00
0300
0180
03F0
0FF0
1C00
3860
70E0
60C0
E0C0
C0C0
C1C0
C1C0
C1C0
C3C4
E3CC
7EF8
3CF0
ENDCHAR
STARTCHAR Aacute
ENCODING 193
SWIDTH 786 0
DWIDTH 13 0
BBX 14 19 1 0
BITMAP
0018
0038
0070
00C0
03F0
0FF0
1C00
3860
70E0
60C0
E0C0
C0C0
C1C0
C1C0
C1C0
C3C4
E3CC
7EF8
3CF0
ENDCHAR
STARTCHAR Acircumflex
ENCODING 194
SWIDTH 786 0
DWIDTH 13 0
BBX 14 20 1 0
BITMAP
0040
01C0
01E0
0360
0320
03F0
0FF0
1C00
3860
70E0
60C0
E0C0
C0C0
C1C0
C1C0
C1C0
C3C4
E3CC
7EF8
3CF0
ENDCHAR
STARTCHAR Atilde
ENCODING 195
SWIDTH 786 0
DWIDTH 13 0
BBX 14 19 1 0
BITMAP
0100
0390
06F0
0260
03F0
0FF0
1C00
3860
70E0
60C0
E0C0
C0C0
C1C0
C1C0
C1C0
C3C4
E3CC
7EF8
3CF0
ENDCHAR
STARTCHAR Adieresis
ENCODING 196
SWIDTH 786 0
DWIDTH 13 0
BBX 14 18 1 0
BITMAP
0320
0370
0360
03F0
0FF0
1C00
3860
70E0
60C0
E0C0
C0C0
C1C0
C1C0
C1C0
C3C4
E3CC
7EF8
3CF0
ENDCHAR
STARTCHAR Aring
ENCODING 197
SWIDTH 786 0
DWIDTH 13 0
BBX 14 20 1 0
BITMAP
00C0
01E0
0120
01E0
01C0
03F0
0FF0
1C00
3860
70E0
60C0
E0C0
C0C0
C1C0
C1C0
C1C0
C3C4
E3CC
7EF8
3CF0
ENDCHAR
STARTCHAR AE
ENCODING 198
SWIDTH 1015 0
DWIDTH 16 0
BBX 17 15 1 0
BITMAP
073F00
0FFF00
1C6000
386000
70E000
60E000
E0C000
E0FE00
C0FE00
C1C000
C1C000
C3C000
E3E180
7E7F80
3C3E00
ENDCHAR
STARTCHAR Ccedilla
ENCODING 199
SWIDTH 686 0
DWIDTH 11 0
BBX 12 19 1 -4
BITMAP
0F80
1FC0
38C0
70C0
60C0
E0C0
E000
C000
C000
C000
E000
E000
7030
3FF0
1FC0
1E00
0600
3E00
3C00
ENDCHAR
STARTCHAR Egrave
ENCODING 200
SWIDTH 686 0
DWIDTH 11 0
BBX 13 19 0 0
BITMAP
1800
1C00
0E00
0300
07C0
1FE0
3860
3860
3060
3820
1F00
1F00
7000
6000
6000
E000
7018
3FF8
1FE0
ENDCHAR
STARTCHAR Eacute
ENCODING 201
SWIDTH 686 0
DWIDTH 11 0
BBX 13 19 0 0
BITMAP
0030
0070
00C0
0180
07C0
1FE0
3860
3860
3060
3820
1F00
1F00
7000
6000
6000
E000
7018
3FF8
1FE0
ENDCHAR
STARTCHAR Ecircumflex
ENCODING 202
SWIDTH 686 0
DWIDTH 11 0
BBX 13 20 0 0
BITMAP
0080
0380
03C0
06C0
0640
07C0
1FE0
3860
3860
3060
3820
1F00
1F00
7000
6000
6000
E000
7018
3FF8
1FE0
ENDCHAR
STARTCHAR Edieresis
ENCODING 203
SWIDTH 686 0
DWIDTH 11 0
BBX 13 18 0 0
BITMAP
0640
06E0
06C0
07C0
1FE0
3860
3860
3060
3820
1F00
1F00
7000
6000
6000
E000
7018
3FF8
1FE0
ENDCHAR
STARTCHAR Igrave
ENCODING 204
SWIDTH 495 0
DWIDTH 8 0
BBX 9 19 0 0
BITMAP
6000
7000
3800
0C00
3F80
3F80
0C00
0C00
0C00
1C00
1C00
1800
1800
1800
1800
1800
1800
FE00
FE00
ENDCHAR
STARTCHAR Iacute
ENCODING 205
SWIDTH 495 0
DWIDTH 8 0
BBX 10 19 0 0
BITMAP
00C0
01C0
0300
0600
3F80
3F80
0C00
0C00
0C00
1C00
1C00
1800
1800
1800
1800
1800
1800
FE00
FE00
ENDCHAR
STARTCHAR Icircumflex
ENCODING 206
SWIDTH 495 0
DWIDTH 8 0
BBX 9 20 0 0
BITMAP
0200
0E00
0F00
1B00
1900
3F80
3F80
0C00
0C00
0C00
1C00
1C00
1800
1800
1800
1800
1800
1800
FE00
FE00
ENDCHAR
STARTCHAR Idieresis
ENCODING 207
SWIDTH 495 0
DWIDTH 8 0
BBX 9 18 0 0
BITMAP
1900
1B80
1B00
3F80
3F80
0C00
0C00
0C00
1C00
1C00
1800
1800
1800
1800
1800
1800
FE00
FE00
ENDCHAR
STARTCHAR Eth
ENCODING 208
SWIDTH 821 0
DWIDTH 13 0
BBX 13 15 0 0
BITMAP
0F80
0FE0
1C70
1830
1838
1838
7F38
FF38
3038
3030
3030
3060
30E0
7FC0
3F00
ENDCHAR
STARTCHAR Ntilde
ENCODING 209
SWIDTH 884 0
DWIDTH 14 0
BBX 16 19 0 0
BITMAP
0100
03D8
03F0
0270
3870
7CF8
CD18
8F18
0E18
0E18
0C38
1C38
1C30
1830
1830
1831
1833
183E
181C
ENDCHAR
STARTCHAR Ograve
ENCODING 210
SWIDTH 816 0
DWIDTH 13 0
BBX 12 19 1 0
BITMAP
1000
3C00
0E00
0200
0F80
1FC0
38E0
7060
6070
E070
E070
C070
C070
C060
E060
E0E0
71C0
3F80
1E00
ENDCHAR
STARTCHAR Oacute
ENCODING 211
SWIDTH 816 0
DWIDTH 13 0
BBX 12 19 1 0
BITMAP
0060
00E0
01C0
0300
0F80
1FC0
38E0
7060
6070
E070
E070
C070
C070
C060
E060
E0E0
71C0
3F80
1E00
ENDCHAR
STARTCHAR Ocircumflex
ENCODING 212
SWIDTH 816 0
DWIDTH 13 0
BBX 12 20 1 0
BITMAP
0100
0380
0780
0C80
0CC0
0F80
1FC0
38E0
7060
6070
E070
E070
C070
C070
C060
E060
E0E0
71C0
3F80
1E00
ENDCHAR
STARTCHAR Otilde
ENCODING 213
SWIDTH 816 0
DWIDTH 13 0
BBX 12 19 1 0
BITMAP
0400
0E60
0BC0
09C0
0F80
1FC0
38E0
7060
6070
E070
E070
C070
C070
C060
E060
E0E0
71C0
3F80
1E00
ENDCHAR
STARTCHAR Odieresis
ENCODING 214
SWIDTH 816 0
DWIDTH 13 0
BBX 12 18 1 0
BITMAP
04C0
0FC0
0CC0
0F80
1FC0
38E0
7060
6070
E070
E070
C070
C070
C060
E060
E0E0
71C0
3F80
1E00
ENDCHAR
STARTCHAR multiply
ENCODING 215
SWIDTH 700 0
DWIDTH 11 0
BBX 8 8 2 1
BITMAP
43
E7
7E
3C
38
6C
CE
86
ENDCHAR
STARTCHAR Oslash
ENCODING 216
SWIDTH 816 0
DWIDTH 13 0
BBX 12 18 1 -2
BITMAP
0180
0F80
1FC0
3BE0
7360
6270
E270
E670
C670
C670
C460
EC60
ECE0
7DC0
7F80
1E00
1800
1800
ENDCHAR
STARTCHAR Ugrave
ENCODING 217
SWIDTH 890 0
DWIDTH 14 0
BBX 16 19 0 0
BITMAP
0C00
0E00
0300
0180
3C18
7C18
CC18
8C18
0C18
0C38
1C38
1C38
1830
1870
1870
18B1
19B3
1F3E
0E1C
ENDCHAR
STARTCHAR Uacute
ENCODING 218
SWIDTH 890 0
DWIDTH 14 0
BBX 16 19 0 0
BITMAP
0018
0038
0070
00C0
3C18
7C18
CC18
8C18
0C18
0C38
1C38
1C38
1830
1870
1870
18B1
19B3
1F3E
0E1C
ENDCHAR
STARTCHAR Ucircumflex
ENCODING 219
SWIDTH 890 0
DWIDTH 14 0
BBX 16 20 0 0
BITMAP
0040
00E0
01E0
0360
0320
3C18
7C18
CC18
8C18
0C18
0C38
1C38
1C38
1830
1870
1870
18B1
19B3
1F3E
0E1C
ENDCHAR
STARTCHAR Udieresis
ENCODING 220
SWIDTH 890 0
DWIDTH 14 0
BBX 16 18 0 0
BITMAP
0320
0370
0360
3C18
7C18
CC18
8C18
0C18
0C38
1C38
1C38
1830
1870
1870
18B1
19B3
1F3E
0E1C
ENDCHAR
STARTCHAR Yacute
ENCODING 221
SWIDTH 851 0
DWIDTH 14 0
BBX 15 24 0 -5
BITMAP
0018
0038
0070
00C0
3C18
7C18
CC18
8C18
0C18
0C38
1C38
1878
1870
18F0
1FB6
0F3E
00F8
03F0
0730
0E60
0C60
0CE0
0FC0
0780
ENDCHAR
STARTCHAR Thorn
ENCODING 222
SWIDTH 776 0
DWIDTH 12 0
BBX 12 18 1 -2
BITMAP
0600
0600
0600
0780
1FE0
3EE0
6C60
4C70
CC60
CCE0
CDC0
BF80
9C00
9800
D800
D800
7800
7000
ENDCHAR
STARTCHAR germandbls
ENCODING 223
SWIDTH 596 0
DWIDTH 10 0
BBX 11 17 1 -3
BITMAP
0E00
3F00
7300
6300
4300
CE00
DC00
D800
CE00
DFC0
DB60
F300
FF00
DE00
C000
C000
C000
ENDCHAR
STARTCHAR agrave
ENCODING 224
SWIDTH 470 0
DWIDTH 8 0
BBX 9 14 1 0
BITMAP
6000
6000
3000
1000
1800
0000
3000
7C00
EC00
CC00
D880
D980
FF00
EE00
ENDCHAR
STARTCHAR aacute
ENCODING 225
SWIDTH 470 0
DWIDTH 8 0
BBX 9 14 1 0
BITMAP
0600
0600
0C00
0800
1800
0000
3000
7C00
EC00
CC00
D880
D980
FF00
EE00
ENDCHAR
STARTCHAR acircumflex
ENCODING 226
SWIDTH 470 0
DWIDTH 8 0
BBX 9 15 1 0
BITMAP
0800
1C00
1400
3400
2600
6600
0000
3000
7C00
EC00
CC00
D880
D980
FF00
EE00
ENDCHAR
STARTCHAR atilde
ENCODING 227
SWIDTH 470 0
DWIDTH 8 0
BBX 9 13 1 0
BITMAP
2000
7B00
7E00
4E00
0000
3000
7C00
EC00
CC00
D880
D980
FF00
EE00
ENDCHAR
STARTCHAR adieresis
ENCODING 228
SWIDTH 470 0
DWIDTH 8 0
BBX 9 12 1 0
BITMAP
2600
7600
6600
0000
3000
7C00
EC00
CC00
D880
D980
FF00
EE00
ENDCHAR
STARTCHAR aring
ENCODING 229
SWIDTH 470 0
DWIDTH 8 0
BBX 9 14 1 0
BITMAP
1C00
3C00
2400
3C00
1800
0000
3000
7C00
EC00
CC00
D880
D980
FF00
EE00
ENDCHAR
STARTCHAR ae
ENCODING 230
SWIDTH 653 0
DWIDTH 10 0
BBX 12 8 1 0
BITMAP
3B80
7F80
CC80
CD80
CF30
DC60
FFE0
E780
ENDCHAR
STARTCHAR ccedilla
ENCODING 231
SWIDTH 368 0
DWIDTH 6 0
BBX 7 13 1 -5
BITMAP
30
F8
D8
D8
C0
C2
C6
FC
70
10
18
F0
E0
ENDCHAR
STARTCHAR egrave
ENCODING 232
SWIDTH 393 0
DWIDTH 6 0
BBX 7 14 1 0
BITMAP
40
E0
60
30
10
00
78
F8
D8
D8
F2
C6
FE
78
ENDCHAR
STARTCHAR eacute
ENCODING 233
SWIDTH 393 0
DWIDTH 6 0
BBX 7 14 1 0
BITMAP
0C
0C
18
18
10
00
78
F8
D8
D8
F2
C6
FE
78
ENDCHAR
STARTCHAR ecircumflex
ENCODING 234
SWIDTH 393 0
DWIDTH 6 0
BBX 7 15 1 0
BITMAP
08
18
38
6C
6C
4C
00
78
F8
D8
D8
F2
C6
FE
78
ENDCHAR
STARTCHAR edieresis
ENCODING 235
SWIDTH 393 0
DWIDTH 6 0
BBX 7 12 1 0
BITMAP
6C
6C
6C
00
78
F8
D8
D8
F2
C6
FE
78
ENDCHAR
STARTCHAR igrave
ENCODING 236
SWIDTH 246 0
DWIDTH 4 0
BBX 6 14 0 0
BITMAP
C0
C0
60
60
20
00
20
60
60
60
64
6C
78
70
ENDCHAR
STARTCHAR iacute
ENCODING 237
SWIDTH 246 0
DWIDTH 4 0
BBX 5 14 1 0
BITMAP
10
38
30
60
40
00
40
C0
C0
C0
C8
D8
F0
E0
ENDCHAR
STARTCHAR icircumflex
ENCODING 238
SWIDTH 246 0
DWIDTH 4 0
BBX 6 15 0 0
BITMAP
10
38
78
78
C8
C8
00
20
60
60
60
64
6C
78
70
ENDCHAR
STARTCHAR idieresis
ENCODING 239
SWIDTH 246 0
DWIDTH 4 0
BBX 6 12 0 0
BITMAP
C8
DC
C8
00
20
60
60
60
64
6C
78
70
ENDCHAR
STARTCHAR eth
ENCODING 240
SWIDTH 451 0
DWIDTH 7 0
BBX 7 16 1 0
BITMAP
60
32
3E
1C
78
6C
0C
0C
7C
FC
CC
CC
CC
CC
F8
70
ENDCHAR
STARTCHAR ntilde
ENCODING 241
SWIDTH 496 0
DWIDTH 8 0
BBX 9 13 1 0
BITMAP
2000
7B00
7E00
4600
0000
4C00
DC00
FC00
EC00
EC80
CD80
CF00
CE00
ENDCHAR
STARTCHAR ograve
ENCODING 242
SWIDTH 451 0
DWIDTH 7 0
BBX 8 14 1 0
BITMAP
C0
E0
60
20
10
00
78
F8
DC
DF
CF
CC
F8
70
ENDCHAR
STARTCHAR oacute
ENCODING 243
SWIDTH 451 0
DWIDTH 7 0
BBX 8 14 1 0
BITMAP
0C
0C
18
18
10
00
78
F8
DC
DF
CF
CC
F8
70
ENDCHAR
STARTCHAR ocircumflex
ENCODING 244
SWIDTH 451 0
DWIDTH 7 0
BBX 8 15 1 0
BITMAP
10
38
38
6C
6C
CC
00
78
F8
DC
DF
CF
CC
F8
70
ENDCHAR
STARTCHAR otilde
ENCODING 245
SWIDTH 451 0
DWIDTH 7 0
BBX 8 13 1 0
BITMAP
20
76
FE
8C
00
78
F8
DC
DF
CF
CC
F8
70
ENDCHAR
STARTCHAR odieresis
ENCODING 246
SWIDTH 451 0
DWIDTH 7 0
BBX 8 12 1 0
BITMAP
6C
6C
6C
00
78
F8
DC
DF
CF
CC
F8
70
ENDCHAR
STARTCHAR divide
ENCODING 247
SWIDTH 700 0
DWIDTH 11 0
BBX 9 10 1 0
BITMAP
0C00
0C00
0C00
0000
7F80
FF80
0000
1800
1800
1800
ENDCHAR
STARTCHAR oslash
ENCODING 248
SWIDTH 459 0
DWIDTH 7 0
BBX 8 12 1 -2
BITMAP
10
10
78
FC
DC
EF
AF
EC
F8
70
20
40
ENDCHAR
STARTCHAR ugrave
ENCODING 249
SWIDTH 462 0
DWIDTH 7 0
BBX 8 14 1 0
BITMAP
60
60
30
30
10
00
4C
CC
CC
D8
D9
F9
FF
CE
ENDCHAR
STARTCHAR uacute
ENCODING 250
SWIDTH 462 0
DWIDTH 7 0
BBX 8 14 1 0
BITMAP
06
0E
0C
08
10
00
4C
CC
CC
D8
D9
F9
FF
CE
ENDCHAR
STARTCHAR ucircumflex
ENCODING 251
SWIDTH 462 0
DWIDTH 7 0
BBX 8 15 1 0
BITMAP
08
1C
3C
3C
64
64
00
4C
CC
CC
D8
D9
F9
FF
CE
ENDCHAR
STARTCHAR udieresis
ENCODING 252
SWIDTH 462 0
DWIDTH 7 0
BBX 8 12 1 0
BITMAP
64
6E
64
00
4C
CC
CC
D8
D9
F9
FF
CE
ENDCHAR
STARTCHAR yacute
ENCODING 253
SWIDTH 479 0
DWIDTH 8 0
BBX 9 22 0 -8
BITMAP
0300
0700
0600
0400
0800
0000
2600
6600
6600
6E00
6C80
7D80
7F00
6E00
1C00
3C00
6800
5800
D800
D000
F000
E000
ENDCHAR
STARTCHAR thorn
ENCODING 254
SWIDTH 508 0
DWIDTH 8 0
BBX 10 19 0 -5
BITMAP
1000
3000
3000
3000
3000
6000
6E00
6E00
7700
7600
6640
66C0
7F80
7F00
C000
C000
C000
C000
C000
ENDCHAR
STARTCHAR ydieresis
ENCODING 255
SWIDTH 479 0
DWIDTH 8 0
BBX 9 20 0 -8
BITMAP
3200
3700
3200
0000
2600
6600
6600
6E00
6C80
7D80
7F00
6E00
1C00
3C00
6800
5800
D800
D000
F000
E000
ENDCHAR
STARTCHAR Amacron
ENCODING 256
SWIDTH 786 0
DWIDTH 13 0
BBX 14 17 1 0
BITMAP
03E0
03E0
03F0
0FF0
1C00
3860
70E0
60C0
E0C0
C0C0
C1C0
C1C0
C1C0
C3C4
E3CC
7EF8
3CF0
ENDCHAR
STARTCHAR amacron
ENCODING 257
SWIDTH 470 0
DWIDTH 8 0
BBX 9 11 1 0
BITMAP
3E00
7C00
0000
3000
7C00
EC00
CC00
D880
D980
FF00
EE00
ENDCHAR
STARTCHAR Abreve
ENCODING 258
SWIDTH 786 0
DWIDTH 13 0
BBX 14 18 1 0
BITMAP
0630
03F0
01E0
03F0
0FF0
1C00
3860
70E0
60C0
E0C0
C0C0
C1C0
C1C0
C1C0
C3C4
E3CC
7EF8
3CF0
ENDCHAR
STARTCHAR abreve
ENCODING 259
SWIDTH 470 0
DWIDTH 8 0
BBX 9 13 1 0
BITMAP
6200
6600
7E00
3C00
0000
3000
7C00
EC00
CC00
D880
D980
FF00
EE00
ENDCHAR
STARTCHAR Aogonek
ENCODING 260
SWIDTH 786 0
DWIDTH 13 0
BBX 14 19 1 -4
BITMAP
03F0
0FF0
1C00
3060
70E0
60C0
E0C0
C0C0
C1C0
C1C0
C1C0
C3C4
E3CC
7EF8
3CF0
00C0
00C0
00F0
0070
ENDCHAR
STARTCHAR aogonek
ENCODING 261
SWIDTH 470 0
DWIDTH 8 0
BBX 9 12 1 -4
BITMAP
3000
7C00
EC00
CC00
D880
D980
FF00
EE00
1800
1800
1E00
0E00
ENDCHAR
STARTCHAR Cacute
ENCODING 262
SWIDTH 686 0
DWIDTH 11 0
BBX 12 19 1 0
BITMAP
0060
00E0
01C0
0300
0F80
1FC0
38C0
70C0
60C0
E0C0
E000
C000
C000
C000
E000
6000
7030
3FF0
1FC0
ENDCHAR
STARTCHAR cacute
ENCODING 263
SWIDTH 368 0
DWIDTH 6 0
BBX 7 14 1 0
BITMAP
0C
0C
18
18
10
00
70
F8
D8
D0
C2
C6
FC
78
ENDCHAR
STARTCHAR Ccircumflex
ENCODING 264
SWIDTH 686 0
DWIDTH 11 0
BBX 12 20 1 0
BITMAP
0100
0380
0780
0C80
0CC0
0F80
1FC0
38C0
70C0
60C0
E0C0
E000
C000
C000
C000
E000
6000
7030
3FF0
1FC0
ENDCHAR
STARTCHAR ccircumflex
ENCODING 265
SWIDTH 368 0
DWIDTH 6 0
BBX 7 15 1 0
BITMAP
10
38
38
6C
6C
CC
00
70
F8
D8
D0
C2
C6
FC
78
ENDCHAR
STARTCHAR Cdotaccent
ENCODING 266
SWIDTH 686 0
DWIDTH 11 0
BBX 12 18 1 0
BITMAP
0300
0700
0300
0F80
1FC0
38C0
70C0
60C0
E0C0
E000
C000
C000
C000
E000
6000
7030
3FF0
1FC0
ENDCHAR
STARTCHAR cdotaccent
ENCODING 267
SWIDTH 368 0
DWIDTH 6 0
BBX 7 12 1 0
BITMAP
30
38
30
00
70
F8
D8
D0
C2
C6
FC
78
ENDCHAR
STARTCHAR Ccaron
ENCODING 268
SWIDTH 686 0
DWIDTH 11 0
BBX 12 20 1 0
BITMAP
0440
04C0
0780
0780
0300
0F80
1FC0
38C0
70C0
60C0
E0C0
E000
C000
C000
C000
E000
6000
7030
3FF0
1FC0
ENDCHAR
STARTCHAR ccaron
ENCODING 269
SWIDTH 368 0
DWIDTH 6 0
BBX 7 15 1 0
BITMAP
24
66
6C
28
38
30
00
70
F8
D8
D0
C2
C6
FC
78
ENDCHAR
STARTCHAR Dcaron
ENCODING 270
SWIDTH 836 0
DWIDTH 13 0
BBX 12 20 1 0
BITMAP
0880
0D80
0D80
0700
0600
1F80
FFC0
E0E0
8070
3870
3030
3030
3030
7030
6070
6060
60E0
61C0
7F80
7E00
ENDCHAR
STARTCHAR dcaron
ENCODING 271
SWIDTH 470 0
DWIDTH 8 0
BBX 10 16 1 0
BITMAP
0080
06C0
0680
0680
0600
0600
0400
0C00
3C00
7C00
EC00
CC00
D880
D980
FF00
EE00
ENDCHAR
STARTCHAR Dcroat
ENCODING 272
SWIDTH 821 0
DWIDTH 13 0
BBX 13 15 0 0
BITMAP
0F80
0FE0
1C70
1830
1838
1838
7F38
FF38
3038
3030
3030
3060
30E0
7FC0
3F00
ENDCHAR
STARTCHAR dcroat
ENCODING 273
SWIDTH 470 0
DWIDTH 8 0
BBX 9 15 1 0
BITMAP
0600
0600
0600
3F00
3F00
0400
0C00
3C00
7C00
EC00
CC00
D880
D980
FF00
EE00
ENDCHAR
STARTCHAR Emacron
ENCODING 274
SWIDTH 686 0
DWIDTH 11 0
BBX 13 17 0 0
BITMAP
07C0
07C0
07C0
1FE0
3860
3860
3060
3820
1F00
1F00
7000
6000
6000
E000
7018
3FF8
1FE0
ENDCHAR
STARTCHAR emacron
ENCODING 275
SWIDTH 393 0
DWIDTH 6 0
BBX 7 11 1 0
BITMAP
7C
7C
00
78
F8
D8
D8
F2
C6
FE
78
ENDCHAR
STARTCHAR Ebreve
ENCODING 276
SWIDTH 686 0
DWIDTH 11 0
BBX 13 18 0 0
BITMAP
0C60
07E0
03C0
07C0
1FE0
3860
3860
3060
3820
1F00
1F00
7000
6000
6000
E000
7018
3FF8
1FE0
ENDCHAR
STARTCHAR ebreve
ENCODING 277
SWIDTH 393 0
DWIDTH 6 0
BBX 7 13 1 0
BITMAP
C6
C6
7C
38
00
78
F8
D8
D8
F2
C6
FE
78
ENDCHAR
STARTCHAR Edotaccent
ENCODING 278
SWIDTH 686 0
DWIDTH 11 0
BBX 13 18 0 0
BITMAP
0180
0380
0180
07C0
1FE0
3860
3860
3060
3820
1F00
1F00
7000
6000
6000
E000
7018
3FF8
1FE0
ENDCHAR
STARTCHAR edotaccent
ENCODING 279
SWIDTH 393 0
DWIDTH 6 0
BBX 7 12 1 0
BITMAP
10
38
30
00
78
F8
D8
D8
F2
C6
FE
78
ENDCHAR
STARTCHAR Eogonek
ENCODING 280
SWIDTH 686 0
DWIDTH 11 0
BBX 13 20 0 -5
BITMAP
07C0
1FE0
3860
3860
3060
3820
1F00
1F00
7000
6000
6000
E000
7018
7FF8
1FE0
0300
0600
0600
03C0
0380
ENDCHAR
STARTCHAR eogonek
ENCODING 281
SWIDTH 393 0
DWIDTH 6 0
BBX 7 13 1 -5
BITMAP
78
F8
D8
D8
F2
E2
EE
7C
30
20
60
3C
10
ENDCHAR
STARTCHAR Ecaron
ENCODING 282
SWIDTH 686 0
DWIDTH 11 0
BBX 13 20 0 0
BITMAP
0220
0660
02C0
0380
0180
07C0
1FE0
3860
3860
3060
3820
1F00
1F00
7000
6000
6000
E000
7018
3FF8
1FE0
ENDCHAR
STARTCHAR ecaron
ENCODING 283
SWIDTH 393 0
DWIDTH 6 0
BBX 7 15 1 0
BITMAP
24
66
2C
2C
38
30
00
78
F8
D8
D8
F2
C6
FE
78
ENDCHAR
STARTCHAR Gcircumflex
ENCODING 284
SWIDTH 811 0
DWIDTH 13 0
BBX 14 28 1 -8
BITMAP
0100
0380
0680
06C0
0CC0
0F80
1FC0
38C0
7060
60E0
E0C0
E000
C000
C000
C3E0
E1E0
6060
706C
3FF8
1FF0
00C0
01C0
03C0
06C0
0580
0D80
0F00
0700
ENDCHAR
STARTCHAR gcircumflex
ENCODING 285
SWIDTH 479 0
DWIDTH 8 0
BBX 9 23 0 -8
BITMAP
0400
0E00
0A00
1A00
1300
3300
0000
1800
3E00
7600
6600
6C80
6D80
7F00
7E00
1C00
3C00
6800
5800
D800
D800
F000
6000
ENDCHAR
STARTCHAR Gbreve
ENCODING 286
SWIDTH 811 0
DWIDTH 13 0
BBX 14 26 1 -8
BITMAP
0C60
0FC0
0780
0F80
1FC0
38C0
7060
60E0
E0C0
E000
C000
C000
C3E0
E1E0
6060
706C
3FF8
1FF0
00C0
01C0
03C0
06C0
0580
0D80
0F00
0700
ENDCHAR
STARTCHAR gbreve
ENCODING 287
SWIDTH 479 0
DWIDTH 8 0
BBX 9 21 0 -8
BITMAP
3100
3300
3F00
1E00
0000
1800
3E00
7600
6600
6C80
6D80
7F00
7E00
1C00
3C00
6800
5800
D800
D800
F000
6000
ENDCHAR
STARTCHAR Gdotaccent
ENCODING 288
SWIDTH 811 0
DWIDTH 13 0
BBX 14 26 1 -8
BITMAP
0300
0380
0300
0F80
1FC0
38C0
7060
60E0
E0C0
E000
C000
C000
C3E0
E1E0
6060
706C
3FF8
1FF0
00C0
01C0
03C0
06C0
0580
0D80
0F00
0700
ENDCHAR
STARTCHAR gdotaccent
ENCODING 289
SWIDTH 479 0
DWIDTH 8 0
BBX 9 20 0 -8
BITMAP
0C00
0E00
0C00
0000
1800
3E00
7600
6600
6C80
6D80
7F00
7E00
1C00
3C00
6800
5800
D800
D800
F000
6000
ENDCHAR
STARTCHAR uni0122
ENCODING 290
SWIDTH 811 0
DWIDTH 13 0
BBX 14 23 1 -8
BITMAP
0F80
1FC0
38C0
7060
60E0
E0C0
E000
C000
C000
C3E0
E1E0
6060
706C
3FF8
1FF0
00C0
31C0
33C0
36C0
3580
0D80
0F00
0700
ENDCHAR
STARTCHAR uni0123
ENCODING 291
SWIDTH 479 0
DWIDTH 8 0
BBX 9 21 0 -8
BITMAP
0400
0C00
0C00
0C00
0000
1800
3E00
7600
6600
6C80
6D80
7F00
7E00
1C00
3C00
6800
5800
D800
D800
F000
6000
ENDCHAR
STARTCHAR Hcircumflex
ENCODING 292
SWIDTH 873 0
DWIDTH 14 0
BBX 16 20 0 0
BITMAP
0040
01C0
01E0
0360
0320
380E
7C1E
CC1A
8C32
0C36
0C66
0C7C
3FF8
3FE0
1860
1860
1861
1873
383E
301C
ENDCHAR
STARTCHAR hcircumflex
ENCODING 293
SWIDTH 502 0
DWIDTH 8 0
BBX 9 22 1 0
BITMAP
0800
1C00
1E00
3600
2600
0000
1800
3C00
2C00
6C00
6C00
4800
D800
D000
EC00
DC00
FC00
EC00
EC80
CD80
CF00
CE00
ENDCHAR
STARTCHAR Hbar
ENCODING 294
SWIDTH 856 0
DWIDTH 14 0
BBX 13 15 1 0
BITMAP
3030
3830
3070
7FF8
FFF8
3060
3060
FFF8
FFF0
60E0
60E0
60C0
60C0
60C0
60C0
ENDCHAR
STARTCHAR hbar
ENCODING 295
SWIDTH 502 0
DWIDTH 8 0
BBX 9 15 1 0
BITMAP
3000
3000
6000
FC00
FC00
6000
6000
CC00
DC00
FC00
EC00
EC80
CD80
CF00
CE00
ENDCHAR
STARTCHAR Itilde
ENCODING 296
SWIDTH 495 0
DWIDTH 8 0
BBX 9 19 0 0
BITMAP
0800
1C80
3780
2300
3F80
3F80
0C00
0C00
0C00
1C00
1C00
1800
1800
1800
1800
1800
1800
FE00
FE00
ENDCHAR
STARTCHAR itilde
ENCODING 297
SWIDTH 246 0
DWIDTH 4 0
BBX 7 13 -1 0
BITMAP
20
72
DE
4C
00
10
30
30
30
32
36
3C
38
ENDCHAR
STARTCHAR Imacron
ENCODING 298
SWIDTH 495 0
DWIDTH 8 0
BBX 9 17 0 0
BITMAP
1F00
1F00
3F80
3F80
0C00
0C00
0C00
1C00
1C00
1800
1800
1800
1800
1800
1800
FE00
FE00
ENDCHAR
STARTCHAR imacron
ENCODING 299
SWIDTH 246 0
DWIDTH 4 0
BBX 6 11 0 0
BITMAP
F8
F8
00
20
60
60
60
64
6C
78
70
ENDCHAR
STARTCHAR Ibreve
ENCODING 300
SWIDTH 495 0
DWIDTH 8 0
BBX 9 18 0 0
BITMAP
3180
1F80
0F00
3F80
3F80
0C00
0C00
0C00
1C00
1C00
1800
1800
1800
1800
1800
1800
FE00
FE00
ENDCHAR
STARTCHAR ibreve
ENCODING 301
SWIDTH 246 0
DWIDTH 4 0
BBX 6 13 0 0
BITMAP
84
CC
FC
78
00
20
60
60
60
64
6C
78
70
ENDCHAR
STARTCHAR Iogonek
ENCODING 302
SWIDTH 495 0
DWIDTH 8 0
BBX 9 19 0 -4
BITMAP
3F80
3F80
0C00
0C00
0C00
1C00
1C00
1800
1800
1800
1800
1800
1800
FE00
FE00
3000
2000
3C00
3C00
ENDCHAR
STARTCHAR iogonek
ENCODING 303
SWIDTH 246 0
DWIDTH 4 0
BBX 6 16 0 -4
BITMAP
30
70
30
00
20
60
60
60
64
6C
78
30
40
C0
70
78
ENDCHAR
STARTCHAR Idotaccent
ENCODING 304
SWIDTH 495 0
DWIDTH 8 0
BBX 9 18 0 0
BITMAP
0600
0E00
0E00
3F80
3F80
0C00
0C00
0C00
1C00
1C00
1800
1800
1800
1800
1800
1800
FE00
FE00
ENDCHAR
STARTCHAR dotlessi
ENCODING 305
SWIDTH 246 0
DWIDTH 4 0
BBX 5 8 1 0
BITMAP
40
C0
C0
C0
C8
D8
F0
E0
ENDCHAR
STARTCHAR Jcircumflex
ENCODING 308
SWIDTH 743 0
DWIDTH 12 0
BBX 11 21 1 -1
BITMAP
0200
0700
0D00
0D80
1980
1FE0
7FE0
E0C0
C0C0
C0C0
C0C0
00C0
03C0
0F80
1D80
3180
3180
6300
6700
3E00
3C00
ENDCHAR
STARTCHAR jcircumflex
ENCODING 309
SWIDTH 254 0
DWIDTH 4 0
BBX 10 23 -4 -8
BITMAP
0100
0380
0780
0780
0D80
0C80
0000
0600
0600
0600
0600
0640
07C0
0780
0600
0C00
1C00
3C00
6C00
4800
D800
F000
7000
ENDCHAR
STARTCHAR uni0136
ENCODING 310
SWIDTH 937 0
DWIDTH 15 0
BBX 17 20 0 -5
BITMAP
1F8600
3F8600
738600
638E00
630C00
631800
233800
07E000
07C000
036000
077000
463080
C63980
7E1F00
3C0E00
000000
018000
018000
018000
010000
ENDCHAR
STARTCHAR uni0137
ENCODING 311
SWIDTH 525 0
DWIDTH 8 0
BBX 9 21 1 -5
BITMAP
1800
3C00
2C00
6C00
6800
4800
D800
F000
EE00
DE00
F600
E600
FC80
D880
DF80
CF00
0000
3000
3000
2000
2000
ENDCHAR
STARTCHAR kgreenlandic
ENCODING 312
SWIDTH 465 0
DWIDTH 7 0
BBX 9 8 1 0
BITMAP
4E00
DE00
F600
F600
F180
F100
DF00
CE00
ENDCHAR
STARTCHAR Lacute
ENCODING 313
SWIDTH 673 0
DWIDTH 11 0
BBX 14 19 -1 0
BITMAP
0018
0038
0070
0040
01E0
07F0
0638
0E18
0C18
0C30
0C00
0C00
1C00
1C00
1C00
1800
7E0C
FFF8
71F0
ENDCHAR
STARTCHAR lacute
ENCODING 314
SWIDTH 326 0
DWIDTH 5 0
BBX 9 21 1 0
BITMAP
0100
0780
0E00
0800
0000
1800
3C00
2C00
6C00
6C00
4C00
C800
D800
D000
F000
E000
E000
C400
CC00
FC00
7000
ENDCHAR
STARTCHAR uni013B
ENCODING 315
SWIDTH 673 0
DWIDTH 11 0
BBX 14 20 -1 -5
BITMAP
01E0
07F0
0638
0E18
0C18
0C30
0C00
0C00
1C00
1C00
1C00
1800
7E0C
FFF8
71F0
0000
0600
0600
0600
0400
ENDCHAR
STARTCHAR uni013C
ENCODING 316
SWIDTH 326 0
DWIDTH 5 0
BBX 6 21 1 -5
BITMAP
18
3C
2C
6C
6C
4C
C8
D8
D0
F0
E0
E0
C4
CC
FC
70
00
60
60
40
40
ENDCHAR
STARTCHAR Lcaron
ENCODING 317
SWIDTH 673 0
DWIDTH 11 0
BBX 15 15 -1 0
BITMAP
01E0
07F2
063E
0E1E
0C1E
0C30
0C00
0C00
1C00
1C00
1C00
1800
7E0C
FFF8
71F0
ENDCHAR
STARTCHAR lcaron
ENCODING 318
SWIDTH 237 0
DWIDTH 4 0
BBX 6 16 1 0
BITMAP
0C
3C
6C
68
60
60
60
C0
C0
C0
C0
C0
C8
D8
F0
E0
ENDCHAR
STARTCHAR Ldot
ENCODING 319
SWIDTH 673 0
DWIDTH 11 0
BBX 14 15 -1 0
BITMAP
01E0
07F0
0638
0E18
0C18
0C30
0C00
0CC0
1DC0
1DC0
1C00
1800
7E0C
FFF8
71F0
ENDCHAR
STARTCHAR ldot
ENCODING 320
SWIDTH 363 0
DWIDTH 6 0
BBX 7 16 1 0
BITMAP
30
30
70
60
60
60
60
F8
D8
D8
C0
C0
C2
C6
FC
78
ENDCHAR
STARTCHAR Lslash
ENCODING 321
SWIDTH 673 0
DWIDTH 11 0
BBX 14 17 -1 0
BITMAP
03F8
07F8
01E0
03F0
0638
0E18
0C18
0C30
0C00
0C00
1C00
1C00
1C00
1800
7E0C
FFF8
71F0
ENDCHAR
STARTCHAR lslash
ENCODING 322
SWIDTH 326 0
DWIDTH 5 0
BBX 9 17 1 0
BITMAP
1F00
7F80
1800
3C00
6C00
6C00
6C00
C800
C800
D800
D000
F000
E000
C400
CC00
7C00
7000
ENDCHAR
STARTCHAR Nacute
ENCODING 323
SWIDTH 884 0
DWIDTH 14 0
BBX 16 19 0 0
BITMAP
0018
0038
0070
00C0
3870
7CF8
CD18
8F18
0E18
0E18
0C38
1C38
1C30
1830
1830
1831
1833
183E
181C
ENDCHAR
STARTCHAR nacute
ENCODING 324
SWIDTH 496 0
DWIDTH 8 0
BBX 9 14 1 0
BITMAP
0600
0600
0C00
0800
1800
0000
4C00
DC00
FC00
EC00
EC80
CD80
CF00
CE00
ENDCHAR
STARTCHAR uni0145
ENCODING 325
SWIDTH 884 0
DWIDTH 14 0
BBX 16 20 0 -5
BITMAP
3870
7CF8
CD18
8F18
0E18
0E18
0C38
1C38
1C30
1830
1830
1831
1833
183E
181C
0000
0300
0300
0200
0200
ENDCHAR
STARTCHAR uni0146
ENCODING 326
SWIDTH 496 0
DWIDTH 8 0
BBX 9 13 1 -5
BITMAP
4C00
DC00
FC00
EC00
EC80
CD80
CF00
CE00
0000
3000
3000
2000
2000
ENDCHAR
STARTCHAR Ncaron
ENCODING 327
SWIDTH 884 0
DWIDTH 14 0
BBX 16 20 0 0
BITMAP
0110
0130
01A0
00E0
00C0
3870
7CF8
CD18
8F18
0E18
0E18
0C38
1C38
1C30
1830
1830
1831
1833
183E
181C
ENDCHAR
STARTCHAR ncaron
ENCODING 328
SWIDTH 496 0
DWIDTH 8 0
BBX 9 15 1 0
BITMAP
2200
3200
3600
1400
1C00
1800
0000
4C00
DC00
FC00
EC00
EC80
CD80
CF00
CE00
ENDCHAR
STARTCHAR napostrophe
ENCODING 329
SWIDTH 496 0
DWIDTH 8 0
BBX 10 13 0 0
BITMAP
C000
C000
C000
8000
0000
2600
6E00
7E00
7600
7640
66C0
6780
6700
ENDCHAR
STARTCHAR Eng
ENCODING 330
SWIDTH 884 0
DWIDTH 14 0
BBX 16 21 0 -6
BITMAP
3870
7CF8
CD18
8F18
0E18
0E18
0C38
1C38
1C30
1830
1830
1871
1873
187E
187C
0060
00C0
10C0
18C0
1F80
0F00
ENDCHAR
STARTCHAR eng
ENCODING 331
SWIDTH 495 0
DWIDTH 8 0
BBX 10 13 0 -5
BITMAP
2600
6E00
7E00
7600
7640
66C0
6780
6F00
0C00
0C00
4800
D800
7000
ENDCHAR
STARTCHAR Omacron
ENCODING 332
SWIDTH 816 0
DWIDTH 13 0
BBX 12 17 1 0
BITMAP
0F80
0F80
0F80
1FC0
38E0
7060
6070
E070
E070
C070
C070
C060
E060
E0E0
71C0
3F80
1E00
ENDCHAR
STARTCHAR omacron
ENCODING 333
SWIDTH 451 0
DWIDTH 7 0
BBX 8 11 1 0
BITMAP
7C
7C
00
78
F8
DC
DF
CF
CC
F8
70
ENDCHAR
STARTCHAR Obreve
ENCODING 334
SWIDTH 816 0
DWIDTH 13 0
BBX 12 18 1 0
BITMAP
0C40
0FC0
0780
0F80
1FC0
38E0
7060
6070
E070
E070
C070
C070
C060
E060
E0E0
71C0
3F80
1E00
ENDCHAR
STARTCHAR obreve
ENCODING 335
SWIDTH 451 0
DWIDTH 7 0
BBX 8 13 1 0
BITMAP
C6
C6
7C
78
00
78
F8
DC
DF
CF
CC
F8
70
ENDCHAR
STARTCHAR Ohungarumlaut
ENCODING 336
SWIDTH 816 0
DWIDTH 13 0
BBX 12 19 1 0
BITMAP
02C0
06C0
06C0
0480
0F80
1FC0
38E0
7060
6070
E070
E070
C070
C070
C060
E060
E0E0
71C0
3F80
1E00
ENDCHAR
STARTCHAR ohungarumlaut
ENCODING 337
SWIDTH 451 0
DWIDTH 7 0
BBX 8 14 1 0
BITMAP
36
36
34
6C
48
00
78
F8
DC
DF
CF
CC
F8
70
ENDCHAR
STARTCHAR OE
ENCODING 338
SWIDTH 1124 0
DWIDTH 18 0
BBX 19 15 1 0
BITMAP
0F8FC0
1FDFC0
38F800
707800
607800
E07000
E07000
C07F80
C07F80
C07000
E07000
E0F000
71F060
3FBFE0
1E0F80
ENDCHAR
STARTCHAR oe
ENCODING 339
SWIDTH 668 0
DWIDTH 11 0
BBX 12 8 1 0
BITMAP
7380
FFC0
CCC0
CD80
CF10
CC30
FFE0
73C0
ENDCHAR
STARTCHAR Racute
ENCODING 340
SWIDTH 880 0
DWIDTH 14 0
BBX 15 19 1 0
BITMAP
0020
00F0
01C0
0100
07C0
1FE0
3070
6470
6630
C670
CE60
CCE0
DFC0
DF80
CDC0
CCC2
DCE6
787C
3838
ENDCHAR
STARTCHAR racute
ENCODING 341
SWIDTH 455 0
DWIDTH 7 0
BBX 9 14 1 0
BITMAP
0400
0E00
0C00
1800
1000
0000
4C00
DC00
DC00
ED80
EF00
C600
C000
C000
ENDCHAR
STARTCHAR uni0156
ENCODING 342
SWIDTH 880 0
DWIDTH 14 0
BBX 15 20 1 -5
BITMAP
07C0
1FE0
3070
6470
6630
C670
CE60
CCE0
DFC0
DF80
CDC0
CCC2
DCE6
787C
3838
0000
0300
0300
0200
0200
ENDCHAR
STARTCHAR uni0157
ENCODING 343
SWIDTH 455 0
DWIDTH 7 0
BBX 9 13 1 -5
BITMAP
4C00
DC00
DC00
ED80
EF00
C600
C000
C000
0000
C000
C000
8000
8000
ENDCHAR
STARTCHAR Rcaron
ENCODING 344
SWIDTH 880 0
DWIDTH 14 0
BBX 15 20 1 0
BITMAP
0440
0640
06C0
0380
0300
07C0
1FE0
3070
6470
6630
C670
CE60
CCE0
DFC0
DF80
CDC0
CCC2
DCE6
787C
3838
ENDCHAR
STARTCHAR rcaron
ENCODING 345
SWIDTH 455 0
DWIDTH 7 0
BBX 9 15 1 0
BITMAP
2200
2600
3400
3C00
3800
1800
0000
4C00
DC00
DC00
ED80
EF00
C600
C000
C000
ENDCHAR
STARTCHAR Sacute
ENCODING 346
SWIDTH 693 0
DWIDTH 11 0
BBX 10 19 1 0
BITMAP
00C0
01C0
0380
0600
1F00
3F80
60C0
60C0
60C0
7080
7800
3F00
0F80
8380
C1C0
C180
C180
FF00
3E00
ENDCHAR
STARTCHAR sacute
ENCODING 347
SWIDTH 427 0
DWIDTH 7 0
BBX 9 14 0 0
BITMAP
0600
0600
0C00
0C00
0800
0000
1800
1800
3800
3800
6C80
CD80
BF00
3E00
ENDCHAR
STARTCHAR Scircumflex
ENCODING 348
SWIDTH 693 0
DWIDTH 11 0
BBX 10 20 1 0
BITMAP
0200
0700
0F00
1D80
1980
1F00
3F80
60C0
60C0
60C0
7080
7800
3F00
0F80
8380
C1C0
C180
C180
FF00
3E00
ENDCHAR
STARTCHAR scircumflex
ENCODING 349
SWIDTH 427 0
DWIDTH 7 0
BBX 9 15 0 0
BITMAP
0800
0C00
1C00
3600
3600
2600
0000
1800
1800
3800
3800
6C80
CD80
BF00
3E00
ENDCHAR
STARTCHAR Scedilla
ENCODING 350
SWIDTH 693 0
DWIDTH 11 0
BBX 10 19 1 -4
BITMAP
1F00
3FC0
60C0
60C0
60C0
7080
7C00
3F00
0F80
8380
C1C0
C180
C380
7F00
3C00
0C00
0C00
7C00
7800
ENDCHAR
STARTCHAR scedilla
ENCODING 351
SWIDTH 427 0
DWIDTH 7 0
BBX 9 13 0 -5
BITMAP
1800
1800
3800
3800
6C80
CD80
BF00
3E00
3800
0C00
0800
7800
6000
ENDCHAR
STARTCHAR Scaron
ENCODING 352
SWIDTH 693 0
DWIDTH 11 0
BBX 10 20 1 0
BITMAP
0880
0980
0D00
0700
0600
1F00
3F80
60C0
60C0
60C0
7080
7800
3F00
0F80
8380
C1C0
C180
C180
FF00
3E00
ENDCHAR
STARTCHAR scaron
ENCODING 353
SWIDTH 427 0
DWIDTH 7 0
BBX 9 15 0 0
BITMAP
1200
3300
3600
1400
1C00
1800
0000
1800
1800
3800
3800
6C80
CD80
BF00
3E00
ENDCHAR
STARTCHAR uni0162
ENCODING 354
SWIDTH 697 0
DWIDTH 11 0
BBX 13 19 1 -4
BITMAP
1FF8
7FF8
C700
8700
C600
C600
0600
0600
0E00
0E00
0C00
0C00
0C00
1C00
1C00
0600
0600
3C00
3800
ENDCHAR
STARTCHAR uni0163
ENCODING 355
SWIDTH 393 0
DWIDTH 6 0
BBX 8 20 0 -5
BITMAP
0C
0E
1E
16
36
34
38
FE
FE
60
60
61
31
3F
3E
38
0C
0C
78
70
ENDCHAR
STARTCHAR Tcaron
ENCODING 356
SWIDTH 697 0
DWIDTH 11 0
BBX 13 20 1 0
BITMAP
0440
06C0
06C0
0380
0300
1FF8
7FF8
C700
8700
C600
C600
0600
0600
0E00
0E00
0C00
0C00
0C00
0C00
0C00
ENDCHAR
STARTCHAR tcaron
ENCODING 357
SWIDTH 343 0
DWIDTH 5 0
BBX 8 16 0 0
BITMAP
02
02
06
1E
38
30
30
FC
FC
60
60
60
61
62
7E
3C
ENDCHAR
STARTCHAR Tbar
ENCODING 358
SWIDTH 697 0
DWIDTH 11 0
BBX 13 15 1 0
BITMAP
1FF8
7FF8
C700
C700
C600
C600
8600
3FC0
3F80
0E00
0E00
0C00
0C00
0C00
0C00
ENDCHAR
STARTCHAR tbar
ENCODING 359
SWIDTH 343 0
DWIDTH 5 0
BBX 8 13 0 0
BITMAP
18
38
30
30
FC
FC
60
FC
FC
61
62
7E
3C
ENDCHAR
STARTCHAR Utilde
ENCODING 360
SWIDTH 890 0
DWIDTH 14 0
BBX 16 19 0 0
BITMAP
0100
0390
06F0
0260
3C18
7C18
CC18
8C18
0C18
0C38
1C38
1C38
1830
1870
1870
18B1
19B3
1F3E
0E1C
ENDCHAR
STARTCHAR utilde
ENCODING 361
SWIDTH 462 0
DWIDTH 7 0
BBX 8 13 1 0
BITMAP
20
72
DE
4C
00
4C
CC
CC
D8
D9
F9
FF
CE
ENDCHAR
STARTCHAR Umacron
ENCODING 362
SWIDTH 890 0
DWIDTH 14 0
BBX 16 17 0 0
BITMAP
03E0
03E0
3C18
7C18
CC18
8C18
0C18
0C38
1C38
1C38
1830
1870
1870
18B1
19B3
1F3E
0E1C
ENDCHAR
STARTCHAR umacron
ENCODING 363
SWIDTH 462 0
DWIDTH 7 0
BBX 8 11 1 0
BITMAP
7C
7C
00
4C
CC
CC
D8
D9
F9
FF
CE
ENDCHAR
STARTCHAR Ubreve
ENCODING 364
SWIDTH 890 0
DWIDTH 14 0
BBX 16 18 0 0
BITMAP
0230
03F0
01E0
3C18
7C18
CC18
8C18
0C18
0C38
1C38
1C38
1830
1870
1870
18B1
19B3
1F3E
0E1C
ENDCHAR
STARTCHAR ubreve
ENCODING 365
SWIDTH 462 0
DWIDTH 7 0
BBX 8 13 1 0
BITMAP
42
66
7E
3C
00
4C
CC
CC
D8
D9
F9
FF
CE
ENDCHAR
STARTCHAR Uring
ENCODING 366
SWIDTH 890 0
DWIDTH 14 0
BBX 16 20 0 0
BITMAP
00C0
01E0
0120
01E0
00C0
3C18
7C18
CC18
8C18
0C18
0C38
1C38
1C38
1830
1870
1870
18B1
19B3
1F3E
0E1C
ENDCHAR
STARTCHAR uring
ENCODING 367
SWIDTH 462 0
DWIDTH 7 0
BBX 8 14 1 0
BITMAP
18
3C
24
3C
18
00
4C
CC
CC
D8
D9
F9
FF
CE
ENDCHAR
STARTCHAR Uhungarumlaut
ENCODING 368
SWIDTH 890 0
DWIDTH 14 0
BBX 16 19 0 0
BITMAP
01B0
01B0
01A0
0120
3C18
7C18
CC18
8C18
0C18
0C38
1C38
1C38
1830
1870
1870
18B1
19B3
1F3E
0E1C
ENDCHAR
STARTCHAR uhungarumlaut
ENCODING 369
SWIDTH 462 0
DWIDTH 7 0
BBX 8 14 1 0
BITMAP
1A
1F
36
34
24
00
4C
CC
CC
D8
D9
F9
FF
CE
ENDCHAR
STARTCHAR Uogonek
ENCODING 370
SWIDTH 890 0
DWIDTH 14 0
BBX 16 19 0 -4
BITMAP
3C18
7C18
CC18
8C18
0C18
0C38
1C38
1C38
1830
1870
1870
18F1
19B1
1F3F
0E1C
0018
0018
001E
000E
ENDCHAR
STARTCHAR uogonek
ENCODING 371
SWIDTH 462 0
DWIDTH 7 0
BBX 8 12 1 -4
BITMAP
4C
CC
CC
D8
D9
F9
FF
CC
18
18
1E
0E
ENDCHAR
STARTCHAR Wcircumflex
ENCODING 372
SWIDTH 1217 0
DWIDTH 19 0
BBX 20 20 2 0
BITMAP
004000
00E000
00B000
01B000
013000
60C380
E0C7C0
E0C6C0
C1C4C0
C1C4C0
C1C6C0
C1C780
C3C3F0
C3C1F0
C3C300
C6C300
E6C600
6CEC00
7C7C00
387000
ENDCHAR
STARTCHAR wcircumflex
ENCODING 373
SWIDTH 700 0
DWIDTH 11 0
BBX 12 15 1 0
BITMAP
0400
0E00
0A00
1A00
1B00
3300
0000
CCC0
CDC0
DDC0
DDF0
DDF0
FF00
EF00
E600
ENDCHAR
STARTCHAR Ycircumflex
ENCODING 374
SWIDTH 851 0
DWIDTH 14 0
BBX 15 25 0 -5
BITMAP
0040
00E0
01E0
0320
0330
3C18
7C18
CC18
8C18
0C18
0C38
1C38
1878
1870
18F0
1FB6
0F3E
00F8
03F0
0730
0E60
0C60
0CE0
0FC0
0780
ENDCHAR
STARTCHAR ycircumflex
ENCODING 375
SWIDTH 479 0
DWIDTH 8 0
BBX 9 23 0 -8
BITMAP
0400
0E00
1E00
1E00
3200
3200
0000
2600
6600
6600
6E00
6C80
7D80
7F00
6E00
1C00
3C00
6800
5800
D800
D000
F000
E000
ENDCHAR
STARTCHAR Ydieresis
ENCODING 376
SWIDTH 851 0
DWIDTH 14 0
BBX 15 23 0 -5
BITMAP
0130
03F0
0330
3C18
7C18
CC18
8C18
0C18
0C38
1C38
1878
1870
18F0
1FB6
0F3E
00F8
03F0
0730
0E60
0C60
0CE0
0FC0
0780
ENDCHAR
STARTCHAR Zacute
ENCODING 377
SWIDTH 721 0
DWIDTH 12 0
BBX 14 19 0 0
BITMAP
0020
00F0
01C0
0100
0FE0
3FF0
6070
6060
60C0
61C0
0180
0380
0300
0700
0600
0E00
7E0C
FFF8
71F0
ENDCHAR
STARTCHAR zacute
ENCODING 378
SWIDTH 445 0
DWIDTH 7 0
BBX 8 14 1 0
BITMAP
04
0E
0C
18
10
00
FE
FC
38
60
C1
C3
FE
7C
ENDCHAR
STARTCHAR Zdotaccent
ENCODING 379
SWIDTH 721 0
DWIDTH 12 0
BBX 14 18 0 0
BITMAP
0180
0380
0380
0FE0
3FF0
6070
6060
60C0
61C0
0180
0380
0300
0700
0600
0E00
7E0C
FFF8
71F0
ENDCHAR
STARTCHAR zdotaccent
ENCODING 380
SWIDTH 445 0
DWIDTH 7 0
BBX 8 12 1 0
BITMAP
18
38
18
00
FE
FC
38
60
C1
C3
FE
7C
ENDCHAR
STARTCHAR Zcaron
ENCODING 381
SWIDTH 721 0
DWIDTH 12 0
BBX 14 20 0 0
BITMAP
0440
0640
06C0
0380
0300
0FE0
3FF0
6070
6060
60C0
61C0
0180
0380
0300
0700
0600
0E00
7E0C
FFF8
71F0
ENDCHAR
STARTCHAR zcaron
ENCODING 382
SWIDTH 445 0
DWIDTH 7 0
BBX 8 15 1 0
BITMAP
22
26
34
3C
38
18
00
FE
FC
38
60
C1
C3
FE
7C
ENDCHAR
STARTCHAR uni018F
ENCODING 399
SWIDTH 792 0
DWIDTH 13 0
BBX 11 15 1 0
BITMAP
0F00
3FC0
70E0
40E0
0060
0060
0060
FFE0
FFE0
C060
C0E0
E0C0
61C0
7F80
1E00
ENDCHAR
STARTCHAR florin
ENCODING 402
SWIDTH 478 0
DWIDTH 8 0
BBX 10 18 -1 -5
BITMAP
03C0
0780
0E00
0C00
0C00
3F80
3F80
0C00
0C00
0C00
0C00
1800
1800
1800
1800
1800
F000
E000
ENDCHAR
STARTCHAR Ohorn
ENCODING 416
SWIDTH 816 0
DWIDTH 13 0
BBX 13 17 1 0
BITMAP
0018
0018
0FF0
1FE0
38E0
7060
6070
E070
E070
C070
C070
C060
E060
E0C0
71C0
3F80
1E00
ENDCHAR
STARTCHAR ohorn
ENCODING 417
SWIDTH 451 0
DWIDTH 7 0
BBX 8 10 1 0
BITMAP
02
06
7E
F8
DC
DF
CF
CC
F8
70
ENDCHAR
STARTCHAR Uhorn
ENCODING 431
SWIDTH 890 0
DWIDTH 14 0
BBX 16 17 0 0
BITMAP
0003
0003
3C1F
7C1E
CC18
8C18
0C18
0C38
1C38
1C38
1830
1870
1870
18B1
19B3
1F3E
0E1C
ENDCHAR
STARTCHAR uhorn
ENCODING 432
SWIDTH 512 0
DWIDTH 8 0
BBX 9 10 1 0
BITMAP
0100
0300
4F00
CC00
CC00
D800
D880
F980
FF00
CE00
ENDCHAR
STARTCHAR uni01C4
ENCODING 452
SWIDTH 1531 0
DWIDTH 25 0
BBX 26 20 1 0
BITMAP
00004400
00006400
00006C00
00003800
00003000
1F01FE00
3FC3FF00
20E60700
00660E00
30660C00
30761C00
70701800
60703800
60603000
60607000
60E0E000
60C0C000
E3C7E0C0
FF8FFF80
7E071F00
ENDCHAR
STARTCHAR uni01C5
ENCODING 453
SWIDTH 1191 0
DWIDTH 19 0
BBX 19 15 1 0
BITMAP
1F0220
3FC360
20E360
0063C0
306180
307180
707000
607FC0
606FC0
606380
60E700
60CE00
E3CC00
FF8FC0
7E0FC0
ENDCHAR
STARTCHAR uni01C6
ENCODING 454
SWIDTH 895 0
DWIDTH 14 0
BBX 15 15 1 0
BITMAP
0644
066C
0668
0678
0630
0430
0C00
3DFC
7DFC
EC30
CCC0
D9C2
D9C6
FFFE
EEF8
ENDCHAR
STARTCHAR uni01C7
ENCODING 455
SWIDTH 1276 0
DWIDTH 20 0
BBX 22 17 -1 -2
BITMAP
01E1F8
07F3FC
063718
0C3618
0C3638
0C3638
0C0630
0C0030
1C00F0
1C03F0
1C0730
180660
7E0C60
FFFC60
71FCC0
000F80
000700
ENDCHAR
STARTCHAR uni01C8
ENCODING 456
SWIDTH 927 0
DWIDTH 15 0
BBX 18 23 -1 -8
BITMAP
01E000
07F000
063800
0E1E00
0C1F00
0C3600
0C0000
0C0600
1C0600
1C0600
1C0600
180600
7E0EC0
FFFF80
71FE00
000C00
001C00
002C00
006800
00D800
00D800
00F000
006000
ENDCHAR
STARTCHAR uni01C9
ENCODING 457
SWIDTH 610 0
DWIDTH 10 0
BBX 11 24 1 -8
BITMAP
1800
3C00
2C00
6C00
6F00
4B80
CB00
D800
D300
F300
E300
E300
C760
CEC0
FF80
7700
0E00
1E00
1600
2400
6C00
6C00
7800
3000
ENDCHAR
STARTCHAR uni01CA
ENCODING 458
SWIDTH 1497 0
DWIDTH 24 0
BBX 24 17 0 -2
BITMAP
38707F
7DF9FF
CD1986
8F1B06
0E1B06
0E1986
0C3806
1C380E
1C303E
18306C
1830CC
18318C
18338C
183F18
181FB8
0001F0
0000E0
ENDCHAR
STARTCHAR uni01CB
ENCODING 459
SWIDTH 1138 0
DWIDTH 18 0
BBX 20 23 0 -8
BITMAP
387000
7CF800
4D1800
CF18C0
8E19C0
0E18C0
0C3800
1C3880
1C3180
183180
183180
183190
1833B0
183FE0
181DC0
000300
000700
000F00
001B00
001200
001600
001E00
001C00
ENDCHAR
STARTCHAR uni01CC
ENCODING 460
SWIDTH 750 0
DWIDTH 12 0
BBX 13 20 1 -8
BITMAP
0060
00E0
00E0
0000
4CC0
DCC0
FCC0
ECC0
ECC8
CDF8
CFF0
CEC0
0180
0380
0780
0D80
0900
1B00
1E00
0E00
ENDCHAR
STARTCHAR Gcaron
ENCODING 486
SWIDTH 811 0
DWIDTH 13 0
BBX 14 28 1 -8
BITMAP
0440
06C0
06C0
0380
0300
0F80
1FC0
38C0
7060
60E0
E0C0
E000
C000
C000
C3E0
E1E0
6060
706C
3FF8
1FF0
00C0
01C0
03C0
06C0
0580
0D80
0F00
0700
ENDCHAR
STARTCHAR gcaron
ENCODING 487
SWIDTH 479 0
DWIDTH 8 0
BBX 9 23 0 -8
BITMAP
1100
1B00
1B00
1A00
0E00
0C00
0000
1800
3E00
7600
6600
6C80
6D80
7F00
7E00
1C00
3C00
6800
5800
D800
D800
F000
6000
ENDCHAR
STARTCHAR uni01EA
ENCODING 490
SWIDTH 816 0
DWIDTH 13 0
BBX 12 19 1 -4
BITMAP
0F80
1FC0
38E0
7060
6070
E070
E070
C070
C060
C060
E0E0
61C0
7F80
3F00
0400
0C00
0C00
0F00
0200
ENDCHAR
STARTCHAR uni01EB
ENCODING 491
SWIDTH 451 0
DWIDTH 7 0
BBX 8 13 1 -5
BITMAP
78
F8
DC
DF
CF
CC
F8
70
20
60
60
78
10
ENDCHAR
STARTCHAR Aringacute
ENCODING 506
SWIDTH 786 0
DWIDTH 13 0
BBX 15 23 1 0
BITMAP
0004
000E
00DC
01F0
0120
0120
01E0
00C0
03F0
0FF0
1C00
3860
70E0
60C0
E0C0
C0C0
C1C0
C1C0
C1C0
C3C4
E3CC
7EF8
3CF0
ENDCHAR
STARTCHAR aringacute
ENCODING 507
SWIDTH 470 0
DWIDTH 8 0
BBX 10 16 1 0
BITMAP
0080
01C0
1D80
3C00
2400
3C00
1800
0000
3000
7C00
EC00
CC00
D880
D980
FF00
EE00
ENDCHAR
STARTCHAR AEacute
ENCODING 508
SWIDTH 1015 0
DWIDTH 16 0
BBX 17 19 1 0
BITMAP
000400
001E00
003800
002000
073F00
0FFF00
1C6000
386000
70E000
60E000
E0C000
E0FE00
C0FE00
C1C000
C1C000
C3C000
E3E180
7E7F80
3C3E00
ENDCHAR
STARTCHAR aeacute
ENCODING 509
SWIDTH 653 0
DWIDTH 10 0
BBX 12 14 1 0
BITMAP
0180
0180
0300
0200
0600
0000
3B80
7F80
CC80
CD80
CF30
DC60
FFE0
E780
ENDCHAR
STARTCHAR Oslashacute
ENCODING 510
SWIDTH 816 0
DWIDTH 13 0
BBX 12 21 1 -2
BITMAP
0080
03C0
0700
0580
0F80
1FC0
3BE0
7360
6270
E270
E670
C670
C670
C460
EC60
ECE0
7DC0
7F80
1E00
1800
1800
ENDCHAR
STARTCHAR oslashacute
ENCODING 511
SWIDTH 459 0
DWIDTH 7 0
BBX 8 16 1 -2
BITMAP
18
38
30
20
50
10
78
FC
DC
EF
AF
EC
F8
70
20
40
ENDCHAR
STARTCHAR uni0200
ENCODING 512
SWIDTH 786 0
DWIDTH 13 0
BBX 14 19 1 0
BITMAP
06C0
06C0
0360
0160
03F0
0FF0
1C00
3860
70E0
60C0
E0C0
C0C0
C1C0
C1C0
C1C0
C3C4
E3CC
7EF8
3CF0
ENDCHAR
STARTCHAR uni0201
ENCODING 513
SWIDTH 470 0
DWIDTH 8 0
BBX 9 14 1 0
BITMAP
D800
D800
6800
6C00
2400
0000
3000
7C00
EC00
CC00
D880
D980
FF00
EE00
ENDCHAR
STARTCHAR uni0202
ENCODING 514
SWIDTH 786 0
DWIDTH 13 0
BBX 14 19 1 0
BITMAP
01E0
03F0
0330
0000
03F0
0FF0
1C00
3860
70E0
60C0
E0C0
C0C0
C1C0
C1C0
C1C0
C3C4
E3CC
7EF8
3CF0
ENDCHAR
STARTCHAR uni0203
ENCODING 515
SWIDTH 470 0
DWIDTH 8 0
BBX 9 13 1 0
BITMAP
1C00
7E00
6600
4200
0000
3000
7C00
EC00
CC00
D880
D980
FF00
EE00
ENDCHAR
STARTCHAR uni0204
ENCODING 516
SWIDTH 686 0
DWIDTH 11 0
BBX 13 19 0 0
BITMAP
0D80
0D80
06C0
06C0
07C0
1FE0
3860
3860
3060
3820
1F00
1F00
7000
6000
6000
E000
7018
3FF8
1FE0
ENDCHAR
STARTCHAR uni0205
ENCODING 517
SWIDTH 393 0
DWIDTH 6 0
BBX 8 14 0 0
BITMAP
58
FC
6C
24
24
00
3C
7C
6C
6C
79
63
7F
3C
ENDCHAR
STARTCHAR uni0206
ENCODING 518
SWIDTH 686 0
DWIDTH 11 0
BBX 13 19 0 0
BITMAP
03C0
07E0
0660
0000
07C0
1FE0
3860
3860
3060
3820
1F00
1F00
7000
6000
6000
E000
7018
3FF8
1FE0
ENDCHAR
STARTCHAR uni0207
ENCODING 519
SWIDTH 393 0
DWIDTH 6 0
BBX 7 13 1 0
BITMAP
38
7C
C6
C6
00
78
F8
D8
D8
F2
C6
FE
78
ENDCHAR
STARTCHAR uni0208
ENCODING 520
SWIDTH 495 0
DWIDTH 8 0
BBX 9 19 0 0
BITMAP
3600
3600
1A00
1B00
3F80
3F80
0C00
0C00
0C00
1C00
1C00
1800
1800
1800
1800
1800
1800
FE00
FE00
ENDCHAR
STARTCHAR uni0209
ENCODING 521
SWIDTH 246 0
DWIDTH 4 0
BBX 7 14 -1 0
BITMAP
D8
D8
D8
6C
24
00
10
30
30
30
32
36
3C
38
ENDCHAR
STARTCHAR uni020A
ENCODING 522
SWIDTH 495 0
DWIDTH 8 0
BBX 9 19 0 0
BITMAP
0F00
1F80
3180
0000
3F80
3F80
0C00
0C00
0C00
1C00
1C00
1800
1800
1800
1800
1800
1800
FE00
FE00
ENDCHAR
STARTCHAR uni020B
ENCODING 523
SWIDTH 246 0
DWIDTH 4 0
BBX 6 13 0 0
BITMAP
78
FC
CC
84
00
20
60
60
60
64
6C
78
70
ENDCHAR
STARTCHAR uni020C
ENCODING 524
SWIDTH 816 0
DWIDTH 13 0
BBX 12 19 1 0
BITMAP
0900
0F00
0D80
0480
0F80
1FC0
38E0
7060
6070
E070
E070
C070
C070
C060
E060
E0E0
71C0
3F80
1E00
ENDCHAR
STARTCHAR uni020D
ENCODING 525
SWIDTH 451 0
DWIDTH 7 0
BBX 9 14 0 0
BITMAP
D800
F800
6C00
2C00
2400
0000
3C00
7C00
6E00
6F80
6780
6600
7C00
3800
ENDCHAR
STARTCHAR uni020E
ENCODING 526
SWIDTH 816 0
DWIDTH 13 0
BBX 12 19 1 0
BITMAP
0380
0FC0
0CC0
0000
0F80
1FC0
38E0
7060
6070
E070
E070
C070
C070
C060
E060
E0E0
71C0
3F80
1E00
ENDCHAR
STARTCHAR uni020F
ENCODING 527
SWIDTH 451 0
DWIDTH 7 0
BBX 8 13 1 0
BITMAP
38
7C
C6
C6
00
78
F8
DC
DF
CF
CC
F8
70
ENDCHAR
STARTCHAR uni0210
ENCODING 528
SWIDTH 880 0
DWIDTH 14 0
BBX 15 19 1 0
BITMAP
0D80
0D80
0480
0680
07C0
1FE0
3070
6470
6630
C670
CE60
CCE0
DFC0
DF80
CDC0
CCC2
DCE6
787C
3838
ENDCHAR
STARTCHAR uni0211
ENCODING 529
SWIDTH 455 0
DWIDTH 7 0
BBX 9 14 1 0
BITMAP
D800
D800
D800
6C00
2400
0000
4C00
DC00
DC00
ED80
EF00
C600
C000
C000
ENDCHAR
STARTCHAR uni0212
ENCODING 530
SWIDTH 880 0
DWIDTH 14 0
BBX 15 19 1 0
BITMAP
0380
07E0
0C60
0000
07C0
1FE0
3070
6470
6630
C670
CE60
CCE0
DFC0
DF80
CDC0
CCC2
DCE6
787C
3838
ENDCHAR
STARTCHAR uni0213
ENCODING 531
SWIDTH 455 0
DWIDTH 7 0
BBX 9 13 1 0
BITMAP
3C00
7E00
6600
4200
0000
4C00
DC00
DC00
ED80
EF00
C600
C000
C000
ENDCHAR
STARTCHAR uni0214
ENCODING 532
SWIDTH 890 0
DWIDTH 14 0
BBX 16 19 0 0
BITMAP
06C0
06C0
0360
0160
3C18
7C18
CC18
8C18
0C18
0C38
1C38
1C38
1830
1870
1870
18B1
19B3
1F3E
0E1C
ENDCHAR
STARTCHAR uni0215
ENCODING 533
SWIDTH 462 0
DWIDTH 7 0
BBX 8 14 1 0
BITMAP
D8
D8
D8
6C
24
00
4C
CC
CC
D8
D9
F9
FF
CE
ENDCHAR
STARTCHAR uni0216
ENCODING 534
SWIDTH 890 0
DWIDTH 14 0
BBX 16 19 0 0
BITMAP
01E0
03F0
0330
0000
3C18
7C18
CC18
8C18
0C18
0C38
1C38
1C38
1830
1870
1870
18B1
19B3
1F3E
0E1C
ENDCHAR
STARTCHAR uni0217
ENCODING 535
SWIDTH 462 0
DWIDTH 7 0
BBX 8 13 1 0
BITMAP
3C
7E
66
42
00
4C
CC
CC
D8
D9
F9
FF
CE
ENDCHAR
STARTCHAR uni0218
ENCODING 536
SWIDTH 693 0
DWIDTH 11 0
BBX 10 20 1 -5
BITMAP
1F00
3F80
60C0
60C0
60C0
7080
7800
3F00
0F80
8380
C1C0
C180
C180
FF00
3E00
0000
1800
1800
1800
1000
ENDCHAR
STARTCHAR uni0219
ENCODING 537
SWIDTH 427 0
DWIDTH 7 0
BBX 9 13 0 -5
BITMAP
1800
1800
3800
3800
6C80
CD80
BF00
3E00
0000
1000
1800
1000
3000
ENDCHAR
STARTCHAR uni021A
ENCODING 538
SWIDTH 697 0
DWIDTH 11 0
BBX 13 20 1 -5
BITMAP
1FF8
7FF8
C700
8700
C600
C600
0600
0600
0E00
0E00
0C00
0C00
0C00
0C00
0C00
0000
0C00
0C00
0800
0800
ENDCHAR
STARTCHAR uni021B
ENCODING 539
SWIDTH 393 0
DWIDTH 6 0
BBX 8 20 0 -5
BITMAP
0C
1E
1E
36
36
34
38
FE
FE
60
60
61
33
3F
1C
00
18
18
10
10
ENDCHAR
STARTCHAR uni022A
ENCODING 554
SWIDTH 816 0
DWIDTH 13 0
BBX 12 21 1 0
BITMAP
07C0
07C0
0000
04C0
0FC0
0CC0
0F80
1FC0
38E0
7060
6070
E070
E070
C070
C070
C060
E060
E0E0
71C0
3F80
1E00
ENDCHAR
STARTCHAR uni022B
ENCODING 555
SWIDTH 451 0
DWIDTH 7 0
BBX 8 15 1 0
BITMAP
7C
7C
00
6C
6C
6C
00
78
F8
DC
DF
CF
CC
F8
70
ENDCHAR
STARTCHAR uni022C
ENCODING 556
SWIDTH 816 0
DWIDTH 13 0
BBX 12 21 1 0
BITMAP
07C0
07C0
0400
0E60
0BC0
09C0
0F80
1FC0
38E0
7060
6070
E070
E070
C070
C070
C060
E060
E0E0
71C0
3F80
1E00
ENDCHAR
STARTCHAR uni022D
ENCODING 557
SWIDTH 451 0
DWIDTH 7 0
BBX 8 15 1 0
BITMAP
7C
7C
20
76
FE
8C
00
78
F8
DC
DF
CF
CC
F8
70
ENDCHAR
STARTCHAR uni0230
ENCODING 560
SWIDTH 816 0
DWIDTH 13 0
BBX 12 21 1 0
BITMAP
07C0
07C0
0000
0300
0300
0300
0F80
1FC0
38E0
7060
6070
E070
E070
C070
C070
C060
E060
E0E0
71C0
3F80
1E00
ENDCHAR
STARTCHAR uni0231
ENCODING 561
SWIDTH 451 0
DWIDTH 7 0
BBX 8 15 1 0
BITMAP
7C
7C
00
30
38
30
00
78
F8
DC
DF
CF
CC
F8
70
ENDCHAR
STARTCHAR uni0232
ENCODING 562
SWIDTH 851 0
DWIDTH 14 0
BBX 15 22 0 -5
BITMAP
03E0
03E0
3C18
7C18
CC18
8C18
0C18
0C38
1C38
1878
1870
18F0
1FB6
0F3E
00F8
03F0
0730
0E60
0C60
0CE0
0FC0
0780
ENDCHAR
STARTCHAR uni0233
ENCODING 563
SWIDTH 479 0
DWIDTH 8 0
BBX 9 19 0 -8
BITMAP
3E00
3E00
0000
2600
6600
6600
6E00
6C80
7D80
7F00
6E00
1C00
3C00
6800
5800
D800
D000
F000
E000
ENDCHAR
STARTCHAR uni0237
ENCODING 567
SWIDTH 254 0
DWIDTH 4 0
BBX 10 16 -4 -8
BITMAP
0600
0600
0600
0600
0640
07C0
0780
0600
0C00
1C00
3C00
6C00
4800
D800
F000
7000
ENDCHAR
STARTCHAR uni0259
ENCODING 601
SWIDTH 458 0
DWIDTH 7 0
BBX 6 8 1 0
BITMAP
F8
F8
0C
FC
FC
CC
F8
70
ENDCHAR
STARTCHAR uni02BC
ENCODING 700
SWIDTH 600 0
DWIDTH 10 0
BBX 2 4 4 9
BITMAP
C0
C0
C0
C0
ENDCHAR
STARTCHAR circumflex
ENCODING 710
SWIDTH 600 0
DWIDTH 10 0
BBX 6 6 2 9
BITMAP
10
38
38
68
C8
CC
ENDCHAR
STARTCHAR caron
ENCODING 711
SWIDTH 600 0
DWIDTH 10 0
BBX 5 6 3 9
BITMAP
88
D8
D8
F0
70
60
ENDCHAR
STARTCHAR uni02C9
ENCODING 713
SWIDTH 600 0
DWIDTH 10 0
BBX 5 2 2 9
BITMAP
F8
F8
ENDCHAR
STARTCHAR breve
ENCODING 728
SWIDTH 600 0
DWIDTH 10 0
BBX 6 4 2 9
BITMAP
84
CC
FC
78
ENDCHAR
STARTCHAR dotaccent
ENCODING 729
SWIDTH 600 0
DWIDTH 10 0
BBX 2 3 4 9
BITMAP
C0
C0
C0
ENDCHAR
STARTCHAR ring
ENCODING 730
SWIDTH 600 0
DWIDTH 10 0
BBX 4 5 3 9
BITMAP
70
F0
90
F0
60
ENDCHAR
STARTCHAR ogonek
ENCODING 731
SWIDTH 600 0
DWIDTH 10 0
BBX 4 6 2 -4
BITMAP
20
60
C0
C0
F0
70
ENDCHAR
STARTCHAR tilde
ENCODING 732
SWIDTH 600 0
DWIDTH 10 0
BBX 7 4 2 9
BITMAP
40
E6
BC
98
ENDCHAR
STARTCHAR hungarumlaut
ENCODING 733
SWIDTH 600 0
DWIDTH 10 0
BBX 6 5 3 9
BITMAP
6C
6C
D8
D8
90
ENDCHAR
STARTCHAR gravecomb
ENCODING 768
SWIDTH 0 0
DWIDTH 0 0
BBX 4 5 -8 9
BITMAP
C0
E0
60
20
10
ENDCHAR
STARTCHAR acutecomb
ENCODING 769
SWIDTH 0 0
DWIDTH 0 0
BBX 3 5 -5 9
BITMAP
60
60
C0
C0
80
ENDCHAR
STARTCHAR uni0302
ENCODING 770
SWIDTH 0 0
DWIDTH 0 0
BBX 5 6 -7 9
BITMAP
20
30
70
D8
D8
98
ENDCHAR
STARTCHAR tildecomb
ENCODING 771
SWIDTH 0 0
DWIDTH 0 0
BBX 7 4 -8 9
BITMAP
20
76
FE
8C
ENDCHAR
STARTCHAR uni0304
ENCODING 772
SWIDTH 0 0
DWIDTH 0 0
BBX 5 2 -7 9
BITMAP
F8
F8
ENDCHAR
STARTCHAR uni0306
ENCODING 774
SWIDTH 0 0
DWIDTH 0 0
BBX 7 4 -8 9
BITMAP
C6
C6
7C
38
ENDCHAR
STARTCHAR uni0307
ENCODING 775
SWIDTH 0 0
DWIDTH 0 0
BBX 3 3 -6 9
BITMAP
C0
E0
C0
ENDCHAR
STARTCHAR uni0308
ENCODING 776
SWIDTH 0 0
DWIDTH 0 0
BBX 5 3 -7 9
BITMAP
D8
D8
D8
ENDCHAR
STARTCHAR hookabovecomb
ENCODING 777
SWIDTH 0 0
DWIDTH 0 0
BBX 4 5 -6 9
BITMAP
E0
F0
30
60
E0
ENDCHAR
STARTCHAR uni030A
ENCODING 778
SWIDTH 0 0
DWIDTH 0 0
BBX 5 5 -7 9
BITMAP
70
78
D8
F0
70
ENDCHAR
STARTCHAR uni030B
ENCODING 779
SWIDTH 0 0
DWIDTH 0 0
BBX 6 5 -7 9
BITMAP
6C
6C
6C
D8
90
ENDCHAR
STARTCHAR uni030C
ENCODING 780
SWIDTH 0 0
DWIDTH 0 0
BBX 6 6 -7 9
BITMAP
48
CC
D8
50
70
60
ENDCHAR
STARTCHAR uni030F
ENCODING 783
SWIDTH 0 0
DWIDTH 0 0
BBX 6 5 -9 9
BITMAP
58
F8
6C
2C
24
ENDCHAR
STARTCHAR uni0311
ENCODING 785
SWIDTH 0 0
DWIDTH 0 0
BBX 7 4 -8 9
BITMAP
38
7C
C6
C6
ENDCHAR
STARTCHAR uni0312
ENCODING 786
SWIDTH 0 0
DWIDTH 0 0
BBX 2 4 -5 9
BITMAP
C0
C0
80
80
ENDCHAR
STARTCHAR uni031B
ENCODING 795
SWIDTH 0 0
DWIDTH 0 0
BBX 3 4 -5 6
BITMAP
60
60
C0
C0
ENDCHAR
STARTCHAR dotbelowcomb
ENCODING 803
SWIDTH 0 0
DWIDTH 0 0
BBX 3 3 -8 -4
BITMAP
60
E0
60
ENDCHAR
STARTCHAR uni0324
ENCODING 804
SWIDTH 0 0
DWIDTH 0 0
BBX 6 3 -9 -4
BITMAP
C8
DC
C8
ENDCHAR
STARTCHAR uni0326
ENCODING 806
SWIDTH 0 0
DWIDTH 0 0
BBX 2 4 -7 -5
BITMAP
C0
C0
C0
80
ENDCHAR
STARTCHAR uni0327
ENCODING 807
SWIDTH 0 0
DWIDTH 0 0
BBX 5 5 -9 -4
BITMAP
70
78
18
F8
F0
ENDCHAR
STARTCHAR uni0328
ENCODING 808
SWIDTH 0 0
DWIDTH 0 0
BBX 4 6 -7 -4
BITMAP
40
C0
80
80
F0
F0
ENDCHAR
STARTCHAR uni032E
ENCODING 814
SWIDTH 0 0
DWIDTH 0 0
BBX 6 4 -9 -5
BITMAP
84
CC
FC
70
ENDCHAR
STARTCHAR uni0331
ENCODING 817
SWIDTH 0 0
DWIDTH 0 0
BBX 6 2 -9 -3
BITMAP
7C
F8
ENDCHAR
STARTCHAR uni0394
ENCODING 916
SWIDTH 700 0
DWIDTH 11 0
BBX 9 14 1 0
BITMAP
0600
0E00
0E00
0A00
1A00
1B00
3300
3300
6300
6300
6180
C180
FF80
FF80
ENDCHAR
STARTCHAR uni03A9
ENCODING 937
SWIDTH 816 0
DWIDTH 13 0
BBX 13 14 0 0
BITMAP
07C0
0FE0
1C70
3830
3038
7038
6038
6038
6030
6030
7070
30E0
F9F8
F9F8
ENDCHAR
STARTCHAR uni03BC
ENCODING 956
SWIDTH 462 0
DWIDTH 7 0
BBX 9 12 0 -4
BITMAP
2600
6600
6600
6C00
6C80
7C80
7F80
7700
C000
C000
C000
C000
ENDCHAR
STARTCHAR pi
ENCODING 960
SWIDTH 496 0
DWIDTH 8 0
BBX 10 8 0 0
BITMAP
FF80
7F00
6600
6600
6640
66C0
6780
6700
ENDCHAR
STARTCHAR uni0400
ENCODING 1024
SWIDTH 686 0
DWIDTH 11 0
BBX 13 19 0 0
BITMAP
1800
1C00
0E00
0300
07C0
1FE0
3860
3860
3060
3820
1F00
1F00
7000
6000
6000
E000
7018
3FF8
1FE0
ENDCHAR
STARTCHAR uni0401
ENCODING 1025
SWIDTH 686 0
DWIDTH 11 0
BBX 13 18 0 0
BITMAP
0640
06E0
06C0
07C0
1FE0
3860
3860
3060
3820
1F00
1F00
7000
6000
6000
E000
7018
3FF8
1FE0
ENDCHAR
STARTCHAR uni0402
ENCODING 1026
SWIDTH 974 0
DWIDTH 16 0
BBX 16 23 1 -8
BITMAP
1FF8
7FF8
C700
C700
8600
C600
C600
0678
0FF8
0F1C
0E1C
0C19
0C1F
0C1E
0C1C
0038
0078
00F0
01B0
0130
0360
03E0
01C0
ENDCHAR
STARTCHAR uni0403
ENCODING 1027
SWIDTH 635 0
DWIDTH 10 0
BBX 13 19 1 0
BITMAP
00C0
01C0
0380
0600
3FF8
7FF0
CC00
CC00
CC00
DC00
1C00
1800
1800
1800
1800
1800
3800
3800
3800
ENDCHAR
STARTCHAR uni0404
ENCODING 1028
SWIDTH 687 0
DWIDTH 11 0
BBX 12 15 1 0
BITMAP
0F80
1FC0
38C0
70C0
60C0
E0C0
E000
FF00
FF00
C000
E000
6000
7030
3FF0
0FC0
ENDCHAR
STARTCHAR uni0405
ENCODING 1029
SWIDTH 693 0
DWIDTH 11 0
BBX 10 15 1 0
BITMAP
1F00
3F80
60C0
60C0
60C0
7080
7800
3F00
0F80
8380
C1C0
C180
C180
FF00
3E00
ENDCHAR
STARTCHAR uni0406
ENCODING 1030
SWIDTH 495 0
DWIDTH 8 0
BBX 9 15 0 0
BITMAP
3F80
3F80
0C00
0C00
0C00
1C00
1C00
1800
1800
1800
1800
1800
1800
FE00
FE00
ENDCHAR
STARTCHAR uni0407
ENCODING 1031
SWIDTH 495 0
DWIDTH 8 0
BBX 9 18 0 0
BITMAP
1900
1B80
1B00
3F80
3F80
0C00
0C00
0C00
1C00
1C00
1800
1800
1800
1800
1800
1800
FE00
FE00
ENDCHAR
STARTCHAR uni0408
ENCODING 1032
SWIDTH 743 0
DWIDTH 12 0
BBX 11 16 1 -1
BITMAP
1FE0
7FE0
E0C0
C0C0
C0C0
C0C0
00C0
03C0
0F80
1D80
3180
3180
6300
6700
3E00
3C00
ENDCHAR
STARTCHAR uni0409
ENCODING 1033
SWIDTH 1158 0
DWIDTH 19 0
BBX 18 15 0 0
BITMAP
006000
006000
00E000
00E000
00E000
01E000
01EF80
01FFC0
0360C0
0360C0
0360C0
C660C0
CE31C0
7C3F80
781F00
ENDCHAR
STARTCHAR uni040A
ENCODING 1034
SWIDTH 1182 0
DWIDTH 19 0
BBX 19 15 0 0
BITMAP
381800
7C3800
CC3000
8C3000
8C3000
0C3000
0C3F80
0C7FC0
3FE0E0
3FE0E0
1860E0
1860C0
1871C0
383F80
301F00
ENDCHAR
STARTCHAR uni040B
ENCODING 1035
SWIDTH 979 0
DWIDTH 16 0
BBX 17 15 1 0
BITMAP
1FF800
7FF800
C70000
C70000
860000
C60000
C60000
067800
0FF800
0F1C00
0E1C00
0C1880
0C1980
0C1F00
0C1E00
ENDCHAR
STARTCHAR uni040C
ENCODING 1036
SWIDTH 937 0
DWIDTH 15 0
BBX 17 19 0 0
BITMAP
000400
000E00
003800
003000
1F8600
3F8600
738600
638E00
630C00
631800
233800
07E000
07C000
036000
077000
463080
C63980
7E1F00
3C0E00
ENDCHAR
STARTCHAR uni040D
ENCODING 1037
SWIDTH 890 0
DWIDTH 14 0
BBX 16 19 0 0
BITMAP
0C00
0E00
0700
0180
3C18
7C18
CC18
8C18
0C18
0C38
1C38
1C38
1830
1870
1870
18B1
19B3
1F3E
0E1C
ENDCHAR
STARTCHAR uni040E
ENCODING 1038
SWIDTH 824 0
DWIDTH 13 0
BBX 14 23 1 -4
BITMAP
0020
0660
07C0
0380
7830
F830
9830
1830
1870
3870
38F0
39E0
1F60
1E6C
007C
01F0
07E0
0E40
18C0
18C0
1980
1F80
0E00
ENDCHAR
STARTCHAR uni040F
ENCODING 1039
SWIDTH 890 0
DWIDTH 14 0
BBX 16 18 0 -3
BITMAP
3C18
7C18
CC18
8C18
0C18
0C38
1C38
1C38
1830
1870
1870
18B1
19B3
1F3E
0E1C
0C00
0C00
0C00
ENDCHAR
STARTCHAR uni0410
ENCODING 1040
SWIDTH 786 0
DWIDTH 13 0
BBX 14 15 1 0
BITMAP
03F0
0FF0
1C00
3860
70E0
60C0
E0C0
C0C0
C1C0
C1C0
C1C0
C3C4
E3CC
7EF8
3CF0
ENDCHAR
STARTCHAR uni0411
ENCODING 1041
SWIDTH 917 0
DWIDTH 15 0
BBX 13 16 1 -1
BITMAP
1FF8
7FF0
C600
CE00
8E00
CC00
CC00
0FF0
3FF8
3C18
1C18
1C18
1818
1878
19F0
1B80
ENDCHAR
STARTCHAR uni0412
ENCODING 1042
SWIDTH 827 0
DWIDTH 13 0
BBX 14 16 0 -1
BITMAP
0FE0
3FF8
F01C
C01C
1C1C
181C
1838
19F0
19E0
3870
3030
3030
3070
3FE0
3F80
3000
ENDCHAR
STARTCHAR uni0413
ENCODING 1043
SWIDTH 635 0
DWIDTH 10 0
BBX 13 15 1 0
BITMAP
3FF8
7FF0
CC00
CC00
CC00
DC00
1C00
1800
1800
1800
1800
1800
3800
3800
3800
ENDCHAR
STARTCHAR uni0414
ENCODING 1044
SWIDTH 964 0
DWIDTH 15 0
BBX 15 15 0 0
BITMAP
03F0
1FF8
181C
100E
030E
0606
0606
0606
0E06
0C0E
0C0E
7C0C
FC1C
FBF8
71F0
ENDCHAR
STARTCHAR uni0415
ENCODING 1045
SWIDTH 686 0
DWIDTH 11 0
BBX 13 15 0 0
BITMAP
07C0
1FE0
3860
3860
3060
3820
1F00
1F00
7000
6000
6000
E000
7018
3FF8
1FE0
ENDCHAR
STARTCHAR uni0416
ENCODING 1046
SWIDTH 1234 0
DWIDTH 20 0
BBX 21 15 0 0
BITMAP
1E1870
3E18F8
2318D8
031980
033980
01B300
01B700
00FE00
01FE00
033600
073300
067308
CC6388
7C61F0
7860E0
ENDCHAR
STARTCHAR uni0417
ENCODING 1047
SWIDTH 725 0
DWIDTH 12 0
BBX 10 15 1 0
BITMAP
1F00
3F80
7180
6180
6180
2180
0300
1F80
1DC0
00C0
C0C0
C1C0
C380
7F80
3E00
ENDCHAR
STARTCHAR uni0418
ENCODING 1048
SWIDTH 890 0
DWIDTH 14 0
BBX 16 15 0 0
BITMAP
3C18
7C18
CC18
8C18
0C18
0C38
1C38
1C38
1830
1870
1870
18B1
19B3
1F3E
0E1C
ENDCHAR
STARTCHAR uni0419
ENCODING 1049
SWIDTH 890 0
DWIDTH 14 0
BBX 16 19 0 0
BITMAP
0010
0330
03F0
01E0
3C18
7C18
CC18
8C18
0C18
0C38
1C38
1C38
1830
1870
1870
18B1
19B3
1F3E
0E1C
ENDCHAR
STARTCHAR uni041A
ENCODING 1050
SWIDTH 937 0
DWIDTH 15 0
BBX 17 15 0 0
BITMAP
1F8600
3F8600
738600
638E00
630C00
631800
233800
07E000
07C000
036000
077000
463080
C63980
7E1F00
3C0E00
ENDCHAR
STARTCHAR uni041B
ENCODING 1051
SWIDTH 861 0
DWIDTH 14 0
BBX 16 15 0 0
BITMAP
0060
0060
00E0
00E0
00E0
01E0
01E0
01E0
0360
0360
0360
C671
CE33
7C3E
781C
ENDCHAR
STARTCHAR uni041C
ENCODING 1052
SWIDTH 1133 0
DWIDTH 18 0
BBX 20 15 0 0
BITMAP
01C300
01C700
01C700
03CF00
03CF00
03CF00
03DB00
03DB00
06DB00
06F300
06F300
C6F310
CCE330
FC63E0
7861C0
ENDCHAR
STARTCHAR uni041D
ENCODING 1053
SWIDTH 873 0
DWIDTH 14 0
BBX 16 15 0 0
BITMAP
380E
7C1E
CC1A
8C32
0C36
0C66
0C7C
3FF8
3FE0
1860
1860
1861
1873
383E
301C
ENDCHAR
STARTCHAR uni041E
ENCODING 1054
SWIDTH 816 0
DWIDTH 13 0
BBX 12 15 1 0
BITMAP
0F80
1FC0
38E0
7060
6070
E070
E070
C070
C070
C060
E060
E0E0
71C0
3F80
1E00
ENDCHAR
STARTCHAR uni041F
ENCODING 1055
SWIDTH 892 0
DWIDTH 14 0
BBX 15 15 1 0
BITMAP
1FFE
7FFE
CC30
CC30
CC30
CC30
1C30
1C70
1860
1860
1860
1862
1862
187E
1838
ENDCHAR
STARTCHAR uni0420
ENCODING 1056
SWIDTH 805 0
DWIDTH 13 0
BBX 12 16 1 -1
BITMAP
07C0
1FE0
3870
7030
6630
C630
C670
CE60
DFC0
DF80
CC00
CC00
CC00
DC00
7800
3800
ENDCHAR
STARTCHAR uni0421
ENCODING 1057
SWIDTH 686 0
DWIDTH 11 0
BBX 12 15 1 0
BITMAP
0F80
1FC0
38C0
70C0
60C0
E0C0
E000
C000
C000
C000
E000
6000
7030
3FF0
1FC0
ENDCHAR
STARTCHAR uni0422
ENCODING 1058
SWIDTH 697 0
DWIDTH 11 0
BBX 13 15 1 0
BITMAP
1FF8
7FF8
C700
8700
C600
C600
0600
0600
0E00
0E00
0C00
0C00
0C00
0C00
0C00
ENDCHAR
STARTCHAR uni0423
ENCODING 1059
SWIDTH 824 0
DWIDTH 13 0
BBX 14 19 1 -4
BITMAP
7830
F830
9830
1830
1870
3870
38F0
39E0
1F60
1E6C
007C
01F0
07E0
0E40
18C0
18C0
1980
1F80
0E00
ENDCHAR
STARTCHAR uni0424
ENCODING 1060
SWIDTH 977 0
DWIDTH 16 0
BBX 14 21 1 -4
BITMAP
2000
3FC0
3FC0
0180
1DB8
3FFC
73CC
638C
E38C
C30C
C30C
C70C
C71C
CF18
FBF0
76E0
0600
4600
6600
7C00
3800
ENDCHAR
STARTCHAR uni0425
ENCODING 1061
SWIDTH 712 0
DWIDTH 11 0
BBX 13 15 0 0
BITMAP
3830
7C70
CE60
86C0
07C0
0780
0700
0700
0F00
1F00
3B80
3188
7188
E1F8
C0F0
ENDCHAR
STARTCHAR uni0426
ENCODING 1062
SWIDTH 890 0
DWIDTH 14 0
BBX 16 21 0 -6
BITMAP
3C18
7C18
CC18
8C18
0C18
0C38
1C38
1C38
1830
1870
1870
18F0
18B1
1F3F
0E1E
003C
0068
00D8
00D8
00F0
0060
ENDCHAR
STARTCHAR uni0427
ENCODING 1063
SWIDTH 773 0
DWIDTH 12 0
BBX 10 15 2 0
BITMAP
60C0
E0C0
E0C0
E1C0
E1C0
C180
C180
C380
E780
FD80
7980
0180
0380
0380
0300
ENDCHAR
STARTCHAR uni0428
ENCODING 1064
SWIDTH 1272 0
DWIDTH 20 0
BBX 22 15 0 0
BITMAP
3C1860
7C1860
CC1860
8C3860
0C3860
0C3060
1C30E0
1C30E0
1870E0
1871C0
18E1C0
18A3C4
19B6EC
1F3CFC
0E3870
ENDCHAR
STARTCHAR uni0429
ENCODING 1065
SWIDTH 1272 0
DWIDTH 20 0
BBX 22 21 0 -6
BITMAP
3C1860
7C1860
CC1860
8C3860
0C3860
0C3060
1C30E0
1C30E0
1870E0
1871C0
18E1C0
18A3C0
19F6F4
1F3CFC
0E3838
0000F0
0001A0
000360
000360
0003C0
000180
ENDCHAR
STARTCHAR uni042A
ENCODING 1066
SWIDTH 863 0
DWIDTH 14 0
BBX 12 14 2 0
BITMAP
FE00
FE00
1C00
1800
1F80
3FE0
7060
7070
3070
3060
3060
38E0
1FC0
0F00
ENDCHAR
STARTCHAR uni042B
ENCODING 1067
SWIDTH 1078 0
DWIDTH 17 0
BBX 17 15 0 0
BITMAP
180180
180380
180380
180300
380300
378300
3FE300
F0E300
706700
306700
306600
306600
30C600
1FC600
0F0600
ENDCHAR
STARTCHAR uni042C
ENCODING 1068
SWIDTH 721 0
DWIDTH 12 0
BBX 11 15 0 0
BITMAP
1800
1800
1800
1800
3800
3780
3FE0
F0E0
7060
3060
3060
3060
30C0
1FC0
0F00
ENDCHAR
STARTCHAR uni042D
ENCODING 1069
SWIDTH 755 0
DWIDTH 12 0
BBX 11 15 1 0
BITMAP
1F00
7F80
61C0
40C0
00E0
00E0
00E0
3FE0
3FE0
00C0
C0C0
C1C0
C380
FF00
7E00
ENDCHAR
STARTCHAR uni042E
ENCODING 1070
SWIDTH 1246 0
DWIDTH 20 0
BBX 20 15 0 0
BITMAP
380380
7C1BC0
CC38E0
8C6860
8C7860
0C7870
0CF070
0DE070
3FC060
3EC060
18C0E0
18E0C0
1871C0
387F80
303E00
ENDCHAR
STARTCHAR uni042F
ENCODING 1071
SWIDTH 850 0
DWIDTH 14 0
BBX 16 15 0 0
BITMAP
07F8
0FF8
0C38
1830
1830
1830
1870
1C70
0FF0
07F0
01B0
8321
C733
FE3E
783C
ENDCHAR
STARTCHAR uni0430
ENCODING 1072
SWIDTH 470 0
DWIDTH 8 0
BBX 9 8 1 0
BITMAP
3000
7C00
EC00
CC00
D880
D980
FF00
EE00
ENDCHAR
STARTCHAR uni0431
ENCODING 1073
SWIDTH 473 0
DWIDTH 8 0
BBX 9 16 1 0
BITMAP
0200
1E00
7C00
6000
6000
3000
3800
1800
7C00
FC00
DC00
CF80
CF00
DC00
F800
7000
ENDCHAR
STARTCHAR uni0432
ENCODING 1074
SWIDTH 473 0
DWIDTH 8 0
BBX 9 16 1 0
BITMAP
1800
3C00
2C00
6C00
6C00
4800
D800
D000
F800
FC00
DC00
CF80
CF00
CC00
7800
7000
ENDCHAR
STARTCHAR uni0433
ENCODING 1075
SWIDTH 380 0
DWIDTH 6 0
BBX 7 8 1 0
BITMAP
F0
F8
18
30
C2
C6
FC
F8
ENDCHAR
STARTCHAR uni0434
ENCODING 1076
SWIDTH 479 0
DWIDTH 8 0
BBX 9 16 0 -8
BITMAP
1800
3E00
7600
6600
6C80
6D80
7F00
7E00
1C00
3C00
6800
5800
D800
D800
F000
6000
ENDCHAR
STARTCHAR uni0435
ENCODING 1077
SWIDTH 393 0
DWIDTH 6 0
BBX 7 8 1 0
BITMAP
78
F8
D8
D8
F2
C6
FE
78
ENDCHAR
STARTCHAR uni0436
ENCODING 1078
SWIDTH 717 0
DWIDTH 11 0
BBX 14 8 0 0
BITMAP
3270
7EF0
2FB0
0FA0
4B8C
DF88
F6F8
7670
ENDCHAR
STARTCHAR uni0437
ENCODING 1079
SWIDTH 435 0
DWIDTH 7 0
BBX 10 16 -1 -8
BITMAP
1E00
3E00
2200
0600
0C00
38C0
3B80
1E00
0C00
3C00
2C00
6C00
4C00
D800
F800
7000
ENDCHAR
STARTCHAR uni0438
ENCODING 1080
SWIDTH 462 0
DWIDTH 7 0
BBX 8 8 1 0
BITMAP
4C
CC
CC
D8
D9
F9
FF
CE
ENDCHAR
STARTCHAR uni0439
ENCODING 1081
SWIDTH 462 0
DWIDTH 7 0
BBX 8 13 1 0
BITMAP
46
46
7C
38
00
4C
CC
CC
D8
D9
F9
FF
CE
ENDCHAR
STARTCHAR uni043A
ENCODING 1082
SWIDTH 465 0
DWIDTH 7 0
BBX 9 8 1 0
BITMAP
4E00
DE00
F600
F600
F180
F100
DF00
CE00
ENDCHAR
STARTCHAR uni043B
ENCODING 1083
SWIDTH 549 0
DWIDTH 9 0
BBX 11 8 0 0
BITMAP
0600
0600
0E00
0E00
DE20
DE60
F3C0
6380
ENDCHAR
STARTCHAR uni043C
ENCODING 1084
SWIDTH 734 0
DWIDTH 12 0
BBX 14 8 0 0
BITMAP
0660
0EE0
0EE0
1FE0
DF64
DF6C
F778
6270
ENDCHAR
STARTCHAR uni043D
ENCODING 1085
SWIDTH 475 0
DWIDTH 8 0
BBX 9 8 1 0
BITMAP
4400
CC00
CC00
FC00
FC80
C980
CF00
CE00
ENDCHAR
STARTCHAR uni043E
ENCODING 1086
SWIDTH 451 0
DWIDTH 7 0
BBX 8 8 1 0
BITMAP
78
F8
DC
DF
CF
CC
F8
70
ENDCHAR
STARTCHAR uni043F
ENCODING 1087
SWIDTH 496 0
DWIDTH 8 0
BBX 9 8 1 0
BITMAP
4C00
DC00
FC00
EC00
EC80
CD80
CF00
CE00
ENDCHAR
STARTCHAR uni0440
ENCODING 1088
SWIDTH 481 0
DWIDTH 8 0
BBX 12 16 -2 -8
BITMAP
1B00
1F80
1980
1980
1990
3B30
3FE0
3FC0
5800
5800
5800
D000
D000
F000
F000
6000
ENDCHAR
STARTCHAR uni0441
ENCODING 1089
SWIDTH 368 0
DWIDTH 6 0
BBX 7 8 1 0
BITMAP
70
F8
D8
D0
C2
C6
FC
78
ENDCHAR
STARTCHAR uni0442
ENCODING 1090
SWIDTH 744 0
DWIDTH 12 0
BBX 13 8 1 0
BITMAP
4CC0
DDC0
FFC0
EEC0
EEC8
CCD8
CCF0
CCE0
ENDCHAR
STARTCHAR uni0443
ENCODING 1091
SWIDTH 479 0
DWIDTH 8 0
BBX 9 16 0 -8
BITMAP
2600
6600
6600
6E00
6C80
7D80
7F00
6E00
1C00
3C00
6800
5800
D800
D000
F000
E000
ENDCHAR
STARTCHAR uni0444
ENCODING 1092
SWIDTH 721 0
DWIDTH 12 0
BBX 13 19 1 -5
BITMAP
0200
0600
0600
0600
0C00
0C00
3D80
7FC0
CCC0
CCC0
DCC8
DD98
FFF0
EEE0
1800
1800
1800
1800
1800
ENDCHAR
STARTCHAR uni0445
ENCODING 1093
SWIDTH 529 0
DWIDTH 8 0
BBX 11 8 0 0
BITMAP
3B80
7F80
6D00
0C00
4C20
DC40
FFC0
7780
ENDCHAR
STARTCHAR uni0446
ENCODING 1094
SWIDTH 501 0
DWIDTH 8 0
BBX 9 13 1 -5
BITMAP
4C00
CC00
CC00
D800
D800
F980
FF00
CE00
1C00
3C00
6800
7800
7000
ENDCHAR
STARTCHAR uni0447
ENCODING 1095
SWIDTH 555 0
DWIDTH 9 0
BBX 11 10 0 0
BITMAP
0800
1800
1F80
3780
3300
2600
6C20
CC60
8FC0
0780
ENDCHAR
STARTCHAR uni0448
ENCODING 1096
SWIDTH 693 0
DWIDTH 11 0
BBX 12 8 1 0
BITMAP
4CC0
CCC0
CD80
DD80
D990
FFB0
EFE0
ECC0
ENDCHAR
STARTCHAR uni0449
ENCODING 1097
SWIDTH 732 0
DWIDTH 12 0
BBX 12 13 1 -5
BITMAP
4CC0
CCC0
CD80
DD80
D980
FF90
EFF0
ECE0
01C0
0680
0580
0780
0700
ENDCHAR
STARTCHAR uni044A
ENCODING 1098
SWIDTH 542 0
DWIDTH 9 0
BBX 10 8 1 0
BITMAP
F000
6000
7C00
FE00
E640
C6C0
7F80
7F00
ENDCHAR
STARTCHAR uni044B
ENCODING 1099
SWIDTH 702 0
DWIDTH 11 0
BBX 12 8 1 0
BITMAP
60C0
C1C0
D980
FF80
CF90
CFB0
FDF0
78C0
ENDCHAR
STARTCHAR uni044C
ENCODING 1100
SWIDTH 517 0
DWIDTH 8 0
BBX 9 8 1 0
BITMAP
6000
C000
DC00
FC00
CC80
CD80
FF80
7E00
ENDCHAR
STARTCHAR uni044D
ENCODING 1101
SWIDTH 466 0
DWIDTH 7 0
BBX 9 8 1 0
BITMAP
7800
FC00
0C00
3F80
BF00
8C00
FC00
7800
ENDCHAR
STARTCHAR uni044E
ENCODING 1102
SWIDTH 676 0
DWIDTH 11 0
BBX 12 8 1 0
BITMAP
4700
CF80
DD80
F9F0
F8F0
D980
CF80
CF00
ENDCHAR
STARTCHAR uni044F
ENCODING 1103
SWIDTH 543 0
DWIDTH 9 0
BBX 11 8 0 0
BITMAP
1F00
1F00
3300
1300
DF20
CE60
FBC0
7380
ENDCHAR
STARTCHAR uni0450
ENCODING 1104
SWIDTH 393 0
DWIDTH 6 0
BBX 7 14 1 0
BITMAP
40
E0
60
30
10
00
78
F8
D8
D8
F2
C6
FE
78
ENDCHAR
STARTCHAR uni0451
ENCODING 1105
SWIDTH 393 0
DWIDTH 6 0
BBX 7 12 1 0
BITMAP
6C
6C
6C
00
78
F8
D8
D8
F2
C6
FE
78
ENDCHAR
STARTCHAR uni0452
ENCODING 1106
SWIDTH 514 0
DWIDTH 8 0
BBX 9 23 1 -8
BITMAP
3000
3000
6000
FC00
FC00
6000
E000
CC00
DC00
FC00
EC00
EC80
CD80
CF00
CC00
1800
3800
7800
D800
9000
B000
F000
E000
ENDCHAR
STARTCHAR uni0453
ENCODING 1107
SWIDTH 380 0
DWIDTH 6 0
BBX 7 14 1 0
BITMAP
08
18
18
30
20
00
F0
F8
18
30
C2
C6
FC
F8
ENDCHAR
STARTCHAR uni0454
ENCODING 1108
SWIDTH 379 0
DWIDTH 6 0
BBX 7 8 1 0
BITMAP
78
F8
C8
F0
F2
C6
FC
78
ENDCHAR
STARTCHAR uni0455
ENCODING 1109
SWIDTH 427 0
DWIDTH 7 0
BBX 9 8 0 0
BITMAP
1800
1800
3800
3800
6C80
CD80
BF00
3E00
ENDCHAR
STARTCHAR uni0456
ENCODING 1110
SWIDTH 246 0
DWIDTH 4 0
BBX 5 12 1 0
BITMAP
60
60
60
00
40
C0
C0
C0
C8
D8
F0
E0
ENDCHAR
STARTCHAR uni0457
ENCODING 1111
SWIDTH 246 0
DWIDTH 4 0
BBX 6 12 0 0
BITMAP
C8
DC
C8
00
20
60
60
60
64
6C
78
70
ENDCHAR
STARTCHAR uni0458
ENCODING 1112
SWIDTH 254 0
DWIDTH 4 0
BBX 10 20 -4 -8
BITMAP
0300
0700
0700
0000
0600
0600
0600
0600
0640
07C0
0780
0600
0C00
1C00
3C00
6C00
4800
D800
F000
7000
ENDCHAR
STARTCHAR uni0459
ENCODING 1113
SWIDTH 794 0
DWIDTH 13 0
BBX 15 8 0 0
BITMAP
0600
0600
0EE0
0FF0
DF32
DA36
F3FC
63F8
ENDCHAR
STARTCHAR uni045A
ENCODING 1114
SWIDTH 751 0
DWIDTH 12 0
BBX 13 8 1 0
BITMAP
4400
CC00
CF80
FFC0
FCC8
CCD8
CFF0
C7E0
ENDCHAR
STARTCHAR uni045B
ENCODING 1115
SWIDTH 502 0
DWIDTH 8 0
BBX 9 15 1 0
BITMAP
3000
3000
6000
FC00
FC00
6000
6000
CC00
DC00
FC00
EC00
EC80
CD80
CF00
CE00
ENDCHAR
STARTCHAR uni045C
ENCODING 1116
SWIDTH 465 0
DWIDTH 7 0
BBX 9 14 1 0
BITMAP
0400
0E00
0C00
1800
1000
0000
4E00
DE00
F600
F600
F180
F100
DF00
CE00
ENDCHAR
STARTCHAR uni045D
ENCODING 1117
SWIDTH 462 0
DWIDTH 7 0
BBX 8 14 1 0
BITMAP
60
60
30
30
10
00
4C
CC
CC
D8
D9
F9
FF
CE
ENDCHAR
STARTCHAR uni045E
ENCODING 1118
SWIDTH 479 0
DWIDTH 8 0
BBX 9 21 0 -8
BITMAP
2300
2300
3E00
1C00
0000
2600
6600
6600
6E00
6C80
7D80
7F00
6E00
1C00
3C00
6800
5800
D800
D000
F000
E000
ENDCHAR
STARTCHAR uni045F
ENCODING 1119
SWIDTH 600 0
DWIDTH 10 0
BBX 8 10 1 -2
BITMAP
4C
CC
CC
D8
D9
F9
FF
CE
40
40
ENDCHAR
STARTCHAR uni0462
ENCODING 1122
SWIDTH 721 0
DWIDTH 12 0
BBX 11 15 0 0
BITMAP
1800
1800
7E00
7E00
1800
3780
3FE0
70E0
F060
3060
3060
3060
30C0
1FC0
0F00
ENDCHAR
STARTCHAR uni0463
ENCODING 1123
SWIDTH 517 0
DWIDTH 8 0
BBX 10 11 0 0
BITMAP
3000
3000
FC00
FC00
6000
6E00
7E00
6640
6640
7FC0
3F00
ENDCHAR
STARTCHAR uni046A
ENCODING 1130
SWIDTH 1234 0
DWIDTH 20 0
BBX 21 15 0 0
BITMAP
1FFFF0
1FFFF0
0301C0
030180
038180
018300
018700
00FE00
01FE00
033600
073300
067308
CC6388
7C61F0
7860E0
ENDCHAR
STARTCHAR uni046B
ENCODING 1131
SWIDTH 788 0
DWIDTH 13 0
BBX 15 15 0 0
BITMAP
00C0
00C0
01C0
01C0
0140
0140
03C0
0FF8
0EF8
06C0
06C0
4EC2
CFC6
FB7C
7338
ENDCHAR
STARTCHAR uni0472
ENCODING 1138
SWIDTH 816 0
DWIDTH 13 0
BBX 12 15 1 0
BITMAP
0F80
1FC0
38E0
7060
6070
E070
FC70
FFF0
C3F0
C060
E060
E0E0
71C0
3F80
1E00
ENDCHAR
STARTCHAR uni0473
ENCODING 1139
SWIDTH 451 0
DWIDTH 7 0
BBX 8 8 1 0
BITMAP
78
F8
CC
CF
FF
DC
F8
70
ENDCHAR
STARTCHAR uni0474
ENCODING 1140
SWIDTH 797 0
DWIDTH 13 0
BBX 14 15 2 0
BITMAP
6078
E07C
E0E0
C0E0
C0C0
C0C0
C1C0
C180
C180
C380
E300
E700
6E00
7C00
3800
ENDCHAR
STARTCHAR uni0475
ENCODING 1141
SWIDTH 420 0
DWIDTH 7 0
BBX 8 8 1 0
BITMAP
CF
CF
CC
D8
D8
F0
F0
E0
ENDCHAR
STARTCHAR uni048A
ENCODING 1162
SWIDTH 890 0
DWIDTH 14 0
BBX 16 23 0 -3
BITMAP
0210
0330
03E0
01C0
0000
3C18
7C18
CC18
8C18
0C18
0C38
1C38
1C38
1830
1870
1870
18B1
19B3
1F3E
0E1C
000C
0018
0030
ENDCHAR
STARTCHAR uni048B
ENCODING 1163
SWIDTH 462 0
DWIDTH 7 0
BBX 8 16 1 -3
BITMAP
46
64
7C
38
00
4C
CC
CC
D8
D9
F9
FF
CE
0C
18
18
ENDCHAR
STARTCHAR uni048C
ENCODING 1164
SWIDTH 721 0
DWIDTH 12 0
BBX 11 15 0 0
BITMAP
1800
1800
7E00
7E00
1800
3780
3FE0
70E0
F060
3060
3060
3060
30C0
1FC0
0F00
ENDCHAR
STARTCHAR uni048D
ENCODING 1165
SWIDTH 517 0
DWIDTH 8 0
BBX 10 11 0 0
BITMAP
3000
3000
FC00
FC00
6000
6E00
7E00
6640
6640
7FC0
3F00
ENDCHAR
STARTCHAR uni048E
ENCODING 1166
SWIDTH 805 0
DWIDTH 13 0
BBX 13 16 1 -1
BITMAP
07C0
1FE0
3870
6030
6630
C6B0
C6F0
CE78
DFC0
DF80
CC00
CC00
CC00
DC00
7800
3800
ENDCHAR
STARTCHAR uni048F
ENCODING 1167
SWIDTH 481 0
DWIDTH 8 0
BBX 12 16 -2 -8
BITMAP
1B00
1F80
1980
1980
1F90
3F30
3FE0
3FC0
5800
5800
D800
D000
D000
F000
F000
6000
ENDCHAR
STARTCHAR uni0490
ENCODING 1168
SWIDTH 645 0
DWIDTH 10 0
BBX 13 19 1 0
BITMAP
0008
0018
0018
0018
3FF8
7FF0
CC00
CC00
CC00
DC00
1C00
1800
1800
1800
1800
1800
3800
3800
3800
ENDCHAR
STARTCHAR uni0491
ENCODING 1169
SWIDTH 394 0
DWIDTH 6 0
BBX 6 11 1 0
BITMAP
08
0C
0C
7C
F8
C0
C0
C0
C0
C0
C0
ENDCHAR
STARTCHAR uni0492
ENCODING 1170
SWIDTH 635 0
DWIDTH 10 0
BBX 13 15 1 0
BITMAP
3FF8
7FF0
CC00
CC00
CC00
CC00
9C00
3F00
7E00
1800
1800
1800
1800
3800
3800
ENDCHAR
STARTCHAR uni0493
ENCODING 1171
SWIDTH 380 0
DWIDTH 6 0
BBX 8 8 0 0
BITMAP
78
7C
0C
F8
79
63
7E
7C
ENDCHAR
STARTCHAR uni0494
ENCODING 1172
SWIDTH 884 0
DWIDTH 14 0
BBX 15 23 1 -8
BITMAP
1FF8
7FF0
CC00
CC00
8C00
DC00
DC00
1DE0
1BF0
1E30
1C30
1836
383E
383C
3870
00E0
01E0
03E0
0360
06C0
06C0
0780
0300
ENDCHAR
STARTCHAR uni0495
ENCODING 1173
SWIDTH 441 0
DWIDTH 7 0
BBX 8 13 1 -5
BITMAP
F0
F8
18
30
C0
C3
FE
FC
38
78
D0
F0
E0
ENDCHAR
STARTCHAR uni0496
ENCODING 1174
SWIDTH 1234 0
DWIDTH 20 0
BBX 22 21 0 -6
BITMAP
1E1870
3E18F8
2318D8
031980
033980
01B300
01B700
00FE00
01FE00
033600
073300
067300
CC638C
7C61FC
7860F0
0000E0
0003E0
000760
0006C0
0007C0
000380
ENDCHAR
STARTCHAR uni0497
ENCODING 1175
SWIDTH 803 0
DWIDTH 13 0
BBX 15 13 0 -5
BITMAP
3270
7EF0
2FB0
0FA0
4B80
DF86
F6FC
76F8
0070
00A0
0120
01E0
01C0
ENDCHAR
STARTCHAR uni0498
ENCODING 1176
SWIDTH 725 0
DWIDTH 12 0
BBX 10 21 1 -6
BITMAP
1F00
3F80
7180
6180
6180
2180
0300
1F80
1DC0
00C0
C0C0
C1C0
C380
7F80
3E00
0E00
3E00
3600
3600
3C00
3800
ENDCHAR
STARTCHAR uni0499
ENCODING 1177
SWIDTH 445 0
DWIDTH 7 0
BBX 9 13 0 -5
BITMAP
3C00
7E00
4600
0C00
1C00
4580
FF00
7E00
1C00
3C00
6800
7800
3000
ENDCHAR
STARTCHAR uni049A
ENCODING 1178
SWIDTH 937 0
DWIDTH 15 0
BBX 17 21 0 -6
BITMAP
1F8600
3F8600
638600
638E00
630C00
631800
233800
07E000
07C000
036000
077000
463000
C63980
7E1F80
3C0E00
001C00
007C00
006C00
00EC00
007800
007000
ENDCHAR
STARTCHAR uni049B
ENCODING 1179
SWIDTH 531 0
DWIDTH 9 0
BBX 9 13 1 -5
BITMAP
4E00
DE00
F600
F600
F000
F080
FF80
DE00
1C00
3400
2C00
7800
3000
ENDCHAR
STARTCHAR uni049C
ENCODING 1180
SWIDTH 937 0
DWIDTH 15 0
BBX 17 15 0 0
BITMAP
1F8600
3F8600
638600
638E00
634C00
635800
237800
07E000
07C000
03E000
07F000
46F080
C6B980
7E1F00
3C0E00
ENDCHAR
STARTCHAR uni049D
ENCODING 1181
SWIDTH 485 0
DWIDTH 8 0
BBX 9 8 1 0
BITMAP
4E00
DE00
F200
F000
F080
F180
FF00
CE00
ENDCHAR
STARTCHAR uni049E
ENCODING 1182
SWIDTH 937 0
DWIDTH 15 0
BBX 17 15 0 0
BITMAP
1F8600
3F8600
638600
638E00
6FCC00
6FD800
233800
07E000
07C000
036000
077000
463080
C63980
7E1F00
3C0E00
ENDCHAR
STARTCHAR uni049F
ENCODING 1183
SWIDTH 473 0
DWIDTH 8 0
BBX 9 15 1 0
BITMAP
3000
3000
6000
FC00
FC00
6000
6000
CE00
DE00
F200
F600
F080
F180
DF00
CE00
ENDCHAR
STARTCHAR uni04A0
ENCODING 1184
SWIDTH 937 0
DWIDTH 15 0
BBX 17 15 0 0
BITMAP
000600
7F8600
3F8600
038E00
030C00
031800
033800
07E000
07C000
036000
077000
463080
C63980
7E1F00
3C0E00
ENDCHAR
STARTCHAR uni04A1
ENCODING 1185
SWIDTH 555 0
DWIDTH 9 0
BBX 10 8 1 0
BITMAP
F700
FF00
2D00
7900
7840
78C0
7F80
2700
ENDCHAR
STARTCHAR uni04A2
ENCODING 1186
SWIDTH 907 0
DWIDTH 15 0
BBX 17 21 0 -6
BITMAP
380E00
7C1E00
CC1A00
8C3200
0C3600
0C7600
0C7C00
3FF800
3FE000
186000
186000
186000
187180
383F00
301E00
003C00
007C00
00C800
00D800
00F800
006000
ENDCHAR
STARTCHAR uni04A3
ENCODING 1187
SWIDTH 515 0
DWIDTH 8 0
BBX 9 13 1 -5
BITMAP
4400
CC00
CC00
FC00
F800
C880
CF80
C600
1C00
3C00
6C00
7800
3000
ENDCHAR
STARTCHAR uni04A4
ENCODING 1188
SWIDTH 873 0
DWIDTH 14 0
BBX 18 15 0 0
BITMAP
380FC0
7C1FC0
CC1800
8C3000
0C3000
0C3000
0C7000
3FE000
3FE000
186000
186000
186100
187300
383E00
301C00
ENDCHAR
STARTCHAR uni04A5
ENCODING 1189
SWIDTH 475 0
DWIDTH 8 0
BBX 9 9 1 0
BITMAP
0200
4700
CC00
CC00
FC00
FC80
C980
CF00
CE00
ENDCHAR
STARTCHAR uni04A8
ENCODING 1192
SWIDTH 997 0
DWIDTH 16 0
BBX 17 15 1 0
BITMAP
0E0000
1E0000
387800
71FC00
638E00
E30600
E30600
C30600
C70600
C30E00
E30C00
E39C00
71F980
3FFF80
1FFE00
ENDCHAR
STARTCHAR uni04A9
ENCODING 1193
SWIDTH 574 0
DWIDTH 9 0
BBX 10 8 1 0
BITMAP
7000
FE00
CF00
DB00
DB40
DEC0
FF80
7F00
ENDCHAR
STARTCHAR uni04AA
ENCODING 1194
SWIDTH 781 0
DWIDTH 13 0
BBX 13 23 1 -8
BITMAP
0F80
1FC0
38C0
70C0
60C0
E0C0
E000
C000
C000
C000
E000
E048
70D8
3FF0
1FE0
01C0
03C0
0680
0580
0D80
0900
0F00
0E00
ENDCHAR
STARTCHAR uni04AB
ENCODING 1195
SWIDTH 431 0
DWIDTH 7 0
BBX 8 13 1 -5
BITMAP
70
F8
D8
D0
C0
C3
FE
7C
38
50
90
F0
E0
ENDCHAR
STARTCHAR uni04AC
ENCODING 1196
SWIDTH 697 0
DWIDTH 11 0
BBX 13 20 1 -5
BITMAP
1FF8
7FF8
C700
8700
C600
C600
0600
0600
0E00
0E00
0C00
0C00
0E00
0F00
0E00
1A00
3600
3600
3C00
3800
ENDCHAR
STARTCHAR uni04AD
ENCODING 1197
SWIDTH 784 0
DWIDTH 13 0
BBX 13 13 1 -5
BITMAP
4CC0
DDC0
FFC0
EEC0
EEC0
CCC8
CCF8
CC60
01C0
0340
02C0
0780
0380
ENDCHAR
STARTCHAR uni04AE
ENCODING 1198
SWIDTH 677 0
DWIDTH 11 0
BBX 10 15 2 0
BITMAP
C0C0
E1C0
6180
6300
7700
3600
3E00
1C00
1C00
1800
1800
1800
1800
1800
1800
ENDCHAR
STARTCHAR uni04AF
ENCODING 1199
SWIDTH 472 0
DWIDTH 8 0
BBX 9 13 1 -5
BITMAP
CC00
CC00
CC00
CF80
DF00
D800
F000
6000
6000
6000
6000
6000
6000
ENDCHAR
STARTCHAR uni04B0
ENCODING 1200
SWIDTH 677 0
DWIDTH 11 0
BBX 10 15 2 0
BITMAP
C0C0
E1C0
6180
6300
7300
3600
3E00
1C00
1C00
7E00
7E00
1800
1800
1800
1800
ENDCHAR
STARTCHAR uni04B1
ENCODING 1201
SWIDTH 472 0
DWIDTH 8 0
BBX 10 13 0 -5
BITMAP
6600
6600
6600
67C0
6F80
6C00
7800
7800
FC00
F800
3000
3000
3000
ENDCHAR
STARTCHAR uni04B2
ENCODING 1202
SWIDTH 716 0
DWIDTH 11 0
BBX 13 21 0 -6
BITMAP
3830
7C70
CE60
06C0
07C0
0780
0700
0700
0F00
1F00
3B80
3180
7188
E1F8
C0F0
01E0
0360
0640
06C0
07C0
0300
ENDCHAR
STARTCHAR uni04B3
ENCODING 1203
SWIDTH 601 0
DWIDTH 10 0
BBX 11 13 0 -5
BITMAP
3B80
7F80
6D00
0C00
4C00
DC20
FFE0
77C0
0300
0D00
0B00
0E00
0E00
ENDCHAR
STARTCHAR uni04B4
ENCODING 1204
SWIDTH 1040 0
DWIDTH 17 0
BBX 18 21 1 -6
BITMAP
1FE600
7FEE00
C30E00
C70E00
C70C00
C60C00
060C00
061C00
0E1C00
0E1C00
0C3C00
0C3C00
0C5C40
0FCFC0
078700
001E00
003E00
007600
006C00
007C00
003800
ENDCHAR
STARTCHAR uni04B5
ENCODING 1205
SWIDTH 501 0
DWIDTH 8 0
BBX 9 16 1 -5
BITMAP
7E00
3C00
0000
4C00
CC00
CC00
D800
D800
F980
FF00
CE00
1C00
3C00
6800
7800
7000
ENDCHAR
STARTCHAR uni04B6
ENCODING 1206
SWIDTH 804 0
DWIDTH 13 0
BBX 13 21 2 -6
BITMAP
60C0
E0C0
E0C0
E1C0
E1C0
C180
C180
C380
E780
FD80
7980
0180
01D8
01F8
00E0
01C0
07C0
06C0
0C80
0F80
0700
ENDCHAR
STARTCHAR uni04B7
ENCODING 1207
SWIDTH 631 0
DWIDTH 10 0
BBX 12 14 0 -5
BITMAP
1800
1F80
1780
3300
2600
6C00
CC30
8FE0
0FC0
0380
0780
0D00
0F00
0E00
ENDCHAR
STARTCHAR uni04B8
ENCODING 1208
SWIDTH 773 0
DWIDTH 12 0
BBX 10 15 2 0
BITMAP
60C0
E0C0
E0C0
E1C0
E9C0
C980
CB80
DB80
FF80
FD80
7980
1180
1380
0380
0300
ENDCHAR
STARTCHAR uni04B9
ENCODING 1209
SWIDTH 575 0
DWIDTH 9 0
BBX 11 10 0 0
BITMAP
0200
1A00
1F80
1780
3F00
2600
6C20
CC60
8FC0
0780
ENDCHAR
STARTCHAR uni04BA
ENCODING 1210
SWIDTH 755 0
DWIDTH 12 0
BBX 13 15 1 0
BITMAP
3000
3000
3000
3000
3000
7000
6000
6780
6FC0
70C0
60C0
E0C8
E1D8
E1F0
C0E0
ENDCHAR
STARTCHAR uni04BB
ENCODING 1211
SWIDTH 502 0
DWIDTH 8 0
BBX 9 16 1 0
BITMAP
1800
3C00
2C00
6C00
6C00
4800
D800
D000
EC00
DC00
FC00
EC00
EC80
CD80
CF00
CE00
ENDCHAR
STARTCHAR uni04BC
ENCODING 1212
SWIDTH 808 0
DWIDTH 13 0
BBX 14 15 1 0
BITMAP
03E0
07E0
0E30
1C30
1830
3830
F830
FFF0
7FE0
3000
3800
3800
1C0C
0FFC
07F0
ENDCHAR
STARTCHAR uni04BD
ENCODING 1213
SWIDTH 483 0
DWIDTH 8 0
BBX 10 8 0 0
BITMAP
0E00
1F00
3300
B600
FC40
70C0
3F80
1F00
ENDCHAR
STARTCHAR uni04BE
ENCODING 1214
SWIDTH 808 0
DWIDTH 13 0
BBX 14 19 1 -4
BITMAP
03E0
07E0
0E30
1C30
1830
3830
F830
FFF0
7FE0
3000
3800
3800
1C0C
0FFC
07F0
0C00
0C00
0F00
0700
ENDCHAR
STARTCHAR uni04BF
ENCODING 1215
SWIDTH 483 0
DWIDTH 8 0
BBX 10 13 0 -5
BITMAP
0E00
1F00
3300
B200
FE40
78C0
3B80
1F00
0C00
0C00
0C00
0F00
0200
ENDCHAR
STARTCHAR uni04C0
ENCODING 1216
SWIDTH 495 0
DWIDTH 8 0
BBX 9 15 0 0
BITMAP
3F80
3F80
0C00
0C00
0C00
1C00
1C00
1800
1800
1800
1800
1800
1800
FE00
FE00
ENDCHAR
STARTCHAR uni04C1
ENCODING 1217
SWIDTH 1234 0
DWIDTH 20 0
BBX 21 19 0 0
BITMAP
000200
006200
007E00
003C00
1E1870
3E18F8
2318D8
031980
033980
01B300
01B700
00FE00
01FE00
033600
073300
067308
CC6388
7C61F0
7860E0
ENDCHAR
STARTCHAR uni04C2
ENCODING 1218
SWIDTH 717 0
DWIDTH 11 0
BBX 14 13 0 0
BITMAP
0840
0CC0
0F80
0700
0000
3270
7EF0
2FB0
0FA0
4B8C
DF88
F6F8
7670
ENDCHAR
STARTCHAR uni04C3
ENCODING 1219
SWIDTH 937 0
DWIDTH 15 0
BBX 17 21 0 -6
BITMAP
1F8600
3F8600
638600
638E00
630C00
631800
233800
07E000
07C000
036000
077000
463000
C63980
7E1F80
3C0E00
001C00
007C00
006C00
00EC00
007800
007000
ENDCHAR
STARTCHAR uni04C4
ENCODING 1220
SWIDTH 531 0
DWIDTH 9 0
BBX 9 13 1 -5
BITMAP
4E00
DE00
F600
F600
F000
F080
FF80
DE00
1C00
3400
2C00
7800
3000
ENDCHAR
STARTCHAR uni04C5
ENCODING 1221
SWIDTH 861 0
DWIDTH 14 0
BBX 16 18 0 -3
BITMAP
0060
0060
00E0
00E0
00E0
01E0
01E0
01E0
0360
0360
0360
C671
CE33
7C3E
781C
0018
0030
0030
ENDCHAR
STARTCHAR uni04C6
ENCODING 1222
SWIDTH 549 0
DWIDTH 9 0
BBX 11 11 0 -3
BITMAP
0600
0600
0E00
0E00
DE20
DE60
F3C0
6380
0300
0300
0600
ENDCHAR
STARTCHAR uni04C7
ENCODING 1223
SWIDTH 907 0
DWIDTH 15 0
BBX 17 21 0 -6
BITMAP
380E00
7C1E00
CC1A00
8C3200
0C3600
0C7600
0C7C00
3FF800
3FE000
186000
186000
186000
187180
383F00
301E00
003C00
007C00
00C800
00D800
00F800
006000
ENDCHAR
STARTCHAR uni04C8
ENCODING 1224
SWIDTH 515 0
DWIDTH 8 0
BBX 9 13 1 -5
BITMAP
4400
CC00
CC00
FC00
F800
C880
CF80
C600
1C00
3C00
6C00
7800
3000
ENDCHAR
STARTCHAR uni04C9
ENCODING 1225
SWIDTH 873 0
DWIDTH 14 0
BBX 16 18 0 -3
BITMAP
380E
7C1E
CC1A
8C32
0C36
0C76
0C7C
3FF8
3FE0
1860
1860
1861
1873
383E
301C
0018
0018
0030
ENDCHAR
STARTCHAR uni04CA
ENCODING 1226
SWIDTH 475 0
DWIDTH 8 0
BBX 9 11 1 -3
BITMAP
4400
CC00
CC00
FC00
FC80
C980
CF00
CE00
0C00
0C00
1800
ENDCHAR
STARTCHAR uni04CB
ENCODING 1227
SWIDTH 773 0
DWIDTH 12 0
BBX 10 21 2 -6
BITMAP
60C0
E0C0
E0C0
E1C0
E1C0
C180
C180
C380
E780
FD80
7980
0180
0380
0780
0700
1E00
3600
6400
6C00
7C00
3000
ENDCHAR
STARTCHAR uni04CC
ENCODING 1228
SWIDTH 555 0
DWIDTH 9 0
BBX 11 12 0 -2
BITMAP
0800
1800
1F80
3780
3300
2600
6C20
CC60
8FC0
0780
0180
0180
ENDCHAR
STARTCHAR uni04CD
ENCODING 1229
SWIDTH 1133 0
DWIDTH 18 0
BBX 20 18 0 -3
BITMAP
01C300
01C700
01C700
01CF00
03CF00
03CF00
03DB00
03DB00
06DB00
06D300
06F300
C6F310
CCE330
FC63E0
7861C0
000180
000180
000300
ENDCHAR
STARTCHAR uni04CE
ENCODING 1230
SWIDTH 734 0
DWIDTH 12 0
BBX 14 11 0 -3
BITMAP
0660
0EE0
0EE0
1FE0
DF64
DF6C
F778
6270
0060
0060
00C0
ENDCHAR
STARTCHAR uni04CF
ENCODING 1231
SWIDTH 222 0
DWIDTH 4 0
BBX 3 14 1 0
BITMAP
20
60
60
60
60
60
E0
C0
C0
C0
C0
C0
C0
80
ENDCHAR
STARTCHAR uni04D0
ENCODING 1232
SWIDTH 786 0
DWIDTH 13 0
BBX 14 19 1 0
BITMAP
0010
0330
03F0
01E0
03F0
0FF0
1C00
3860
70E0
60C0
E0C0
C0C0
C1C0
C1C0
C1C0
C3C4
E3CC
7EF8
3CF0
ENDCHAR
STARTCHAR uni04D1
ENCODING 1233
SWIDTH 470 0
DWIDTH 8 0
BBX 9 13 1 0
BITMAP
4200
6600
7C00
3800
0000
3000
7C00
EC00
CC00
D880
D980
FF00
EE00
ENDCHAR
STARTCHAR uni04D2
ENCODING 1234
SWIDTH 786 0
DWIDTH 13 0
BBX 14 18 1 0
BITMAP
0320
0370
0360
03F0
0FF0
1C00
3860
70E0
60C0
E0C0
C0C0
C1C0
C1C0
C1C0
C3C4
E3CC
7EF8
3CF0
ENDCHAR
STARTCHAR uni04D3
ENCODING 1235
SWIDTH 470 0
DWIDTH 8 0
BBX 9 12 1 0
BITMAP
2600
7600
6600
0000
3000
7C00
EC00
CC00
D880
D980
FF00
EE00
ENDCHAR
STARTCHAR uni04D4
ENCODING 1236
SWIDTH 1015 0
DWIDTH 16 0
BBX 17 15 1 0
BITMAP
073F00
0FFF00
1C6000
386000
70E000
60E000
E0C000
E0FE00
C0FE00
C1C000
C1C000
C3C000
E3E180
7E7F80
3C3E00
ENDCHAR
STARTCHAR uni04D5
ENCODING 1237
SWIDTH 653 0
DWIDTH 10 0
BBX 12 8 1 0
BITMAP
3B80
7F80
CC80
CD80
CF30
DC60
FFE0
E780
ENDCHAR
STARTCHAR uni04D6
ENCODING 1238
SWIDTH 686 0
DWIDTH 11 0
BBX 13 19 0 0
BITMAP
0020
0660
07E0
03C0
07C0
1FE0
3860
3860
3060
3820
1F00
1F00
7000
6000
6000
E000
7018
3FF8
1FE0
ENDCHAR
STARTCHAR uni04D7
ENCODING 1239
SWIDTH 393 0
DWIDTH 6 0
BBX 7 13 1 0
BITMAP
44
CC
FC
78
00
78
F8
D8
D8
F2
C6
FE
78
ENDCHAR
STARTCHAR uni04D8
ENCODING 1240
SWIDTH 792 0
DWIDTH 13 0
BBX 11 15 1 0
BITMAP
0F00
3FC0
70E0
40E0
0060
0060
0060
FFE0
FFE0
C060
C0E0
E0C0
61C0
7F80
1E00
ENDCHAR
STARTCHAR uni04D9
ENCODING 1241
SWIDTH 455 0
DWIDTH 7 0
BBX 9 8 0 0
BITMAP
3C00
7E00
0600
7F80
FF80
C600
7C00
7800
ENDCHAR
STARTCHAR uni04DA
ENCODING 1242
SWIDTH 792 0
DWIDTH 13 0
BBX 11 18 1 0
BITMAP
0D80
0D80
0D80
0F00
3FC0
70E0
40E0
0060
0060
0060
FFE0
FFE0
C060
C0E0
E0C0
61C0
7F80
1E00
ENDCHAR
STARTCHAR uni04DB
ENCODING 1243
SWIDTH 455 0
DWIDTH 7 0
BBX 9 12 0 0
BITMAP
3600
3600
3600
0000
3C00
7E00
0600
7F80
FF80
C600
7C00
7800
ENDCHAR
STARTCHAR uni04DC
ENCODING 1244
SWIDTH 1234 0
DWIDTH 20 0
BBX 21 18 0 0
BITMAP
002600
007600
006600
1E1870
3E18F8
2318D8
031980
033980
01B300
01B700
00FE00
01FE00
033600
073300
067308
CC6388
7C61F0
7860E0
ENDCHAR
STARTCHAR uni04DD
ENCODING 1245
SWIDTH 717 0
DWIDTH 11 0
BBX 14 12 0 0
BITMAP
04C0
0EC0
0CC0
0000
3270
7EF0
2FB0
0FA0
4B8C
DF88
F6F8
7670
ENDCHAR
STARTCHAR uni04DE
ENCODING 1246
SWIDTH 725 0
DWIDTH 12 0
BBX 10 18 1 0
BITMAP
0D80
0D80
0D80
1F00
3F80
7180
6180
6180
2180
0300
1F80
1DC0
00C0
C0C0
C1C0
C380
7F80
3E00
ENDCHAR
STARTCHAR uni04DF
ENCODING 1247
SWIDTH 435 0
DWIDTH 7 0
BBX 10 20 -1 -8
BITMAP
3200
3700
3200
0000
1E00
3E00
2200
0600
0C00
38C0
3B80
1E00
0C00
3C00
2C00
6C00
4C00
D800
F800
7000
ENDCHAR
STARTCHAR uni04E0
ENCODING 1248
SWIDTH 744 0
DWIDTH 12 0
BBX 11 15 1 0
BITMAP
1FC0
3FE0
60E0
60C0
6180
2180
0300
1F80
1DC0
00C0
C0C0
C1C0
C380
7F80
3E00
ENDCHAR
STARTCHAR uni04E1
ENCODING 1249
SWIDTH 435 0
DWIDTH 7 0
BBX 10 16 -1 -8
BITMAP
3F00
3F00
0E00
1C00
3040
31C0
3B00
0E00
1C00
3C00
2C00
6C00
4C00
D800
F800
7000
ENDCHAR
STARTCHAR uni04E2
ENCODING 1250
SWIDTH 890 0
DWIDTH 14 0
BBX 16 17 0 0
BITMAP
03E0
03E0
3C18
7C18
CC18
8C18
0C18
0C38
1C38
1C38
1830
1870
1870
18B1
19B3
1F3E
0E1C
ENDCHAR
STARTCHAR uni04E3
ENCODING 1251
SWIDTH 462 0
DWIDTH 7 0
BBX 8 11 1 0
BITMAP
7C
7C
00
4C
CC
CC
D8
D9
F9
FF
CE
ENDCHAR
STARTCHAR uni04E4
ENCODING 1252
SWIDTH 890 0
DWIDTH 14 0
BBX 16 18 0 0
BITMAP
0320
0370
0360
3C18
7C18
CC18
8C18
0C18
0C38
1C38
1C38
1830
1870
1870
18B1
19B3
1F3E
0E1C
ENDCHAR
STARTCHAR uni04E5
ENCODING 1253
SWIDTH 462 0
DWIDTH 7 0
BBX 8 12 1 0
BITMAP
64
6E
64
00
4C
CC
CC
D8
D9
F9
FF
CE
ENDCHAR
STARTCHAR uni04E6
ENCODING 1254
SWIDTH 816 0
DWIDTH 13 0
BBX 12 18 1 0
BITMAP
04C0
0FC0
0CC0
0F80
1FC0
38E0
7060
6070
E070
E070
C070
C070
C060
E060
E0E0
71C0
3F80
1E00
ENDCHAR
STARTCHAR uni04E7
ENCODING 1255
SWIDTH 451 0
DWIDTH 7 0
BBX 8 12 1 0
BITMAP
6C
6C
6C
00
78
F8
DC
DF
CF
CC
F8
70
ENDCHAR
STARTCHAR uni04E8
ENCODING 1256
SWIDTH 816 0
DWIDTH 13 0
BBX 12 15 1 0
BITMAP
0F80
1FC0
38E0
7060
6070
E070
E070
FFF0
FFF0
C060
C060
E0E0
61C0
3F80
1E00
ENDCHAR
STARTCHAR uni04E9
ENCODING 1257
SWIDTH 451 0
DWIDTH 7 0
BBX 8 8 1 0
BITMAP
78
F8
CC
FF
FF
CC
F8
70
ENDCHAR
STARTCHAR uni04EA
ENCODING 1258
SWIDTH 816 0
DWIDTH 13 0
BBX 12 18 1 0
BITMAP
04C0
0FC0
0CC0
0F80
1FC0
38E0
7060
6070
E070
E070
FFF0
FFF0
C060
C060
E0E0
61C0
3F80
1E00
ENDCHAR
STARTCHAR uni04EB
ENCODING 1259
SWIDTH 451 0
DWIDTH 7 0
BBX 8 12 1 0
BITMAP
6C
6C
6C
00
78
F8
CC
FF
FF
CC
F8
70
ENDCHAR
STARTCHAR uni04EC
ENCODING 1260
SWIDTH 755 0
DWIDTH 12 0
BBX 11 18 1 0
BITMAP
0D80
1D80
0D80
1F00
7F80
61C0
40C0
00E0
00E0
00E0
3FE0
3FE0
00C0
C0C0
C1C0
C380
FF00
7E00
ENDCHAR
STARTCHAR uni04ED
ENCODING 1261
SWIDTH 466 0
DWIDTH 7 0
BBX 9 12 1 0
BITMAP
6400
6C00
6C00
0000
7800
FC00
0C00
3F80
BF00
8C00
FC00
7800
ENDCHAR
STARTCHAR uni04EE
ENCODING 1262
SWIDTH 824 0
DWIDTH 13 0
BBX 14 21 1 -4
BITMAP
07C0
07C0
7830
F830
9830
1830
1870
3870
38F0
39E0
1F60
1E6C
007C
01F0
07E0
0E40
18C0
18C0
1980
1F80
0E00
ENDCHAR
STARTCHAR uni04EF
ENCODING 1263
SWIDTH 479 0
DWIDTH 8 0
BBX 9 19 0 -8
BITMAP
3E00
3E00
0000
2600
6600
6600
6E00
6C80
7D80
7F00
6E00
1C00
3C00
6800
5800
D800
D000
F000
E000
ENDCHAR
STARTCHAR uni04F0
ENCODING 1264
SWIDTH 824 0
DWIDTH 13 0
BBX 14 22 1 -4
BITMAP
06C0
06C0
06C0
7830
F830
9830
1830
1870
3870
38F0
39E0
1F60
1E6C
007C
01F0
07E0
0E40
18C0
18C0
1980
1F80
0E00
ENDCHAR
STARTCHAR uni04F1
ENCODING 1265
SWIDTH 479 0
DWIDTH 8 0
BBX 9 20 0 -8
BITMAP
3200
3700
3200
0000
2600
6600
6600
6E00
6C80
7D80
7F00
6E00
1C00
3C00
6800
5800
D800
D000
F000
E000
ENDCHAR
STARTCHAR uni04F2
ENCODING 1266
SWIDTH 824 0
DWIDTH 13 0
BBX 14 23 1 -4
BITMAP
0360
0360
02C0
06C0
7830
F830
9830
1830
1870
3870
38F0
39E0
1F60
1E6C
007C
01F0
07E0
0E40
18C0
18C0
1980
1F80
0E00
ENDCHAR
STARTCHAR uni04F3
ENCODING 1267
SWIDTH 479 0
DWIDTH 8 0
BBX 9 22 0 -8
BITMAP
0D00
0F80
1B00
1A00
1200
0000
2600
6600
6600
6E00
6C80
7D80
7F00
6E00
1C00
3C00
6800
5800
D800
D000
F000
E000
ENDCHAR
STARTCHAR uni04F4
ENCODING 1268
SWIDTH 773 0
DWIDTH 12 0
BBX 10 18 2 0
BITMAP
1B00
1B00
1B00
60C0
E0C0
E0C0
E1C0
E1C0
C180
C180
C380
E780
FD80
7980
0180
0380
0380
0300
ENDCHAR
STARTCHAR uni04F5
ENCODING 1269
SWIDTH 555 0
DWIDTH 9 0
BBX 11 12 0 0
BITMAP
04C0
0EC0
0CC0
1800
1F80
3780
3300
2600
6C20
CC60
8FC0
0780
ENDCHAR
STARTCHAR uni04F6
ENCODING 1270
SWIDTH 600 0
DWIDTH 10 0
BBX 13 20 1 -5
BITMAP
3FF8
FFF0
CC00
8C00
CC00
DC00
1C00
1800
1800
1800
1800
1800
3C00
3C00
1C00
7C00
6C00
C800
F800
7000
ENDCHAR
STARTCHAR uni04F7
ENCODING 1271
SWIDTH 441 0
DWIDTH 7 0
BBX 8 13 1 -5
BITMAP
F0
F8
18
30
C0
C3
FE
FC
38
78
D0
F0
E0
ENDCHAR
STARTCHAR uni04F8
ENCODING 1272
SWIDTH 1078 0
DWIDTH 17 0
BBX 17 18 0 0
BITMAP
00D800
00D800
00D800
180180
180380
180380
180300
380300
378300
3FE300
F0E300
706700
306700
306600
306600
30C600
1FC600
0F0600
ENDCHAR
STARTCHAR uni04F9
ENCODING 1273
SWIDTH 702 0
DWIDTH 11 0
BBX 12 12 1 0
BITMAP
1900
1B80
1900
0000
60C0
C1C0
D980
FF80
CF90
CFB0
FDF0
78C0
ENDCHAR
STARTCHAR uni04FA
ENCODING 1274
SWIDTH 635 0
DWIDTH 10 0
BBX 15 21 -1 -6
BITMAP
0FFE
1FFC
3300
3300
3300
3300
2700
0FC0
1F80
0600
0600
0600
0600
0E00
0E00
0C00
0C00
0C00
D800
F800
7000
ENDCHAR
STARTCHAR uni04FB
ENCODING 1275
SWIDTH 441 0
DWIDTH 7 0
BBX 9 13 0 -5
BITMAP
7800
7C00
0C00
F800
7800
6180
7F00
7E00
1C00
3C00
6800
7800
7000
ENDCHAR
STARTCHAR uni04FC
ENCODING 1276
SWIDTH 716 0
DWIDTH 11 0
BBX 13 21 0 -6
BITMAP
3830
7C70
CE60
06C0
07C0
0780
0700
0700
0F00
1F00
3B80
3180
7188
E1F8
C0F0
01E0
0360
0640
06C0
07C0
0300
ENDCHAR
STARTCHAR uni04FD
ENCODING 1277
SWIDTH 601 0
DWIDTH 10 0
BBX 11 13 0 -5
BITMAP
3B80
7F80
6D00
0C00
4C00
DC20
FFE0
77C0
0300
0D00
0B00
0E00
0E00
ENDCHAR
STARTCHAR uni04FE
ENCODING 1278
SWIDTH 712 0
DWIDTH 11 0
BBX 13 15 0 0
BITMAP
3830
7C70
CE60
86E0
07C0
0780
0780
3FC0
1FC0
0F00
1F00
3B80
7188
E1F8
C0F0
ENDCHAR
STARTCHAR uni04FF
ENCODING 1279
SWIDTH 529 0
DWIDTH 8 0
BBX 11 8 0 0
BITMAP
3B80
7F80
6D00
1E00
5E60
DC40
FFC0
7780
ENDCHAR
STARTCHAR uni0510
ENCODING 1296
SWIDTH 706 0
DWIDTH 11 0
BBX 10 15 1 0
BITMAP
1F00
3F80
31C0
70C0
70C0
3080
3000
3E00
EE00
C000
C0C0
C0C0
E180
7F80
3E00
ENDCHAR
STARTCHAR uni0511
ENCODING 1297
SWIDTH 392 0
DWIDTH 6 0
BBX 8 8 0 0
BITMAP
38
7C
60
70
71
C3
FE
7C
ENDCHAR
STARTCHAR uni0512
ENCODING 1298
SWIDTH 884 0
DWIDTH 14 0
BBX 16 21 0 -6
BITMAP
0060
0060
00E0
00E0
00E0
01E0
01E0
01E0
0360
0360
0360
C670
CE31
7C3F
781E
003C
0068
00D8
00D8
00F0
0060
ENDCHAR
STARTCHAR uni0513
ENCODING 1299
SWIDTH 631 0
DWIDTH 10 0
BBX 12 13 0 -5
BITMAP
0600
0600
0E00
0E00
DE00
DE10
F7E0
63C0
0380
0780
0D00
0F00
0E00
ENDCHAR
STARTCHAR uni051A
ENCODING 1306
SWIDTH 816 0
DWIDTH 13 0
BBX 13 20 1 -5
BITMAP
0F80
1FC0
38E0
7060
6070
E070
E070
C070
C060
C060
E0E0
60C0
7FC0
3F00
0E00
0700
0308
0398
01F0
00E0
ENDCHAR
STARTCHAR uni051B
ENCODING 1307
SWIDTH 500 0
DWIDTH 8 0
BBX 9 16 1 -7
BITMAP
0400
3E00
7C00
EC00
CC00
DC00
DB80
FB80
FA00
1A00
1A00
1A00
1A00
1E00
1C00
1C00
ENDCHAR
STARTCHAR uni051C
ENCODING 1308
SWIDTH 1217 0
DWIDTH 19 0
BBX 20 15 2 0
BITMAP
60C380
E0C7C0
E0C6C0
C1C4C0
C1C4C0
C1C6C0
C1C780
C3C3F0
C3C1F0
C3C300
C6C300
E6C600
6CEC00
7C7C00
387000
ENDCHAR
STARTCHAR uni051D
ENCODING 1309
SWIDTH 700 0
DWIDTH 11 0
BBX 12 8 1 0
BITMAP
CCC0
CDC0
DDC0
DDF0
DDF0
FF00
EF00
E600
ENDCHAR
STARTCHAR uni0524
ENCODING 1316
SWIDTH 892 0
DWIDTH 14 0
BBX 15 21 1 -6
BITMAP
1FFE
7FFE
CC30
8C30
CC30
CC30
1C30
1C70
1860
1860
1860
1860
187A
187E
181C
0078
00D0
01B0
01B0
01E0
00C0
ENDCHAR
STARTCHAR uni0525
ENCODING 1317
SWIDTH 536 0
DWIDTH 9 0
BBX 9 13 1 -5
BITMAP
4C00
DC00
FC00
EC00
EC00
CC80
CF80
C600
1C00
3400
2C00
3800
3800
ENDCHAR
STARTCHAR uni0526
ENCODING 1318
SWIDTH 818 0
DWIDTH 13 0
BBX 14 21 1 -6
BITMAP
3000
3000
3000
3000
3000
7000
7000
6780
6FC0
70C0
70C0
60C0
E0E4
E1FC
E0F8
00E0
01E0
0360
0360
03C0
0380
ENDCHAR
STARTCHAR uni0527
ENCODING 1319
SWIDTH 542 0
DWIDTH 9 0
BBX 9 21 1 -5
BITMAP
1800
3C00
2C00
6C00
6C00
4800
D800
D000
EC00
DC00
FC00
EC00
EC00
CC80
CF80
C700
0C00
3400
2C00
3800
3800
ENDCHAR
STARTCHAR uni0528
ENCODING 1320
SWIDTH 873 0
DWIDTH 14 0
BBX 18 21 -2 -6
BITMAP
0E0380
1F0780
330680
230C80
030D80
031D80
031F00
0FFE00
0FF800
061800
061800
061840
061CC0
060F80
0E0700
0C0000
0C0000
0C0000
D80000
F80000
700000
ENDCHAR
STARTCHAR uni0529
ENCODING 1321
SWIDTH 475 0
DWIDTH 8 0
BBX 12 13 -2 -5
BITMAP
0880
1980
1980
1F80
1F90
1930
19E0
19C0
1800
1800
D800
F000
7000
ENDCHAR
STARTCHAR uni052E
ENCODING 1326
SWIDTH 884 0
DWIDTH 14 0
BBX 16 21 0 -6
BITMAP
0060
0060
00E0
00E0
00E0
01E0
01E0
01E0
0360
0360
0360
C670
CE31
7C3F
781E
003C
0068
00D8
00D8
00F0
0060
ENDCHAR
STARTCHAR uni052F
ENCODING 1327
SWIDTH 631 0
DWIDTH 10 0
BBX 12 13 0 -5
BITMAP
0600
0600
0E00
0E00
DE00
DE10
F7E0
63C0
0380
0780
0D00
0F00
0E00
ENDCHAR
STARTCHAR Wgrave
ENCODING 7808
SWIDTH 1217 0
DWIDTH 19 0
BBX 20 19 2 0
BITMAP
060000
070000
038000
00C000
60C380
E0C7C0
E0C6C0
C1C4C0
C1C4C0
C1C6C0
C1C780
C3C3F0
C3C1F0
C3C300
C6C300
E6C600
6CEC00
7C7C00
387000
ENDCHAR
STARTCHAR wgrave
ENCODING 7809
SWIDTH 700 0
DWIDTH 11 0
BBX 12 14 1 0
BITMAP
3000
3000
1800
0800
0C00
0000
CCC0
CDC0
DDC0
DDF0
DDF0
FF00
EF00
E600
ENDCHAR
STARTCHAR Wacute
ENCODING 7810
SWIDTH 1217 0
DWIDTH 19 0
BBX 20 19 2 0
BITMAP
000800
003800
007000
004000
60C380
E0C7C0
E0C6C0
C1C4C0
C1C4C0
C1C6C0
C1C780
C3C3F0
C3C1F0
C3C300
C6C300
E6C600
6CEC00
7C7C00
387000
ENDCHAR
STARTCHAR wacute
ENCODING 7811
SWIDTH 700 0
DWIDTH 11 0
BBX 12 14 1 0
BITMAP
0300
0300
0600
0600
0400
0000
CCC0
CDC0
DDC0
DDF0
DDF0
FF00
EF00
E600
ENDCHAR
STARTCHAR Wdieresis
ENCODING 7812
SWIDTH 1217 0
DWIDTH 19 0
BBX 20 18 2 0
BITMAP
01B000
01B000
01B000
60C380
E0C7C0
E0C6C0
C1C4C0
C1C4C0
C1C6C0
C1C780
C3C3F0
C3C1F0
C3C300
C6C300
E6C600
6CEC00
7C7C00
387000
ENDCHAR
STARTCHAR wdieresis
ENCODING 7813
SWIDTH 700 0
DWIDTH 11 0
BBX 12 12 1 0
BITMAP
1300
3B00
1300
0000
CCC0
CDC0
DDC0
DDF0
DDF0
FF00
EF00
E600
ENDCHAR
STARTCHAR uni1E9E
ENCODING 7838
SWIDTH 843 0
DWIDTH 13 0
BBX 12 15 1 0
BITMAP
31E0
37F0
3670
3C30
6870
78E0
7380
73C0
70E0
6070
6070
6070
E0E0
E1C0
C780
ENDCHAR
STARTCHAR uni1EA0
ENCODING 7840
SWIDTH 786 0
DWIDTH 13 0
BBX 14 19 1 -4
BITMAP
03F0
0FF0
1C00
3860
70E0
60C0
E0C0
C0C0
C1C0
C1C0
C1C0
C3C4
E3CC
7EF8
3CF0
0000
0C00
1C00
0C00
ENDCHAR
STARTCHAR uni1EA1
ENCODING 7841
SWIDTH 470 0
DWIDTH 8 0
BBX 9 12 1 -4
BITMAP
3000
7C00
EC00
CC00
D880
D980
FF00
EE00
0000
6000
6000
6000
ENDCHAR
STARTCHAR uni1EA2
ENCODING 7842
SWIDTH 786 0
DWIDTH 13 0
BBX 14 19 1 0
BITMAP
01E0
01E0
00E0
00C0
03F0
0FF0
1C00
3860
70E0
60C0
E0C0
C0C0
C1C0
C1C0
C1C0
C3C4
E3CC
7EF8
3CF0
ENDCHAR
STARTCHAR uni1EA3
ENCODING 7843
SWIDTH 470 0
DWIDTH 8 0
BBX 9 14 1 0
BITMAP
1C00
1C00
0400
1C00
1800
0000
3000
7C00
EC00
CC00
D880
D980
FF00
EE00
ENDCHAR
STARTCHAR uni1EA4
ENCODING 7844
SWIDTH 786 0
DWIDTH 13 0
BBX 14 24 1 0
BITMAP
0018
0038
0070
0040
0040
01C0
01E0
0360
0320
03F0
0FF0
1C00
3860
70E0
60C0
E0C0
C0C0
C1C0
C1C0
C1C0
C3C4
E3CC
7EF8
3CF0
ENDCHAR
STARTCHAR uni1EA5
ENCODING 7845
SWIDTH 470 0
DWIDTH 8 0
BBX 9 15 1 0
BITMAP
0180
0380
0A00
1C00
3400
6600
0000
3000
7C00
EC00
CC00
D880
D980
FF00
EE00
ENDCHAR
STARTCHAR uni1EA6
ENCODING 7846
SWIDTH 786 0
DWIDTH 13 0
BBX 14 24 1 0
BITMAP
0600
0700
0380
00C0
0040
01C0
01E0
0360
0320
03F0
0FF0
1C00
3860
70E0
60C0
E0C0
C0C0
C1C0
C1C0
C1C0
C3C4
E3CC
7EF8
3CF0
ENDCHAR
STARTCHAR uni1EA7
ENCODING 7847
SWIDTH 470 0
DWIDTH 8 0
BBX 9 15 1 0
BITMAP
C000
E000
2800
1C00
3400
6600
0000
3000
7C00
EC00
CC00
D880
D980
FF00
EE00
ENDCHAR
STARTCHAR uni1EA8
ENCODING 7848
SWIDTH 786 0
DWIDTH 13 0
BBX 14 24 1 0
BITMAP
00E0
00F0
0070
00E0
0040
01C0
01E0
0360
0320
03F0
0FF0
1C00
3860
70E0
60C0
E0C0
C0C0
C1C0
C1C0
C1C0
C3C4
E3CC
7EF8
3CF0
ENDCHAR
STARTCHAR uni1EA9
ENCODING 7849
SWIDTH 470 0
DWIDTH 8 0
BBX 9 15 1 0
BITMAP
0380
0080
1F80
3C00
6600
0000
0000
3000
7C00
EC00
CC00
D880
D980
FF00
EE00
ENDCHAR
STARTCHAR uni1EAA
ENCODING 7850
SWIDTH 786 0
DWIDTH 13 0
BBX 14 24 1 0
BITMAP
0080
01D8
03F8
0230
0040
01C0
01E0
0360
0320
03F0
0FF0
1C00
3860
70E0
60C0
E0C0
C0C0
C1C0
C1C0
C1C0
C3C4
E3CC
7EF8
3CF0
ENDCHAR
STARTCHAR uni1EAB
ENCODING 7851
SWIDTH 470 0
DWIDTH 8 0
BBX 9 15 1 0
BITMAP
3300
2E00
0000
1C00
3400
6600
0000
3000
7C00
EC00
CC00
D880
D980
FF00
EE00
ENDCHAR
STARTCHAR uni1EAC
ENCODING 7852
SWIDTH 786 0
DWIDTH 13 0
BBX 14 24 1 -4
BITMAP
0040
01C0
01E0
0360
0320
03F0
0FF0
1C00
3860
70E0
60C0
E0C0
C0C0
C1C0
C1C0
C1C0
C3C4
E3CC
7EF8
3CF0
0000
0C00
1C00
0C00
ENDCHAR
STARTCHAR uni1EAD
ENCODING 7853
SWIDTH 470 0
DWIDTH 8 0
BBX 9 19 1 -4
BITMAP
0800
1C00
1400
3400
2600
6600
0000
3000
7C00
EC00
CC00
D880
D980
FF00
EE00
0000
6000
6000
6000
ENDCHAR
STARTCHAR uni1EAE
ENCODING 7854
SWIDTH 786 0
DWIDTH 13 0
BBX 14 21 1 0
BITMAP
0020
0060
02D0
0730
03F0
01C0
03F0
0FF0
1C00
3860
70E0
60C0
E0C0
C0C0
C1C0
C1C0
C1C0
C3C4
E3CC
7EF8
3CF0
ENDCHAR
STARTCHAR uni1EAF
ENCODING 7855
SWIDTH 470 0
DWIDTH 8 0
BBX 9 15 1 0
BITMAP
0600
0E00
4A00
6600
7E00
3C00
0000
3000
7C00
EC00
CC00
D880
D980
FF00
EE00
ENDCHAR
STARTCHAR uni1EB0
ENCODING 7856
SWIDTH 786 0
DWIDTH 13 0
BBX 14 21 1 0
BITMAP
0100
0180
02D0
0730
03F0
00C0
03F0
0FF0
1C00
3860
70E0
60C0
E0C0
C0C0
C1C0
C1C0
C1C0
C3C4
E3CC
7EF8
3CF0
ENDCHAR
STARTCHAR uni1EB1
ENCODING 7857
SWIDTH 470 0
DWIDTH 8 0
BBX 9 15 1 0
BITMAP
3000
3800
4A00
6600
7E00
1800
0000
3000
7C00
EC00
CC00
D880
D980
FF00
EE00
ENDCHAR
STARTCHAR uni1EB2
ENCODING 7858
SWIDTH 786 0
DWIDTH 13 0
BBX 14 21 1 0
BITMAP
01C0
0060
00C0
0630
03F0
01E0
03F0
0FF0
1C00
3860
70E0
60C0
E0C0
C0C0
C1C0
C1C0
C1C0
C3C4
E3CC
7EF8
3CF0
ENDCHAR
STARTCHAR uni1EB3
ENCODING 7859
SWIDTH 470 0
DWIDTH 8 0
BBX 9 15 1 0
BITMAP
1C00
0400
1800
6200
7E00
3C00
0000
3000
7C00
EC00
CC00
D880
D980
FF00
EE00
ENDCHAR
STARTCHAR uni1EB4
ENCODING 7860
SWIDTH 786 0
DWIDTH 13 0
BBX 14 22 1 0
BITMAP
0110
01D0
03F0
0220
0610
03F0
01E0
03F0
0FF0
1C00
3860
70E0
60C0
E0C0
C0C0
C1C0
C1C0
C1C0
C3C4
E3CC
7EF8
3CF0
ENDCHAR
STARTCHAR uni1EB5
ENCODING 7861
SWIDTH 470 0
DWIDTH 8 0
BBX 9 16 1 0
BITMAP
1100
3B00
6E00
4400
6200
7E00
3C00
0000
3000
7C00
EC00
CC00
D880
D980
FF00
EE00
ENDCHAR
STARTCHAR uni1EB6
ENCODING 7862
SWIDTH 786 0
DWIDTH 13 0
BBX 14 22 1 -4
BITMAP
0630
03F0
01E0
03F0
0FF0
1C00
3860
70E0
60C0
E0C0
C0C0
C1C0
C1C0
C1C0
C3C4
E3CC
7EF8
3CF0
0000
0C00
1C00
0C00
ENDCHAR
STARTCHAR uni1EB7
ENCODING 7863
SWIDTH 470 0
DWIDTH 8 0
BBX 9 17 1 -4
BITMAP
6200
6600
7E00
3C00
0000
3000
7C00
EC00
CC00
D880
D980
FF00
EE00
0000
6000
6000
6000
ENDCHAR
STARTCHAR uni1EB8
ENCODING 7864
SWIDTH 686 0
DWIDTH 11 0
BBX 13 19 0 -4
BITMAP
07C0
1FE0
3860
3860
3060
3820
1F00
1F00
7000
6000
6000
E000
7018
3FF8
1FE0
0000
0600
0E00
0E00
ENDCHAR
STARTCHAR uni1EB9
ENCODING 7865
SWIDTH 393 0
DWIDTH 6 0
BBX 7 12 1 -4
BITMAP
78
F8
D8
D8
F2
C6
FE
78
00
30
70
70
ENDCHAR
STARTCHAR uni1EBA
ENCODING 7866
SWIDTH 686 0
DWIDTH 11 0
BBX 13 19 0 0
BITMAP
03C0
03C0
01C0
0180
07C0
1FE0
3860
3860
3060
3820
1F00
1F00
7000
6000
6000
E000
7018
3FF8
1FE0
ENDCHAR
STARTCHAR uni1EBB
ENCODING 7867
SWIDTH 393 0
DWIDTH 6 0
BBX 7 14 1 0
BITMAP
38
3C
0C
18
38
00
78
F8
D8
D8
F2
C6
FE
78
ENDCHAR
STARTCHAR uni1EBC
ENCODING 7868
SWIDTH 686 0
DWIDTH 11 0
BBX 13 19 0 0
BITMAP
0200
0720
0DE0
08C0
07C0
1FE0
3860
3860
3060
3820
1F00
1F00
7000
6000
6000
E000
7018
3FF8
1FE0
ENDCHAR
STARTCHAR uni1EBD
ENCODING 7869
SWIDTH 393 0
DWIDTH 6 0
BBX 7 13 1 0
BITMAP
20
76
FE
8C
00
78
F8
D8
D8
F2
C6
FE
78
ENDCHAR
STARTCHAR uni1EBE
ENCODING 7870
SWIDTH 686 0
DWIDTH 11 0
BBX 13 21 0 0
BITMAP
0018
0030
00A0
03C0
06C0
0640
07C0
1FE0
3860
3860
3060
3820
1F00
1F00
7000
6000
6000
E000
7018
3FF8
1FE0
ENDCHAR
STARTCHAR uni1EBF
ENCODING 7871
SWIDTH 393 0
DWIDTH 6 0
BBX 8 15 1 0
BITMAP
01
03
14
38
6C
4C
00
78
F8
D8
D8
F2
C6
FE
78
ENDCHAR
STARTCHAR uni1EC0
ENCODING 7872
SWIDTH 686 0
DWIDTH 11 0
BBX 13 21 0 0
BITMAP
1800
0C00
0480
03C0
06C0
0640
07C0
1FE0
3860
3860
3060
3820
1F00
1F00
7000
6000
6000
E000
7018
3FF8
1FE0
ENDCHAR
STARTCHAR uni1EC1
ENCODING 7873
SWIDTH 393 0
DWIDTH 6 0
BBX 8 15 0 0
BITMAP
C0
E0
28
1C
36
26
00
3C
7C
6C
6C
79
63
7F
3C
ENDCHAR
STARTCHAR uni1EC2
ENCODING 7874
SWIDTH 686 0
DWIDTH 11 0
BBX 13 21 0 0
BITMAP
0070
0018
01B0
03C0
06C0
0000
07C0
1FE0
3860
3860
3060
3820
1F00
1F00
7000
6000
6000
E000
7018
3FF8
1FE0
ENDCHAR
STARTCHAR uni1EC3
ENCODING 7875
SWIDTH 393 0
DWIDTH 6 0
BBX 8 15 1 0
BITMAP
07
01
3B
28
6C
00
00
78
F8
D8
D8
F2
C6
FE
78
ENDCHAR
STARTCHAR uni1EC4
ENCODING 7876
SWIDTH 686 0
DWIDTH 11 0
BBX 13 21 0 0
BITMAP
0320
07E0
0000
0380
02C0
0640
07C0
1FE0
3860
3860
3060
3820
1F00
1F00
7000
6000
6000
E000
7018
3FF8
1FE0
ENDCHAR
STARTCHAR uni1EC5
ENCODING 7877
SWIDTH 393 0
DWIDTH 6 0
BBX 7 15 1 0
BITMAP
32
7C
00
38
6C
4C
00
78
F8
D8
D8
F2
C6
FE
78
ENDCHAR
STARTCHAR uni1EC6
ENCODING 7878
SWIDTH 686 0
DWIDTH 11 0
BBX 13 24 0 -4
BITMAP
0080
0380
03C0
06C0
0640
07C0
1FE0
3860
3860
3060
3820
1F00
1F00
7000
6000
6000
E000
7018
3FF8
1FE0
0000
0600
0E00
0E00
ENDCHAR
STARTCHAR uni1EC7
ENCODING 7879
SWIDTH 393 0
DWIDTH 6 0
BBX 7 19 1 -4
BITMAP
08
18
38
6C
6C
4C
00
78
F8
D8
D8
F2
C6
FE
78
00
30
70
70
ENDCHAR
STARTCHAR uni1EC8
ENCODING 7880
SWIDTH 495 0
DWIDTH 8 0
BBX 9 19 0 0
BITMAP
0E00
0F00
0700
0600
3F80
3F80
0C00
0C00
0C00
1C00
1C00
1800
1800
1800
1800
1800
1800
FE00
FE00
ENDCHAR
STARTCHAR uni1EC9
ENCODING 7881
SWIDTH 246 0
DWIDTH 4 0
BBX 5 14 1 0
BITMAP
E0
F0
10
70
60
00
40
C0
C0
C0
C8
D8
F0
E0
ENDCHAR
STARTCHAR uni1ECA
ENCODING 7882
SWIDTH 495 0
DWIDTH 8 0
BBX 9 19 0 -4
BITMAP
3F80
3F80
0C00
0C00
0C00
1C00
1C00
1800
1800
1800
1800
1800
1800
FE00
FE00
0000
3000
3800
3000
ENDCHAR
STARTCHAR uni1ECB
ENCODING 7883
SWIDTH 246 0
DWIDTH 4 0
BBX 6 16 0 -4
BITMAP
30
30
30
00
20
60
60
60
64
6C
78
70
00
60
E0
E0
ENDCHAR
STARTCHAR uni1ECC
ENCODING 7884
SWIDTH 816 0
DWIDTH 13 0
BBX 12 19 1 -4
BITMAP
0F80
1FC0
38E0
7060
6070
E070
E070
C070
C070
C060
E060
E0E0
71C0
3F80
1E00
0000
0C00
1C00
0C00
ENDCHAR
STARTCHAR uni1ECD
ENCODING 7885
SWIDTH 451 0
DWIDTH 7 0
BBX 8 12 1 -4
BITMAP
78
F8
DC
DF
CF
CC
F8
70
00
60
70
60
ENDCHAR
STARTCHAR uni1ECE
ENCODING 7886
SWIDTH 816 0
DWIDTH 13 0
BBX 12 19 1 0
BITMAP
0380
0780
0380
0380
0F80
1FC0
38E0
7060
6070
E070
E070
C070
C070
C060
E060
E0E0
71C0
3F80
1E00
ENDCHAR
STARTCHAR uni1ECF
ENCODING 7887
SWIDTH 451 0
DWIDTH 7 0
BBX 8 14 1 0
BITMAP
38
38
0C
38
38
00
78
F8
DC
DF
CF
CC
F8
70
ENDCHAR
STARTCHAR uni1ED0
ENCODING 7888
SWIDTH 816 0
DWIDTH 13 0
BBX 12 21 1 0
BITMAP
0030
0070
0140
0380
0780
0CC0
0F80
1FC0
38E0
7060
6070
E070
E070
C070
C070
C060
E060
E0E0
71C0
3F80
1E00
ENDCHAR
STARTCHAR uni1ED1
ENCODING 7889
SWIDTH 451 0
DWIDTH 7 0
BBX 8 15 1 0
BITMAP
03
07
14
38
6C
CC
00
78
F8
DC
DF
CF
CC
F8
70
ENDCHAR
STARTCHAR uni1ED2
ENCODING 7890
SWIDTH 816 0
DWIDTH 13 0
BBX 12 21 1 0
BITMAP
1000
1800
0500
0380
0780
0CC0
0F80
1FC0
38E0
7060
6070
E070
E070
C070
C070
C060
E060
E0E0
71C0
3F80
1E00
ENDCHAR
STARTCHAR uni1ED3
ENCODING 7891
SWIDTH 451 0
DWIDTH 7 0
BBX 9 15 0 0
BITMAP
C000
E000
2800
1C00
3600
6600
0000
3C00
7C00
6E00
6F80
6780
6600
7C00
3800
ENDCHAR
STARTCHAR uni1ED4
ENCODING 7892
SWIDTH 816 0
DWIDTH 13 0
BBX 12 21 1 0
BITMAP
0070
0010
03F0
0780
0CC0
0000
0F80
1FC0
38E0
7060
6070
E070
E070
C070
C070
C060
E060
E0E0
71C0
3F80
1E00
ENDCHAR
STARTCHAR uni1ED5
ENCODING 7893
SWIDTH 451 0
DWIDTH 7 0
BBX 8 15 1 0
BITMAP
07
01
3B
68
EC
00
00
78
F8
DC
DF
CF
CC
F8
70
ENDCHAR
STARTCHAR uni1ED6
ENCODING 7894
SWIDTH 816 0
DWIDTH 13 0
BBX 12 21 1 0
BITMAP
0640
0DC0
0000
0380
0780
0CC0
0F80
1FC0
38E0
7060
6070
E070
E070
C070
C070
C060
E060
E0E0
71C0
3F80
1E00
ENDCHAR
STARTCHAR uni1ED7
ENCODING 7895
SWIDTH 451 0
DWIDTH 7 0
BBX 8 15 1 0
BITMAP
36
5C
00
38
6C
CC
00
78
F8
DC
DF
CF
CC
F8
70
ENDCHAR
STARTCHAR uni1ED8
ENCODING 7896
SWIDTH 816 0
DWIDTH 13 0
BBX 12 24 1 -4
BITMAP
0100
0380
0780
0C80
0CC0
0F80
1FC0
38E0
7060
6070
E070
E070
C070
C070
C060
E060
E0E0
71C0
3F80
1E00
0000
0C00
1C00
0C00
ENDCHAR
STARTCHAR uni1ED9
ENCODING 7897
SWIDTH 451 0
DWIDTH 7 0
BBX 8 19 1 -4
BITMAP
10
38
38
6C
6C
CC
00
78
F8
DC
DF
CF
CC
F8
70
00
60
70
60
ENDCHAR
STARTCHAR uni1EDA
ENCODING 7898
SWIDTH 816 0
DWIDTH 13 0
BBX 13 19 1 0
BITMAP
0060
00E0
01D8
0318
0FF0
1FE0
38E0
7060
6070
E070
E070
C070
C070
C060
E060
E0C0
71C0
3F80
1E00
ENDCHAR
STARTCHAR uni1EDB
ENCODING 7899
SWIDTH 451 0
DWIDTH 7 0
BBX 8 14 1 0
BITMAP
0C
0C
18
10
32
06
7E
F8
DC
DF
CF
CC
F8
70
ENDCHAR
STARTCHAR uni1EDC
ENCODING 7900
SWIDTH 816 0
DWIDTH 13 0
BBX 13 19 1 0
BITMAP
1000
3C00
0E18
0218
0FF0
1FE0
38E0
7060
6070
E070
E070
C070
C070
C060
E060
E0C0
71C0
3F80
1E00
ENDCHAR
STARTCHAR uni1EDD
ENCODING 7901
SWIDTH 451 0
DWIDTH 7 0
BBX 8 14 1 0
BITMAP
C0
C0
60
60
22
06
7E
F8
DC
DF
CF
CC
F8
70
ENDCHAR
STARTCHAR uni1EDE
ENCODING 7902
SWIDTH 816 0
DWIDTH 13 0
BBX 13 19 1 0
BITMAP
0380
0780
0398
0398
0FF0
1FE0
38E0
7060
6070
E070
E070
C070
C070
C060
E060
E0C0
71C0
3F80
1E00
ENDCHAR
STARTCHAR uni1EDF
ENCODING 7903
SWIDTH 451 0
DWIDTH 7 0
BBX 8 14 1 0
BITMAP
38
78
08
38
32
06
7E
F8
DC
DF
CF
CC
F8
70
ENDCHAR
STARTCHAR uni1EE0
ENCODING 7904
SWIDTH 816 0
DWIDTH 13 0
BBX 13 19 1 0
BITMAP
0400
0E60
0FD8
09D8
0FF0
1FE0
38E0
7060
6070
E070
E070
C070
C070
C060
E060
E0C0
71C0
3F80
1E00
ENDCHAR
STARTCHAR uni1EE1
ENCODING 7905
SWIDTH 451 0
DWIDTH 7 0
BBX 8 13 1 0
BITMAP
44
64
FC
9A
06
7E
F8
DC
DF
CF
CC
F8
70
ENDCHAR
STARTCHAR uni1EE2
ENCODING 7906
SWIDTH 816 0
DWIDTH 13 0
BBX 13 21 1 -4
BITMAP
0018
0018
0FF0
1FE0
38E0
7060
6070
E070
E070
C070
C070
C060
E060
E0C0
71C0
3F80
1E00
0000
0C00
1C00
0C00
ENDCHAR
STARTCHAR uni1EE3
ENCODING 7907
SWIDTH 451 0
DWIDTH 7 0
BBX 8 14 1 -4
BITMAP
02
06
7E
F8
DC
DF
CF
CC
F8
70
00
60
70
60
ENDCHAR
STARTCHAR uni1EE4
ENCODING 7908
SWIDTH 890 0
DWIDTH 14 0
BBX 16 19 0 -4
BITMAP
3C18
7C18
CC18
8C18
0C18
0C38
1C38
1C38
1830
1870
1870
18B1
19B3
1F3E
0E1C
0000
0300
0700
0700
ENDCHAR
STARTCHAR uni1EE5
ENCODING 7909
SWIDTH 462 0
DWIDTH 7 0
BBX 8 12 1 -4
BITMAP
4C
CC
CC
D8
D9
F9
FF
CE
00
60
70
60
ENDCHAR
STARTCHAR uni1EE6
ENCODING 7910
SWIDTH 890 0
DWIDTH 14 0
BBX 16 19 0 0
BITMAP
01E0
01E0
00E0
00C0
3C18
7C18
CC18
8C18
0C18
0C38
1C38
1C38
1830
1870
1870
18B1
19B3
1F3E
0E1C
ENDCHAR
STARTCHAR uni1EE7
ENCODING 7911
SWIDTH 462 0
DWIDTH 7 0
BBX 8 14 1 0
BITMAP
38
3C
04
1C
18
00
4C
CC
CC
D8
D9
F9
FF
CE
ENDCHAR
STARTCHAR uni1EE8
ENCODING 7912
SWIDTH 890 0
DWIDTH 14 0
BBX 16 19 0 0
BITMAP
0018
0038
0073
00C3
3C1F
7C1E
CC18
8C18
0C18
0C38
1C38
1C38
1830
1870
1870
18B1
19B3
1F3E
0E1C
ENDCHAR
STARTCHAR uni1EE9
ENCODING 7913
SWIDTH 512 0
DWIDTH 8 0
BBX 9 14 1 0
BITMAP
0600
0E00
0C00
0800
1100
0300
4F00
CC00
CC00
D800
D880
F980
FF00
CE00
ENDCHAR
STARTCHAR uni1EEA
ENCODING 7914
SWIDTH 890 0
DWIDTH 14 0
BBX 16 19 0 0
BITMAP
0C00
0E00
0303
0183
3C1F
7C1E
CC18
8C18
0C18
0C38
1C38
1C38
1830
1870
1870
18B1
19B3
1F3E
0E1C
ENDCHAR
STARTCHAR uni1EEB
ENCODING 7915
SWIDTH 512 0
DWIDTH 8 0
BBX 9 14 1 0
BITMAP
6000
6000
3000
3000
1100
0300
4F00
CC00
CC00
D800
D880
F980
FF00
CE00
ENDCHAR
STARTCHAR uni1EEC
ENCODING 7916
SWIDTH 890 0
DWIDTH 14 0
BBX 16 19 0 0
BITMAP
01E0
01E0
00E3
00C3
3C1F
7C1E
CC18
8C18
0C18
0C38
1C38
1C38
1830
1870
1870
18B1
19B3
1F3E
0E1C
ENDCHAR
STARTCHAR uni1EED
ENCODING 7917
SWIDTH 512 0
DWIDTH 8 0
BBX 9 14 1 0
BITMAP
3800
3C00
0400
1C00
1900
0300
4F00
CC00
CC00
D800
D880
F980
FF00
CE00
ENDCHAR
STARTCHAR uni1EEE
ENCODING 7918
SWIDTH 890 0
DWIDTH 14 0
BBX 16 19 0 0
BITMAP
0100
0390
06F3
0263
3C1F
7C1E
CC18
8C18
0C18
0C38
1C38
1C38
1830
1870
1870
18B1
19B3
1F3E
0E1C
ENDCHAR
STARTCHAR uni1EEF
ENCODING 7919
SWIDTH 512 0
DWIDTH 8 0
BBX 9 13 1 0
BITMAP
2200
7600
7C00
4D00
0300
4F00
CC00
CC00
D800
D880
F980
FF00
CE00
ENDCHAR
STARTCHAR uni1EF0
ENCODING 7920
SWIDTH 890 0
DWIDTH 14 0
BBX 16 21 0 -4
BITMAP
0003
0003
3C1F
7C1E
CC18
8C18
0C18
0C38
1C38
1C38
1830
1870
1870
18B1
19B3
1F3E
0E1C
0000
0300
0700
0700
ENDCHAR
STARTCHAR uni1EF1
ENCODING 7921
SWIDTH 512 0
DWIDTH 8 0
BBX 9 14 1 -4
BITMAP
0100
0300
4F00
CC00
CC00
D800
D880
F980
FF00
CE00
0000
6000
7000
6000
ENDCHAR
STARTCHAR Ygrave
ENCODING 7922
SWIDTH 851 0
DWIDTH 14 0
BBX 15 24 0 -5
BITMAP
0400
0F00
0380
0080
3C18
7C18
CC18
8C18
0C18
0C38
1C38
1878
1870
18F0
1FB6
0F3E
00F8
03F0
0730
0E60
0C60
0CE0
0FC0
0780
ENDCHAR
STARTCHAR ygrave
ENCODING 7923
SWIDTH 479 0
DWIDTH 8 0
BBX 9 22 0 -8
BITMAP
3000
3000
1800
1800
0800
0000
2600
6600
6600
6E00
6C80
7D80
7F00
6E00
1C00
3C00
6800
5800
D800
D000
F000
E000
ENDCHAR
STARTCHAR uni1EF4
ENCODING 7924
SWIDTH 851 0
DWIDTH 14 0
BBX 15 21 0 -6
BITMAP
3C18
7C18
CC18
8C18
0C18
0C38
1C38
1878
1870
18F0
1FB6
0F3E
00F8
03F0
0730
0E60
0C60
0CE0
0FD8
079C
0018
ENDCHAR
STARTCHAR uni1EF5
ENCODING 7925
SWIDTH 479 0
DWIDTH 8 0
BBX 9 16 0 -8
BITMAP
2600
6600
6600
6E00
6C80
7D80
7F00
6E00
1C00
3C00
6800
5800
D800
D600
F700
E600
ENDCHAR
STARTCHAR uni1EF6
ENCODING 7926
SWIDTH 851 0
DWIDTH 14 0
BBX 15 24 0 -5
BITMAP
00E0
01E0
00E0
00E0
3C18
7C18
CC18
8C18
0C18
0C38
1C38
1878
1870
18F0
1FB6
0F3E
00F8
03F0
0730
0E60
0C60
0CE0
0FC0
0780
ENDCHAR
STARTCHAR uni1EF7
ENCODING 7927
SWIDTH 479 0
DWIDTH 8 0
BBX 9 22 0 -8
BITMAP
1C00
1E00
0200
0E00
0C00
0000
2600
6600
6600
6E00
6C80
7D80
7F00
6E00
1C00
3C00
6800
5800
D800
D000
F000
E000
ENDCHAR
STARTCHAR uni1EF8
ENCODING 7928
SWIDTH 851 0
DWIDTH 14 0
BBX 15 24 0 -5
BITMAP
0100
0398
03F0
0270
3C18
7C18
CC18
8C18
0C18
0C38
1C38
1878
1870
18F0
1FB6
0F3E
00F8
03F0
0730
0E60
0C60
0CE0
0FC0
0780
ENDCHAR
STARTCHAR uni1EF9
ENCODING 7929
SWIDTH 479 0
DWIDTH 8 0
BBX 9 21 0 -8
BITMAP
1000
3900
6F00
2600
0000
2600
6600
6600
6E00
6C80
7D80
7F00
6E00
1C00
3C00
6800
5800
D800
D000
F000
E000
ENDCHAR
STARTCHAR endash
ENCODING 8211
SWIDTH 484 0
DWIDTH 8 0
BBX 6 2 1 4
BITMAP
FC
FC
ENDCHAR
STARTCHAR emdash
ENCODING 8212
SWIDTH 620 0
DWIDTH 10 0
BBX 8 2 1 4
BITMAP
FF
FF
ENDCHAR
STARTCHAR quoteleft
ENCODING 8216
SWIDTH 237 0
DWIDTH 4 0
BBX 3 6 2 10
BITMAP
60
40
C0
C0
C0
C0
ENDCHAR
STARTCHAR quoteright
ENCODING 8217
SWIDTH 236 0
DWIDTH 4 0
BBX 3 6 2 10
BITMAP
60
E0
E0
C0
C0
80
ENDCHAR
STARTCHAR quotesinglbase
ENCODING 8218
SWIDTH 257 0
DWIDTH 4 0
BBX 3 6 0 -3
BITMAP
60
60
60
60
C0
C0
ENDCHAR
STARTCHAR quotedblleft
ENCODING 8220
SWIDTH 457 0
DWIDTH 7 0
BBX 6 6 2 10
BITMAP
64
4C
CC
DC
DC
D8
ENDCHAR
STARTCHAR quotedblright
ENCODING 8221
SWIDTH 456 0
DWIDTH 7 0
BBX 6 6 2 10
BITMAP
6C
EC
EC
CC
D8
98
ENDCHAR
STARTCHAR quotedblbase
ENCODING 8222
SWIDTH 477 0
DWIDTH 8 0
BBX 7 6 0 -3
BITMAP
66
6E
6C
6C
CC
C8
ENDCHAR
STARTCHAR dagger
ENCODING 8224
SWIDTH 588 0
DWIDTH 9 0
BBX 7 12 2 4
BITMAP
18
18
18
FE
FE
10
30
30
30
30
30
20
ENDCHAR
STARTCHAR daggerdbl
ENCODING 8225
SWIDTH 588 0
DWIDTH 9 0
BBX 7 12 2 4
BITMAP
18
18
18
FE
FE
10
30
FE
FE
30
30
20
ENDCHAR
STARTCHAR bullet
ENCODING 8226
SWIDTH 512 0
DWIDTH 8 0
BBX 5 5 2 1
BITMAP
70
F8
F8
F0
F0
ENDCHAR
STARTCHAR ellipsis
ENCODING 8230
SWIDTH 777 0
DWIDTH 12 0
BBX 12 3 0 0
BITMAP
6670
E770
6660
ENDCHAR
STARTCHAR perthousand
ENCODING 8240
SWIDTH 1277 0
DWIDTH 20 0
BBX 19 13 1 0
BITMAP
704000
F8C000
D9C000
DF8000
DF8000
FB0000
262080
06F9E0
0CDB60
0C9A60
189A60
18FBE0
1071C0
ENDCHAR
STARTCHAR guilsinglleft
ENCODING 8249
SWIDTH 350 0
DWIDTH 6 0
BBX 5 7 0 1
BITMAP
18
38
70
E0
70
38
18
ENDCHAR
STARTCHAR guilsinglright
ENCODING 8250
SWIDTH 350 0
DWIDTH 6 0
BBX 4 7 1 1
BITMAP
C0
E0
70
30
70
E0
C0
ENDCHAR
STARTCHAR fraction
ENCODING 8260
SWIDTH 200 0
DWIDTH 3 0
BBX 6 11 -1 2
BITMAP
04
0C
0C
18
38
30
60
60
C0
C0
80
ENDCHAR
STARTCHAR uni2074
ENCODING 8308
SWIDTH 450 0
DWIDTH 7 0
BBX 7 8 1 6
BITMAP
30
34
6C
6C
FC
FE
18
18
ENDCHAR
STARTCHAR colonmonetary
ENCODING 8353
SWIDTH 517 0
DWIDTH 8 0
BBX 9 14 0 -2
BITMAP
0280
0280
1F80
3F00
3700
6B00
6A00
7400
7400
6900
3F00
5E00
5000
A000
ENDCHAR
STARTCHAR franc
ENCODING 8355
SWIDTH 750 0
DWIDTH 12 0
BBX 11 10 1 0
BITMAP
FF80
FF80
60C0
FDC0
FFC0
CEE0
CEC0
CE00
CC00
CC00
ENDCHAR
STARTCHAR lira
ENCODING 8356
SWIDTH 525 0
DWIDTH 8 0
BBX 8 10 0 0
BITMAP
0E
1F
33
31
7C
20
FC
60
FF
FF
ENDCHAR
STARTCHAR uni20A6
ENCODING 8358
SWIDTH 672 0
DWIDTH 11 0
BBX 11 10 0 0
BITMAP
30C0
38C0
38C0
3CC0
7FE0
2780
FFC0
6380
6180
6180
ENDCHAR
STARTCHAR peseta
ENCODING 8359
SWIDTH 1085 0
DWIDTH 17 0
BBX 16 11 1 0
BITMAP
70C0
FCC0
6CC0
4FF6
CFF6
CD86
DD8E
F98F
C19B
C1FF
80EE
ENDCHAR
STARTCHAR uni20A9
ENCODING 8361
SWIDTH 775 0
DWIDTH 12 0
BBX 13 11 0 0
BITMAP
2210
3330
7FF8
3720
FFF8
3760
3740
3FC0
3BC0
3B80
1180
ENDCHAR
STARTCHAR dong
ENCODING 8363
SWIDTH 463 0
DWIDTH 7 0
BBX 9 16 0 -3
BITMAP
0300
0300
3F80
7F00
0600
1E00
3E00
6600
6600
6C00
EC00
7C00
7C00
0000
FE00
FE00
ENDCHAR
STARTCHAR Euro
ENCODING 8364
SWIDTH 552 0
DWIDTH 9 0
BBX 9 10 0 0
BITMAP
0F00
1F00
3180
3180
FC00
6000
FC00
3100
3F00
1E00
ENDCHAR
STARTCHAR uni20AD
ENCODING 8365
SWIDTH 590 0
DWIDTH 9 0
BBX 10 10 0 0
BITMAP
3180
3180
3300
3600
FF80
6C00
6600
6600
63C0
6380
ENDCHAR
STARTCHAR uni20AE
ENCODING 8366
SWIDTH 513 0
DWIDTH 8 0
BBX 7 10 1 0
BITMAP
FE
FE
10
1C
70
BC
70
70
30
20
ENDCHAR
STARTCHAR uni20B1
ENCODING 8369
SWIDTH 557 0
DWIDTH 9 0
BBX 9 10 0 0
BITMAP
3E00
7700
FF80
3300
FF80
2600
7C00
6000
6000
6000
ENDCHAR
STARTCHAR uni20B2
ENCODING 8370
SWIDTH 599 0
DWIDTH 10 0
BBX 8 15 1 -2
BITMAP
08
08
08
3E
7E
FA
D2
D0
D7
D7
D3
7F
3F
33
30
ENDCHAR
STARTCHAR uni20B4
ENCODING 8372
SWIDTH 570 0
DWIDTH 9 0
BBX 9 10 0 0
BITMAP
1E00
3F00
6300
7F80
0000
FF80
3000
6300
3F00
3E00
ENDCHAR
STARTCHAR uni20B5
ENCODING 8373
SWIDTH 517 0
DWIDTH 8 0
BBX 7 14 1 -2
BITMAP
08
08
1C
7E
7E
D6
D0
D0
D0
D2
7E
3C
30
30
ENDCHAR
STARTCHAR uni20B8
ENCODING 8376
SWIDTH 522 0
DWIDTH 8 0
BBX 7 10 1 0
BITMAP
FE
FE
00
FE
FE
30
30
30
30
30
ENDCHAR
STARTCHAR uni20B9
ENCODING 8377
SWIDTH 511 0
DWIDTH 8 0
BBX 9 9 0 0
BITMAP
7F80
7F00
0C00
1C00
7000
F800
1800
0F00
0F00
ENDCHAR
STARTCHAR uni20BA
ENCODING 8378
SWIDTH 452 0
DWIDTH 7 0
BBX 7 10 0 0
BITMAP
30
34
38
34
FC
70
E2
66
7C
78
ENDCHAR
STARTCHAR uni20BC
ENCODING 8380
SWIDTH 673 0
DWIDTH 11 0
BBX 10 13 0 0
BITMAP
0200
0200
0200
0F00
1F80
3F80
34C0
74C0
64C0
64C0
64C0
C4C0
CCC0
ENDCHAR
STARTCHAR uni20BD
ENCODING 8381
SWIDTH 505 0
DWIDTH 8 0
BBX 8 10 0 0
BITMAP
3C
7E
33
33
33
36
FC
FC
60
60
ENDCHAR
STARTCHAR uni2116
ENCODING 8470
SWIDTH 1198 0
DWIDTH 19 0
BBX 18 15 1 0
BITMAP
33C380
37E7C0
3C64C0
786CC0
786CC0
70E780
70E300
70C000
60CF80
60CF80
60C000
E0C000
E1C000
E1C000
C18000
ENDCHAR
STARTCHAR trademark
ENCODING 8482
SWIDTH 1150 0
DWIDTH 18 0
BBX 16 7 2 7
BITMAP
FF66
23BB
6333
6332
6222
6226
4222
ENDCHAR
STARTCHAR partialdiff
ENCODING 8706
SWIDTH 451 0
DWIDTH 7 0
BBX 6 13 1 0
BITMAP
E0
70
18
1C
0C
3C
7C
CC
CC
CC
CC
F8
70
ENDCHAR
STARTCHAR product
ENCODING 8719
SWIDTH 700 0
DWIDTH 11 0
BBX 10 13 1 1
BITMAP
3FC0
3FC0
60C0
60C0
6180
6180
6180
6180
6180
C180
C180
C300
C300
ENDCHAR
STARTCHAR summation
ENCODING 8721
SWIDTH 700 0
DWIDTH 11 0
BBX 10 14 1 0
BITMAP
3FC0
7FC0
3800
1800
0C00
0600
0700
0700
0E00
1C00
3800
7000
FF80
FF00
ENDCHAR
STARTCHAR minus
ENCODING 8722
SWIDTH 700 0
DWIDTH 11 0
BBX 9 2 1 4
BITMAP
7F80
FF80
ENDCHAR
STARTCHAR uni2215
ENCODING 8725
SWIDTH 700 0
DWIDTH 11 0
BBX 8 15 2 0
BITMAP
01
03
03
06
06
0C
0C
18
38
30
70
60
C0
C0
80
ENDCHAR
STARTCHAR uni2219
ENCODING 8729
SWIDTH 700 0
DWIDTH 11 0
BBX 3 2 4 2
BITMAP
E0
E0
ENDCHAR
STARTCHAR radical
ENCODING 8730
SWIDTH 700 0
DWIDTH 11 0
BBX 11 14 1 0
BITMAP
0060
0060
00C0
00C0
0180
0180
E100
E300
3200
3600
1600
1C00
1C00
0800
ENDCHAR
STARTCHAR infinity
ENCODING 8734
SWIDTH 700 0
DWIDTH 11 0
BBX 10 6 1 1
BITMAP
7380
FFC0
8CC0
8CC0
FFC0
7780
ENDCHAR
STARTCHAR integral
ENCODING 8747
SWIDTH 700 0
DWIDTH 11 0
BBX 10 20 1 -5
BITMAP
0180
07C0
0600
0600
0E00
0C00
0C00
0C00
0C00
0C00
0C00
0C00
1C00
1800
1800
1800
1800
1800
F800
E000
ENDCHAR
STARTCHAR approxequal
ENCODING 8776
SWIDTH 700 0
DWIDTH 11 0
BBX 9 8 1 1
BITMAP
3080
7D80
C780
4200
7080
7980
DF00
C700
ENDCHAR
STARTCHAR notequal
ENCODING 8800
SWIDTH 700 0
DWIDTH 11 0
BBX 9 10 1 0
BITMAP
0200
0600
7F80
7F80
0C00
0800
FF80
FF80
3000
2000
ENDCHAR
STARTCHAR lessequal
ENCODING 8804
SWIDTH 700 0
DWIDTH 11 0
BBX 10 9 1 0
BITMAP
01C0
0F80
7C00
F000
3E00
0780
0100
FF80
FF80
ENDCHAR
STARTCHAR greaterequal
ENCODING 8805
SWIDTH 700 0
DWIDTH 11 0
BBX 9 9 1 0
BITMAP
7000
7E00
0F80
0380
3F00
F800
8000
FF80
FF80
ENDCHAR
STARTCHAR lozenge
ENCODING 9674
SWIDTH 700 0
DWIDTH 11 0
BBX 8 15 2 0
BITMAP
0C
1C
1C
36
36
62
63
C3
C3
46
6C
6C
38
38
30
ENDCHAR
STARTCHAR fi
ENCODING 64257
SWIDTH 633 0
DWIDTH 10 0
BBX 12 21 0 -5
BITMAP
0600
0F00
0B00
1B00
1BC0
32E0
36C0
3C00
7F80
FF80
6180
6D80
6590
65B0
65E0
64C0
6400
6C00
3C00
3800
3800
ENDCHAR
STARTCHAR fl
ENCODING 64258
SWIDTH 688 0
DWIDTH 11 0
BBX 12 22 1 -6
BITMAP
0C60
1CF0
35B0
35B0
6530
6F20
6F20
7B60
D340
F3C0
E380
DF00
FF10
F330
F3E0
D1C0
D000
D000
D000
D000
F000
6000
ENDCHAR
STARTCHAR .notdef
ENCODING -1
SWIDTH 265 0
DWIDTH 4 0
BBX 1 1 0 0
BITMAP
00
ENDCHAR
STARTCHAR Iacute_J.loclNLD
ENCODING -1
SWIDTH 776 0
DWIDTH 12 0
BBX 14 19 1 0
BITMAP
060C
0E1C
1C38
1060
3060
7060
7060
70E0
60E0
60C0
60C0
61C0
73C0
7EC0
3CC0
0180
4180
FF00
3E00
ENDCHAR
STARTCHAR A.ss01
ENCODING -1
SWIDTH 780 0
DWIDTH 12 0
BBX 12 15 1 0
BITMAP
03F0
0FF0
1C00
3860
70E0
60C0
E0C0
E0C0
C1C0
C1C0
C1C0
C3C0
E380
7F80
3D80
ENDCHAR
STARTCHAR Aacute.ss01
ENCODING -1
SWIDTH 780 0
DWIDTH 12 0
BBX 13 19 1 0
BITMAP
0018
0038
0070
00C0
03F0
0FF0
1C00
3860
70E0
60C0
E0C0
E0C0
C1C0
C1C0
C1C0
C3C0
E380
7F80
3D80
ENDCHAR
STARTCHAR Abreve.ss01
ENCODING -1
SWIDTH 780 0
DWIDTH 12 0
BBX 12 18 1 0
BITMAP
0630
03F0
01E0
03F0
0FF0
1C00
3860
70E0
60C0
E0C0
E0C0
C1C0
C1C0
C1C0
C3C0
E380
7F80
3D80
ENDCHAR
STARTCHAR uni1EAE.ss01
ENCODING -1
SWIDTH 780 0
DWIDTH 12 0
BBX 12 21 1 0
BITMAP
0020
0060
02D0
0730
03F0
01C0
03F0
0FF0
1C00
3860
70E0
60C0
E0C0
E0C0
C1C0
C1C0
C1C0
C3C0
E380
7F80
3D80
ENDCHAR
STARTCHAR uni1EB6.ss01
ENCODING -1
SWIDTH 780 0
DWIDTH 12 0
BBX 12 22 1 -4
BITMAP
0630
03F0
01E0
03F0
0FF0
1C00
3860
70E0
60C0
E0C0
E0C0
C1C0
C1C0
C1C0
C3C0
E380
7F80
3D80
0000
0C00
1C00
0C00
ENDCHAR
STARTCHAR uni1EB0.ss01
ENCODING -1
SWIDTH 780 0
DWIDTH 12 0
BBX 12 21 1 0
BITMAP
0100
0180
02D0
0730
03F0
00C0
03F0
0FF0
1C00
3860
70E0
60C0
E0C0
E0C0
C1C0
C1C0
C1C0
C3C0
E380
7F80
3D80
ENDCHAR
STARTCHAR uni1EB2.ss01
ENCODING -1
SWIDTH 780 0
DWIDTH 12 0
BBX 12 21 1 0
BITMAP
01C0
0060
00C0
0630
03F0
01E0
03F0
0FF0
1C00
3860
70E0
60C0
E0C0
E0C0
C1C0
C1C0
C1C0
C3C0
E380
7F80
3D80
ENDCHAR
STARTCHAR uni1EB4.ss01
ENCODING -1
SWIDTH 780 0
DWIDTH 12 0
BBX 12 22 1 0
BITMAP
0110
01D0
03F0
0220
0610
03F0
01E0
03F0
0FF0
1C00
3860
70E0
60C0
E0C0
E0C0
C1C0
C1C0
C1C0
C3C0
E380
7F80
3D80
ENDCHAR
STARTCHAR Acircumflex.ss01
ENCODING -1
SWIDTH 780 0
DWIDTH 12 0
BBX 12 20 1 0
BITMAP
0040
01C0
01E0
0360
0320
03F0
0FF0
1C00
3860
70E0
60C0
E0C0
E0C0
C1C0
C1C0
C1C0
C3C0
E380
7F80
3D80
ENDCHAR
STARTCHAR uni1EA4.ss01
ENCODING -1
SWIDTH 780 0
DWIDTH 12 0
BBX 14 21 1 0
BITMAP
000C
0018
0050
01E0
0360
0320
03F0
0FF0
1C00
3860
70E0
60C0
E0C0
E0C0
C1C0
C1C0
C1C0
C3C0
E380
7F80
3D80
ENDCHAR
STARTCHAR uni1EAC.ss01
ENCODING -1
SWIDTH 780 0
DWIDTH 12 0
BBX 12 24 1 -4
BITMAP
0040
01C0
01E0
0360
0320
03F0
0FF0
1C00
3860
70E0
60C0
E0C0
E0C0
C1C0
C1C0
C1C0
C3C0
E380
7F80
3D80
0000
0C00
1C00
0C00
ENDCHAR
STARTCHAR uni1EA6.ss01
ENCODING -1
SWIDTH 780 0
DWIDTH 12 0
BBX 12 21 1 0
BITMAP
0C00
0600
0240
01E0
0360
0320
03F0
0FF0
1C00
3860
70E0
60C0
E0C0
E0C0
C1C0
C1C0
C1C0
C3C0
E380
7F80
3D80
ENDCHAR
STARTCHAR uni1EA8.ss01
ENCODING -1
SWIDTH 780 0
DWIDTH 12 0
BBX 14 21 1 0
BITMAP
0018
000C
00D8
01E0
0360
0000
03F0
0FF0
1C00
3860
70E0
60C0
E0C0
E0C0
C1C0
C1C0
C1C0
C3C0
E380
7F80
3D80
ENDCHAR
STARTCHAR uni1EAA.ss01
ENCODING -1
SWIDTH 780 0
DWIDTH 12 0
BBX 12 21 1 0
BITMAP
0190
03F0
0000
01E0
0160
0320
03F0
0FF0
1C00
3860
70E0
60C0
E0C0
E0C0
C1C0
C1C0
C1C0
C3C0
E380
7F80
3D80
ENDCHAR
STARTCHAR uni0200.ss01
ENCODING -1
SWIDTH 780 0
DWIDTH 12 0
BBX 12 19 1 0
BITMAP
06C0
06C0
0360
0160
03F0
0FF0
1C00
3860
70E0
60C0
E0C0
E0C0
C1C0
C1C0
C1C0
C3C0
E380
7F80
3D80
ENDCHAR
STARTCHAR Adieresis.ss01
ENCODING -1
SWIDTH 780 0
DWIDTH 12 0
BBX 12 18 1 0
BITMAP
0320
0370
0360
03F0
0FF0
1C00
3860
70E0
60C0
E0C0
E0C0
C1C0
C1C0
C1C0
C3C0
E380
7F80
3D80
ENDCHAR
STARTCHAR uni1EA0.ss01
ENCODING -1
SWIDTH 780 0
DWIDTH 12 0
BBX 12 19 1 -4
BITMAP
03F0
0FF0
1C00
3860
70E0
60C0
E0C0
E0C0
C1C0
C1C0
C1C0
C3C0
E380
7F80
3D80
0000
0C00
1C00
0C00
ENDCHAR
STARTCHAR Agrave.ss01
ENCODING -1
SWIDTH 780 0
DWIDTH 12 0
BBX 12 19 1 0
BITMAP
0C00
0E00
0300
0180
03F0
0FF0
1C00
3860
70E0
60C0
E0C0
E0C0
C1C0
C1C0
C1C0
C3C0
E380
7F80
3D80
ENDCHAR
STARTCHAR uni1EA2.ss01
ENCODING -1
SWIDTH 780 0
DWIDTH 12 0
BBX 12 19 1 0
BITMAP
01E0
01E0
00E0
00C0
03F0
0FF0
1C00
3860
70E0
60C0
E0C0
E0C0
C1C0
C1C0
C1C0
C3C0
E380
7F80
3D80
ENDCHAR
STARTCHAR uni0202.ss01
ENCODING -1
SWIDTH 780 0
DWIDTH 12 0
BBX 12 19 1 0
BITMAP
01E0
03F0
0330
0000
03F0
0FF0
1C00
3860
70E0
60C0
E0C0
E0C0
C1C0
C1C0
C1C0
C3C0
E380
7F80
3D80
ENDCHAR
STARTCHAR Amacron.ss01
ENCODING -1
SWIDTH 780 0
DWIDTH 12 0
BBX 12 17 1 0
BITMAP
03E0
03E0
03F0
0FF0
1C00
3860
70E0
60C0
E0C0
E0C0
C1C0
C1C0
C1C0
C3C0
E380
7F80
3D80
ENDCHAR
STARTCHAR Aogonek.ss01
ENCODING -1
SWIDTH 780 0
DWIDTH 12 0
BBX 12 19 1 -4
BITMAP
03F0
0FF0
1C00
3860
70E0
60C0
E0C0
E0C0
C1C0
C1C0
C1C0
C3C0
E380
7F80
3D80
0300
0300
03C0
01C0
ENDCHAR
STARTCHAR Aring.ss01
ENCODING -1
SWIDTH 780 0
DWIDTH 12 0
BBX 12 20 1 0
BITMAP
00C0
01E0
0120
01E0
01C0
03F0
0FF0
1C00
3860
70E0
60C0
E0C0
E0C0
C1C0
C1C0
C1C0
C3C0
E380
7F80
3D80
ENDCHAR
STARTCHAR Aringacute.ss01
ENCODING -1
SWIDTH 780 0
DWIDTH 12 0
BBX 15 23 1 0
BITMAP
0004
000E
00DC
01F0
0120
0120
01E0
00C0
03F0
0FF0
1C00
3860
70E0
60C0
E0C0
E0C0
C1C0
C1C0
C1C0
C3C0
E380
7F80
3D80
ENDCHAR
STARTCHAR Atilde.ss01
ENCODING -1
SWIDTH 780 0
DWIDTH 12 0
BBX 12 19 1 0
BITMAP
0100
0390
06F0
0260
03F0
0FF0
1C00
3860
70E0
60C0
E0C0
E0C0
C1C0
C1C0
C1C0
C3C0
E380
7F80
3D80
ENDCHAR
STARTCHAR AE.ss01
ENCODING -1
SWIDTH 1057 0
DWIDTH 17 0
BBX 16 15 1 0
BITMAP
073F
0FFF
1C60
3860
70E0
60E0
E0C0
E0FE
C0FE
C1C0
C1C0
C3C0
E3E0
7EFF
3C3E
ENDCHAR
STARTCHAR AEacute.ss01
ENCODING -1
SWIDTH 1057 0
DWIDTH 17 0
BBX 16 19 1 0
BITMAP
0004
001E
0038
0020
073F
0FFF
1C60
3860
70E0
60E0
E0C0
E0FE
C0FE
C1C0
C1C0
C3C0
E3E0
7EFF
3C3E
ENDCHAR
STARTCHAR B.ss01
ENCODING -1
SWIDTH 826 0
DWIDTH 13 0
BBX 12 15 1 0
BITMAP
1F80
3FE0
2070
0070
3030
3070
70E0
67C0
67C0
60E0
60E0
60E0
E1C0
FF80
7F00
ENDCHAR
STARTCHAR C.ss01
ENCODING -1
SWIDTH 704 0
DWIDTH 11 0
BBX 10 15 1 0
BITMAP
0F80
1FC0
38C0
70C0
60C0
E0C0
E000
C000
C000
C000
E000
E040
70C0
3F80
1F00
ENDCHAR
STARTCHAR Cacute.ss01
ENCODING -1
SWIDTH 704 0
DWIDTH 11 0
BBX 11 19 1 0
BITMAP
0060
00E0
01C0
0300
0F80
1FC0
38C0
70C0
60C0
E0C0
E000
C000
C000
C000
E000
E040
70C0
3F80
1F00
ENDCHAR
STARTCHAR Ccaron.ss01
ENCODING -1
SWIDTH 704 0
DWIDTH 11 0
BBX 10 20 1 0
BITMAP
0440
04C0
0780
0780
0300
0F80
1FC0
38C0
70C0
60C0
E0C0
E000
C000
C000
C000
E000
E040
70C0
3F80
1F00
ENDCHAR
STARTCHAR Ccedilla.ss01
ENCODING -1
SWIDTH 704 0
DWIDTH 11 0
BBX 10 19 1 -4
BITMAP
0F80
1FC0
38C0
70C0
60C0
E080
C000
C000
C000
E000
E040
70C0
7FC0
3F00
1E00
0600
0600
3E00
3800
ENDCHAR
STARTCHAR Ccircumflex.ss01
ENCODING -1
SWIDTH 704 0
DWIDTH 11 0
BBX 10 20 1 0
BITMAP
0100
0380
0780
0C80
0CC0
0F80
1FC0
38C0
70C0
60C0
E0C0
E000
C000
C000
C000
E000
E040
70C0
3F80
1F00
ENDCHAR
STARTCHAR Cdotaccent.ss01
ENCODING -1
SWIDTH 704 0
DWIDTH 11 0
BBX 10 18 1 0
BITMAP
0300
0700
0300
0F80
1FC0
38C0
70C0
60C0
E0C0
E000
C000
C000
C000
E000
E040
70C0
3F80
1F00
ENDCHAR
STARTCHAR D.ss01
ENCODING -1
SWIDTH 810 0
DWIDTH 13 0
BBX 12 15 1 0
BITMAP
1F00
3FC0
20E0
0060
3060
3070
7070
6070
6060
6060
60E0
60C0
E3C0
FF80
7E00
ENDCHAR
STARTCHAR uni01C4.ss01
ENCODING -1
SWIDTH 1455 0
DWIDTH 23 0
BBX 23 20 1 0
BITMAP
000048
0000CC
000058
000070
000030
1F07FC
3FC7FE
20E01C
00601C
306038
307070
707070
6070E0
6061C0
6061C0
60E380
60C700
E3CF00
FF8FFC
7E0FFC
ENDCHAR
STARTCHAR Eth.ss01
ENCODING -1
SWIDTH 821 0
DWIDTH 13 0
BBX 13 15 0 0
BITMAP
0F80
0FE0
1C70
1830
1838
1838
7F38
FF38
3038
3030
3030
3060
30E0
7FC0
3F00
ENDCHAR
STARTCHAR Dcaron.ss01
ENCODING -1
SWIDTH 810 0
DWIDTH 13 0
BBX 12 20 1 0
BITMAP
0880
0C80
0D80
0700
0600
1F00
3FC0
20E0
0060
3060
3070
7070
6070
6060
6060
60E0
60C0
E3C0
FF80
7E00
ENDCHAR
STARTCHAR Dcroat.ss01
ENCODING -1
SWIDTH 821 0
DWIDTH 13 0
BBX 13 15 0 0
BITMAP
0F80
0FE0
1C70
1830
1838
1838
7F38
FF38
3038
3030
3030
3060
30E0
7FC0
3F00
ENDCHAR
STARTCHAR E.ss01
ENCODING -1
SWIDTH 720 0
DWIDTH 12 0
BBX 10 15 1 0
BITMAP
0F80
3FC0
70C0
60C0
60C0
70C0
3E00
3E00
6000
C000
C000
C040
E0C0
7F80
3F00
ENDCHAR
STARTCHAR Eacute.ss01
ENCODING -1
SWIDTH 720 0
DWIDTH 12 0
BBX 11 19 1 0
BITMAP
0040
00E0
0380
0300
0F80
3FC0
70C0
60C0
60C0
70C0
3E00
3E00
6000
C000
C000
C040
E0C0
7F80
3F00
ENDCHAR
STARTCHAR Ebreve.ss01
ENCODING -1
SWIDTH 720 0
DWIDTH 12 0
BBX 10 18 1 0
BITMAP
18C0
0FC0
0780
0F80
3FC0
70C0
60C0
60C0
70C0
3E00
3E00
6000
C000
C000
C040
E0C0
7F80
3F00
ENDCHAR
STARTCHAR Ecaron.ss01
ENCODING -1
SWIDTH 720 0
DWIDTH 12 0
BBX 10 20 1 0
BITMAP
0880
0CC0
0580
0700
0300
0F80
3FC0
70C0
60C0
60C0
70C0
3E00
3E00
6000
C000
C000
C040
E0C0
7F80
3F00
ENDCHAR
STARTCHAR Ecircumflex.ss01
ENCODING -1
SWIDTH 720 0
DWIDTH 12 0
BBX 10 20 1 0
BITMAP
0100
0700
0780
0D80
0880
0F80
3FC0
70C0
60C0
60C0
70C0
3E00
3E00
6000
C000
C000
C040
E0C0
7F80
3F00
ENDCHAR
STARTCHAR uni1EBE.ss01
ENCODING -1
SWIDTH 720 0
DWIDTH 12 0
BBX 11 21 1 0
BITMAP
0020
0060
0180
0700
0D80
0D80
0F80
3FC0
70C0
60C0
60C0
70C0
3E00
3E00
6000
C000
C000
C040
E0C0
7F80
3F00
ENDCHAR
STARTCHAR uni1EC6.ss01
ENCODING -1
SWIDTH 720 0
DWIDTH 12 0
BBX 10 24 1 -4
BITMAP
0100
0700
0780
0D80
0880
0F80
3FC0
70C0
60C0
60C0
70C0
3E00
3E00
6000
C000
C000
C040
E0C0
7F80
3F00
0000
1800
1C00
1800
ENDCHAR
STARTCHAR uni1EC0.ss01
ENCODING -1
SWIDTH 720 0
DWIDTH 12 0
BBX 10 21 1 0
BITMAP
3000
1800
0900
0700
0D80
0D80
0F80
3FC0
70C0
60C0
60C0
70C0
3E00
3E00
6000
C000
C000
C040
E0C0
7F80
3F00
ENDCHAR
STARTCHAR uni1EC2.ss01
ENCODING -1
SWIDTH 720 0
DWIDTH 12 0
BBX 12 21 1 0
BITMAP
00E0
0030
0360
0580
0D80
0000
0F80
3FC0
70C0
60C0
60C0
70C0
3E00
3E00
6000
C000
C000
C040
E0C0
7F80
3F00
ENDCHAR
STARTCHAR uni1EC4.ss01
ENCODING -1
SWIDTH 720 0
DWIDTH 12 0
BBX 10 21 1 0
BITMAP
0640
0FC0
0000
0700
0D80
0D80
0F80
3FC0
70C0
60C0
60C0
70C0
3E00
3E00
6000
C000
C000
C040
E0C0
7F80
3F00
ENDCHAR
STARTCHAR uni0204.ss01
ENCODING -1
SWIDTH 720 0
DWIDTH 12 0
BBX 10 19 1 0
BITMAP
1B00
1B00
0900
0D80
0F80
3FC0
70C0
60C0
60C0
70C0
3E00
3E00
6000
C000
C000
C040
E0C0
7F80
3F00
ENDCHAR
STARTCHAR Edieresis.ss01
ENCODING -1
SWIDTH 720 0
DWIDTH 12 0
BBX 10 18 1 0
BITMAP
0D80
0D80
0D80
0F80
3FC0
70C0
60C0
60C0
70C0
3E00
3E00
6000
C000
C000
C040
E0C0
7F80
3F00
ENDCHAR
STARTCHAR Edotaccent.ss01
ENCODING -1
SWIDTH 720 0
DWIDTH 12 0
BBX 10 18 1 0
BITMAP
0300
0700
0700
0F80
3FC0
70C0
60C0
60C0
70C0
3E00
3E00
6000
C000
C000
C040
E0C0
7F80
3F00
ENDCHAR
STARTCHAR uni1EB8.ss01
ENCODING -1
SWIDTH 720 0
DWIDTH 12 0
BBX 10 19 1 -4
BITMAP
0F80
3FC0
70C0
60C0
60C0
70C0
3E00
3E00
6000
C000
C000
C040
E0C0
7F80
3F00
0000
1800
1C00
1800
ENDCHAR
STARTCHAR Egrave.ss01
ENCODING -1
SWIDTH 720 0
DWIDTH 12 0
BBX 10 19 1 0
BITMAP
3000
3800
1C00
0600
0F80
3FC0
70C0
60C0
60C0
70C0
3E00
3E00
6000
C000
C000
C040
E0C0
7F80
3F00
ENDCHAR
STARTCHAR uni1EBA.ss01
ENCODING -1
SWIDTH 720 0
DWIDTH 12 0
BBX 10 19 1 0
BITMAP
0700
0780
0380
0300
0F80
3FC0
70C0
60C0
60C0
70C0
3E00
3E00
6000
C000
C000
C040
E0C0
7F80
3F00
ENDCHAR
STARTCHAR uni0206.ss01
ENCODING -1
SWIDTH 720 0
DWIDTH 12 0
BBX 10 19 1 0
BITMAP
0700
0FC0
18C0
0000
0F80
3FC0
70C0
60C0
60C0
70C0
3E00
3E00
6000
C000
C000
C040
E0C0
7F80
3F00
ENDCHAR
STARTCHAR Emacron.ss01
ENCODING -1
SWIDTH 720 0
DWIDTH 12 0
BBX 10 17 1 0
BITMAP
0F80
0F80
0F80
3FC0
70C0
60C0
60C0
70C0
3E00
3E00
6000
C000
C000
C040
E0C0
7F80
3F00
ENDCHAR
STARTCHAR Eogonek.ss01
ENCODING -1
SWIDTH 720 0
DWIDTH 12 0
BBX 10 19 1 -4
BITMAP
0F80
3FC0
70C0
60C0
60C0
70C0
3E00
3E00
6000
C000
C000
C040
E0C0
7F80
3E00
0C00
0C00
0F00
0700
ENDCHAR
STARTCHAR uni1EBC.ss01
ENCODING -1
SWIDTH 720 0
DWIDTH 12 0
BBX 10 19 1 0
BITMAP
0400
0E40
1BC0
1180
0F80
3FC0
70C0
60C0
60C0
70C0
3E00
3E00
6000
C000
C000
C040
E0C0
7F80
3F00
ENDCHAR
STARTCHAR F.ss01
ENCODING -1
SWIDTH 671 0
DWIDTH 11 0
BBX 11 15 1 0
BITMAP
FFE0
7FC0
1800
1800
3800
3800
3000
FF80
FF80
3000
7000
7000
6000
6000
6000
ENDCHAR
STARTCHAR G.ss01
ENCODING -1
SWIDTH 811 0
DWIDTH 13 0
BBX 11 19 1 -4
BITMAP
0F80
1FC0
38E0
7060
60E0
E040
E000
C000
C1E0
C3E0
E060
6060
7060
3FE0
1FE0
00C0
00C0
00C0
00C0
ENDCHAR
STARTCHAR Gbreve.ss01
ENCODING -1
SWIDTH 811 0
DWIDTH 13 0
BBX 11 22 1 -4
BITMAP
0C60
0FC0
0780
0F80
1FC0
38E0
7060
60E0
E040
E000
C000
C1E0
C3E0
E060
6060
7060
3FE0
1FE0
00C0
00C0
00C0
00C0
ENDCHAR
STARTCHAR Gcaron.ss01
ENCODING -1
SWIDTH 811 0
DWIDTH 13 0
BBX 11 24 1 -4
BITMAP
0440
06C0
06C0
0380
0300
0F80
1FC0
38E0
7060
60E0
E040
E000
C000
C1E0
C3E0
E060
6060
7060
3FE0
1FE0
00C0
00C0
00C0
00C0
ENDCHAR
STARTCHAR Gcircumflex.ss01
ENCODING -1
SWIDTH 811 0
DWIDTH 13 0
BBX 11 24 1 -4
BITMAP
0100
0380
0680
06C0
0CC0
0F80
1FC0
38E0
7060
60E0
E040
E000
C000
C1E0
C3E0
E060
6060
7060
3FE0
1FE0
00C0
00C0
00C0
00C0
ENDCHAR
STARTCHAR uni0122.ss01
ENCODING -1
SWIDTH 811 0
DWIDTH 13 0
BBX 11 20 1 -5
BITMAP
0F80
1FC0
38E0
7060
60E0
E040
E000
C000
C1E0
C3E0
E060
6060
7060
3FE0
1FE0
00C0
04C0
0CC0
0CC0
0C00
ENDCHAR
STARTCHAR Gdotaccent.ss01
ENCODING -1
SWIDTH 811 0
DWIDTH 13 0
BBX 11 22 1 -4
BITMAP
0300
0380
0300
0F80
1FC0
38E0
7060
60E0
E040
E000
C000
C1E0
C3E0
E060
6060
7060
3FE0
1FE0
00C0
00C0
00C0
00C0
ENDCHAR
STARTCHAR H.ss01
ENCODING -1
SWIDTH 846 0
DWIDTH 14 0
BBX 12 15 1 0
BITMAP
3030
3070
3070
3070
3060
3060
3060
FFF0
FFF0
60E0
60C0
60C0
60C0
E0C0
60C0
ENDCHAR
STARTCHAR Hbar.ss01
ENCODING -1
SWIDTH 856 0
DWIDTH 14 0
BBX 13 15 1 0
BITMAP
3030
3830
3070
7FF8
FFF8
3060
3060
FFF8
FFF0
60E0
60E0
60C0
60C0
60C0
60C0
ENDCHAR
STARTCHAR Hcircumflex.ss01
ENCODING -1
SWIDTH 846 0
DWIDTH 14 0
BBX 12 20 1 0
BITMAP
0100
0380
0680
06C0
0CC0
3030
3070
3070
3070
3060
3060
3060
FFF0
FFF0
60E0
60C0
60C0
60C0
E0C0
60C0
ENDCHAR
STARTCHAR I.ss01
ENCODING -1
SWIDTH 357 0
DWIDTH 6 0
BBX 4 15 1 0
BITMAP
30
30
30
30
30
70
60
60
60
60
60
E0
E0
E0
C0
ENDCHAR
STARTCHAR Iacute.ss01
ENCODING -1
SWIDTH 357 0
DWIDTH 6 0
BBX 8 19 1 0
BITMAP
02
0F
1C
10
30
30
30
30
30
70
60
60
60
60
60
E0
E0
E0
C0
ENDCHAR
STARTCHAR Iacute_J.loclNLD.ss01
ENCODING -1
SWIDTH 776 0
DWIDTH 12 0
BBX 14 19 1 0
BITMAP
060C
0E1C
1C38
1060
3060
7060
7060
70E0
60E0
60C0
60C0
61C0
73C0
7EC0
3CC0
0180
4180
FF00
3E00
ENDCHAR
STARTCHAR Ibreve.ss01
ENCODING -1
SWIDTH 357 0
DWIDTH 6 0
BBX 7 18 1 0
BITMAP
C6
FE
78
30
30
30
30
30
70
60
60
60
60
60
E0
E0
E0
C0
ENDCHAR
STARTCHAR Icircumflex.ss01
ENCODING -1
SWIDTH 357 0
DWIDTH 6 0
BBX 6 20 1 0
BITMAP
10
38
2C
6C
4C
30
30
30
30
30
70
60
60
60
60
60
E0
E0
E0
C0
ENDCHAR
STARTCHAR uni0208.ss01
ENCODING -1
SWIDTH 357 0
DWIDTH 6 0
BBX 5 19 1 0
BITMAP
D8
D8
48
68
30
30
30
30
30
70
60
60
60
60
60
E0
E0
E0
C0
ENDCHAR
STARTCHAR Idieresis.ss01
ENCODING -1
SWIDTH 357 0
DWIDTH 6 0
BBX 6 18 1 0
BITMAP
6C
6C
6C
30
30
30
30
30
70
60
60
60
60
60
E0
E0
E0
C0
ENDCHAR
STARTCHAR Idotaccent.ss01
ENCODING -1
SWIDTH 357 0
DWIDTH 6 0
BBX 5 18 1 0
BITMAP
18
38
38
30
30
30
30
30
70
60
60
60
60
60
E0
E0
E0
C0
ENDCHAR
STARTCHAR uni1ECA.ss01
ENCODING -1
SWIDTH 357 0
DWIDTH 6 0
BBX 4 19 1 -4
BITMAP
30
30
30
30
30
70
60
60
60
60
60
E0
E0
E0
C0
00
C0
C0
C0
ENDCHAR
STARTCHAR Igrave.ss01
ENCODING -1
SWIDTH 357 0
DWIDTH 6 0
BBX 5 19 0 0
BITMAP
C0
E0
70
18
18
18
18
18
18
38
30
30
30
30
30
70
70
70
60
ENDCHAR
STARTCHAR uni1EC8.ss01
ENCODING -1
SWIDTH 357 0
DWIDTH 6 0
BBX 6 19 1 0
BITMAP
38
3C
1C
38
30
30
30
30
30
70
60
60
60
60
60
E0
E0
E0
C0
ENDCHAR
STARTCHAR uni020A.ss01
ENCODING -1
SWIDTH 357 0
DWIDTH 6 0
BBX 7 19 1 0
BITMAP
38
7E
C6
00
30
30
30
30
30
70
60
60
60
60
60
E0
E0
E0
C0
ENDCHAR
STARTCHAR Imacron.ss01
ENCODING -1
SWIDTH 357 0
DWIDTH 6 0
BBX 6 17 1 0
BITMAP
7C
7C
30
30
30
30
30
70
60
60
60
60
60
E0
E0
E0
C0
ENDCHAR
STARTCHAR Iogonek.ss01
ENCODING -1
SWIDTH 357 0
DWIDTH 6 0
BBX 5 19 0 -4
BITMAP
18
18
18
18
18
38
30
30
30
30
30
70
70
70
60
40
C0
78
70
ENDCHAR
STARTCHAR Itilde.ss01
ENCODING -1
SWIDTH 357 0
DWIDTH 6 0
BBX 7 19 1 0
BITMAP
20
76
DE
8C
30
30
30
30
30
70
60
60
60
60
60
E0
E0
E0
C0
ENDCHAR
STARTCHAR J.ss01
ENCODING -1
SWIDTH 716 0
DWIDTH 11 0
BBX 11 15 1 0
BITMAP
1FC0
7FE0
61C0
C1C0
C180
E180
0180
0180
0180
0180
0300
C300
E700
7E00
3C00
ENDCHAR
STARTCHAR Jcircumflex.ss01
ENCODING -1
SWIDTH 716 0
DWIDTH 11 0
BBX 11 20 1 0
BITMAP
0200
0700
0D80
0D80
0980
1FC0
7FE0
61C0
C1C0
C180
E180
0180
0180
0180
0180
0300
C300
E700
7E00
3C00
ENDCHAR
STARTCHAR K.ss01
ENCODING -1
SWIDTH 779 0
DWIDTH 12 0
BBX 11 15 1 0
BITMAP
3060
3060
30E0
30C0
30C0
3180
7300
FE00
FC00
6600
6700
6300
E380
E1E0
C0E0
ENDCHAR
STARTCHAR uni0136.ss01
ENCODING -1
SWIDTH 779 0
DWIDTH 12 0
BBX 11 20 1 -5
BITMAP
3060
3060
30E0
30C0
30C0
3180
7300
FE00
FC00
6600
6700
6300
E380
E1E0
C0E0
0000
0800
0C00
0800
0800
ENDCHAR
STARTCHAR L.ss01
ENCODING -1
SWIDTH 625 0
DWIDTH 10 0
BBX 9 15 1 0
BITMAP
3000
3000
3000
3000
7000
7000
6000
6000
6000
6000
6000
E000
E000
FF80
FF80
ENDCHAR
STARTCHAR uni01C7.ss01
ENCODING -1
SWIDTH 1291 0
DWIDTH 21 0
BBX 20 15 1 0
BITMAP
300FE0
303FF0
303060
3060E0
7060E0
7030E0
6000C0
6000C0
6000C0
6000C0
6000C0
E06180
E07180
FFBF00
FF9E00
ENDCHAR
STARTCHAR Lacute.ss01
ENCODING -1
SWIDTH 625 0
DWIDTH 10 0
BBX 9 19 1 0
BITMAP
0600
0E00
1C00
1000
3000
3000
3000
3000
7000
7000
6000
6000
6000
6000
6000
E000
E000
FF80
FF80
ENDCHAR
STARTCHAR Lcaron.ss01
ENCODING -1
SWIDTH 625 0
DWIDTH 10 0
BBX 9 15 1 0
BITMAP
3000
3100
3180
3100
7100
7000
6000
6000
6000
6000
6000
E000
E000
FF80
FF80
ENDCHAR
STARTCHAR uni013B.ss01
ENCODING -1
SWIDTH 625 0
DWIDTH 10 0
BBX 9 20 1 -5
BITMAP
3000
3000
3000
3000
7000
7000
6000
6000
6000
6000
6000
E000
E000
FF80
FF80
0000
1800
1800
1800
1800
ENDCHAR
STARTCHAR Ldot.ss01
ENCODING -1
SWIDTH 625 0
DWIDTH 10 0
BBX 9 15 1 0
BITMAP
3000
3000
3000
3000
7000
7000
6300
6700
6300
6000
6000
E000
E000
FF80
FF80
ENDCHAR
STARTCHAR uni01C8.ss01
ENCODING -1
SWIDTH 854 0
DWIDTH 14 0
BBX 13 23 1 -8
BITMAP
3000
3000
3000
3018
7038
7038
6000
6030
6030
6030
6030
E030
E030
FFB0
FFA0
0060
00E0
01E0
0360
0240
06C0
0780
0380
ENDCHAR
STARTCHAR Lslash.ss01
ENCODING -1
SWIDTH 625 0
DWIDTH 10 0
BBX 10 15 0 0
BITMAP
1800
1800
1800
1900
3F00
3E00
3800
7000
F000
3000
3000
7000
7000
7FC0
7FC0
ENDCHAR
STARTCHAR M.ss01
ENCODING -1
SWIDTH 1139 0
DWIDTH 18 0
BBX 16 15 1 0
BITMAP
338F
37DF
3CD3
38E3
78E3
70E3
70C3
70C3
61C7
61C7
6186
E186
E186
E186
C186
ENDCHAR
STARTCHAR N.ss01
ENCODING -1
SWIDTH 799 0
DWIDTH 13 0
BBX 11 15 1 0
BITMAP
33C0
37E0
3C60
7860
7860
70E0
70E0
70C0
60C0
60C0
60C0
E0C0
E1C0
E1C0
C180
ENDCHAR
STARTCHAR uni01CA.ss01
ENCODING -1
SWIDTH 1515 0
DWIDTH 24 0
BBX 23 15 1 0
BITMAP
33C0FE
37E3FE
3C670C
78660C
78660C
70E60C
70E00C
70C00C
60C01C
60C018
60C018
E0C618
E1C638
E1C3F0
C181E0
ENDCHAR
STARTCHAR Nacute.ss01
ENCODING -1
SWIDTH 799 0
DWIDTH 13 0
BBX 11 19 1 0
BITMAP
0060
00E0
01C0
0300
33C0
37E0
3C60
7860
7860
70E0
70E0
70C0
60C0
60C0
60C0
E0C0
E1C0
E1C0
C180
ENDCHAR
STARTCHAR Ncaron.ss01
ENCODING -1
SWIDTH 799 0
DWIDTH 13 0
BBX 11 20 1 0
BITMAP
0440
04C0
0780
0780
0300
33C0
37E0
3C60
7860
7860
70E0
70E0
70C0
60C0
60C0
60C0
E0C0
E1C0
E1C0
C180
ENDCHAR
STARTCHAR uni0145.ss01
ENCODING -1
SWIDTH 799 0
DWIDTH 13 0
BBX 11 20 1 -5
BITMAP
33C0
37E0
3C60
7860
7860
70E0
70E0
70C0
60C0
60C0
60C0
E0C0
E1C0
E1C0
C180
0000
0800
0C00
0800
0800
ENDCHAR
STARTCHAR Eng.ss01
ENCODING -1
SWIDTH 792 0
DWIDTH 13 0
BBX 11 21 1 -6
BITMAP
33C0
37E0
3C60
3860
7860
70E0
70C0
70C0
60C0
60C0
61C0
E180
E180
E180
C180
0300
0300
4300
E600
7E00
3C00
ENDCHAR
STARTCHAR uni01CB.ss01
ENCODING -1
SWIDTH 1008 0
DWIDTH 16 0
BBX 16 23 1 -8
BITMAP
33C0
37E0
3C60
7866
7867
70E6
70E0
70C6
60C6
60C6
60C4
E0CC
E1CC
E1CC
C18C
001C
003C
0068
0058
00D8
0090
00F0
00E0
ENDCHAR
STARTCHAR Ntilde.ss01
ENCODING -1
SWIDTH 799 0
DWIDTH 13 0
BBX 11 19 1 0
BITMAP
0400
0E60
1BC0
09C0
33C0
37E0
3C60
7860
7860
70E0
70E0
70C0
60C0
60C0
60C0
E0C0
E1C0
E1C0
C180
ENDCHAR
STARTCHAR OE.ss01
ENCODING -1
SWIDTH 1166 0
DWIDTH 19 0
BBX 18 15 1 0
BITMAP
0F8FC0
1FDFC0
38F800
707800
607800
E07000
E07000
C07F80
C07F80
C07000
E07000
E0F000
71F000
3FBFC0
1E0F80
ENDCHAR
STARTCHAR P.ss01
ENCODING -1
SWIDTH 662 0
DWIDTH 11 0
BBX 10 15 1 0
BITMAP
3E00
FF80
7180
31C0
31C0
31C0
3180
7380
FF00
FC00
6000
6000
6000
6000
6000
ENDCHAR
STARTCHAR Thorn.ss01
ENCODING -1
SWIDTH 658 0
DWIDTH 11 0
BBX 9 15 1 0
BITMAP
3000
3800
3000
7E00
FF80
B380
3180
7180
7180
6380
FF00
FC00
6000
6000
6000
ENDCHAR
STARTCHAR Q.ss01
ENCODING -1
SWIDTH 816 0
DWIDTH 13 0
BBX 12 19 1 -4
BITMAP
0F80
1FC0
38E0
7060
6070
E070
C070
C070
C060
C060
E0E0
61C0
7F80
3F00
0600
0700
0380
0180
0180
ENDCHAR
STARTCHAR R.ss01
ENCODING -1
SWIDTH 744 0
DWIDTH 12 0
BBX 11 15 1 0
BITMAP
3E00
7F80
F180
3180
31C0
3180
3180
3700
FE00
FC00
6E00
6700
6300
63E0
61E0
ENDCHAR
STARTCHAR Racute.ss01
ENCODING -1
SWIDTH 744 0
DWIDTH 12 0
BBX 11 19 1 0
BITMAP
00C0
01C0
0380
0600
3E00
7F80
F180
3180
31C0
3180
3180
3700
FE00
FC00
6E00
6700
6300
63E0
61E0
ENDCHAR
STARTCHAR Rcaron.ss01
ENCODING -1
SWIDTH 744 0
DWIDTH 12 0
BBX 11 20 1 0
BITMAP
0880
0980
0F00
0F00
0600
3E00
7F80
F180
3180
31C0
3180
3180
3700
FE00
FC00
6E00
6700
6300
63E0
61E0
ENDCHAR
STARTCHAR uni0156.ss01
ENCODING -1
SWIDTH 744 0
DWIDTH 12 0
BBX 11 20 1 -5
BITMAP
3E00
7F80
F180
3180
31C0
3180
3180
3700
FE00
FC00
6E00
6700
6300
63E0
61E0
0000
0800
0C00
0800
1800
ENDCHAR
STARTCHAR uni0210.ss01
ENCODING -1
SWIDTH 744 0
DWIDTH 12 0
BBX 11 19 1 0
BITMAP
1200
1E00
1B00
0900
3E00
7F80
F180
3180
31C0
3180
3180
3700
FE00
FC00
6E00
6700
6300
63E0
61E0
ENDCHAR
STARTCHAR uni0212.ss01
ENCODING -1
SWIDTH 744 0
DWIDTH 12 0
BBX 11 19 1 0
BITMAP
0700
1F80
1980
0000
3E00
7F80
F180
3180
31C0
3180
3180
3700
FE00
FC00
6E00
6700
6300
63E0
61E0
ENDCHAR
STARTCHAR T.ss01
ENCODING -1
SWIDTH 631 0
DWIDTH 10 0
BBX 11 15 1 0
BITMAP
FFE0
FFE0
0C00
0C00
0C00
0C00
1C00
1C00
1800
1800
1800
1800
1800
3800
1800
ENDCHAR
STARTCHAR Tbar.ss01
ENCODING -1
SWIDTH 631 0
DWIDTH 10 0
BBX 11 15 1 0
BITMAP
FFE0
FFE0
0C00
0C00
0C00
0C00
1C00
7F00
7F00
1800
1800
1800
1800
3800
1800
ENDCHAR
STARTCHAR Tcaron.ss01
ENCODING -1
SWIDTH 631 0
DWIDTH 10 0
BBX 11 20 1 0
BITMAP
0880
1980
0F00
0F00
0600
FFE0
FFE0
0C00
0C00
0C00
0C00
1C00
1C00
1800
1800
1800
1800
1800
3800
1800
ENDCHAR
STARTCHAR uni0162.ss01
ENCODING -1
SWIDTH 631 0
DWIDTH 10 0
BBX 11 19 1 -4
BITMAP
FFE0
FFE0
0C00
0C00
0C00
0C00
1C00
1800
1800
1800
1800
1800
3800
3800
3800
0800
0800
7800
7000
ENDCHAR
STARTCHAR uni021A.ss01
ENCODING -1
SWIDTH 631 0
DWIDTH 10 0
BBX 11 20 1 -5
BITMAP
FFE0
FFE0
0C00
0C00
0C00
0C00
1C00
1C00
1800
1800
1800
1800
1800
3800
1800
0000
1000
3000
3000
3000
ENDCHAR
STARTCHAR U.ss01
ENCODING -1
SWIDTH 800 0
DWIDTH 13 0
BBX 11 15 1 0
BITMAP
3060
3060
3060
3060
3060
70E0
60E0
60E0
61C0
61C0
61C0
E3C0
66C0
7CC0
78C0
ENDCHAR
STARTCHAR Uacute.ss01
ENCODING -1
SWIDTH 800 0
DWIDTH 13 0
BBX 11 19 1 0
BITMAP
0060
00E0
01C0
0300
3060
3060
3060
3060
3060
70E0
60E0
60E0
61C0
61C0
61C0
E3C0
66C0
7CC0
78C0
ENDCHAR
STARTCHAR Ubreve.ss01
ENCODING -1
SWIDTH 800 0
DWIDTH 13 0
BBX 11 18 1 0
BITMAP
0C40
0FC0
0780
3060
3060
3060
3060
3060
70E0
60E0
60E0
61C0
61C0
61C0
E3C0
66C0
7CC0
78C0
ENDCHAR
STARTCHAR Ucircumflex.ss01
ENCODING -1
SWIDTH 800 0
DWIDTH 13 0
BBX 11 20 1 0
BITMAP
0100
0380
0780
0C80
0CC0
3060
3060
3060
3060
3060
70E0
60E0
60E0
61C0
61C0
61C0
E3C0
66C0
7CC0
78C0
ENDCHAR
STARTCHAR uni0214.ss01
ENCODING -1
SWIDTH 800 0
DWIDTH 13 0
BBX 11 19 1 0
BITMAP
0900
0F00
0D80
0480
3060
3060
3060
3060
3060
70E0
60E0
60E0
61C0
61C0
61C0
E3C0
66C0
7CC0
78C0
ENDCHAR
STARTCHAR Udieresis.ss01
ENCODING -1
SWIDTH 800 0
DWIDTH 13 0
BBX 11 18 1 0
BITMAP
04C0
0FC0
0CC0
3060
3060
3060
3060
3060
70E0
60E0
60E0
61C0
61C0
61C0
E3C0
66C0
7CC0
78C0
ENDCHAR
STARTCHAR uni1EE4.ss01
ENCODING -1
SWIDTH 800 0
DWIDTH 13 0
BBX 11 19 1 -4
BITMAP
3060
3060
3060
3060
3060
70E0
60E0
60E0
61C0
61C0
61C0
E3C0
66C0
7CC0
78C0
0000
0C00
1C00
0C00
ENDCHAR
STARTCHAR Ugrave.ss01
ENCODING -1
SWIDTH 800 0
DWIDTH 13 0
BBX 11 19 1 0
BITMAP
1000
3C00
0E00
0200
3060
3060
3060
3060
3060
70E0
60E0
60E0
61C0
61C0
61C0
E3C0
66C0
7CC0
78C0
ENDCHAR
STARTCHAR uni1EE6.ss01
ENCODING -1
SWIDTH 800 0
DWIDTH 13 0
BBX 11 19 1 0
BITMAP
0380
0780
0380
0380
3060
3060
3060
3060
3060
70E0
60E0
60E0
61C0
61C0
61C0
E3C0
66C0
7CC0
78C0
ENDCHAR
STARTCHAR Uhorn.ss01
ENCODING -1
SWIDTH 800 0
DWIDTH 13 0
BBX 14 17 1 0
BITMAP
000C
000C
3078
3078
3060
3060
3060
70E0
60E0
60E0
61C0
61C0
61C0
E3C0
66C0
7CC0
78C0
ENDCHAR
STARTCHAR uni1EE8.ss01
ENCODING -1
SWIDTH 800 0
DWIDTH 13 0
BBX 14 19 1 0
BITMAP
0060
00E0
01CC
030C
3078
3078
3060
3060
3060
70E0
60E0
60E0
61C0
61C0
61C0
E3C0
66C0
7CC0
78C0
ENDCHAR
STARTCHAR uni1EF0.ss01
ENCODING -1
SWIDTH 800 0
DWIDTH 13 0
BBX 14 21 1 -4
BITMAP
000C
000C
3078
3078
3060
3060
3060
70E0
60E0
60E0
61C0
61C0
61C0
E3C0
66C0
7CC0
78C0
0000
0C00
1C00
0C00
ENDCHAR
STARTCHAR uni1EEA.ss01
ENCODING -1
SWIDTH 800 0
DWIDTH 13 0
BBX 14 19 1 0
BITMAP
1000
3C00
0E0C
020C
3078
3078
3060
3060
3060
70E0
60E0
60E0
61C0
61C0
61C0
E3C0
66C0
7CC0
78C0
ENDCHAR
STARTCHAR uni1EEC.ss01
ENCODING -1
SWIDTH 800 0
DWIDTH 13 0
BBX 14 19 1 0
BITMAP
0380
0780
038C
038C
3078
3078
3060
3060
3060
70E0
60E0
60E0
61C0
61C0
61C0
E3C0
66C0
7CC0
78C0
ENDCHAR
STARTCHAR uni1EEE.ss01
ENCODING -1
SWIDTH 800 0
DWIDTH 13 0
BBX 14 19 1 0
BITMAP
0400
0E60
0BCC
09CC
3078
3078
3060
3060
3060
70E0
60E0
60E0
61C0
61C0
61C0
E3C0
66C0
7CC0
78C0
ENDCHAR
STARTCHAR Uhungarumlaut.ss01
ENCODING -1
SWIDTH 800 0
DWIDTH 13 0
BBX 11 19 1 0
BITMAP
02C0
06C0
06C0
0480
3060
3060
3060
3060
3060
70E0
60E0
60E0
61C0
61C0
61C0
E3C0
66C0
7CC0
78C0
ENDCHAR
STARTCHAR uni0216.ss01
ENCODING -1
SWIDTH 800 0
DWIDTH 13 0
BBX 11 19 1 0
BITMAP
0380
0FC0
0CC0
0000
3060
3060
3060
3060
3060
70E0
60E0
60E0
61C0
61C0
61C0
E3C0
66C0
7CC0
78C0
ENDCHAR
STARTCHAR Umacron.ss01
ENCODING -1
SWIDTH 800 0
DWIDTH 13 0
BBX 11 17 1 0
BITMAP
0F80
0F80
3060
3060
3060
3060
3060
70E0
60E0
60E0
61C0
61C0
61C0
E3C0
66C0
7CC0
78C0
ENDCHAR
STARTCHAR Uogonek.ss01
ENCODING -1
SWIDTH 800 0
DWIDTH 13 0
BBX 11 20 1 -5
BITMAP
3060
3060
3060
3060
3060
70E0
60E0
60E0
61C0
61C0
61C0
E3C0
66C0
7CC0
78C0
0180
0100
0100
01E0
00C0
ENDCHAR
STARTCHAR Uring.ss01
ENCODING -1
SWIDTH 800 0
DWIDTH 13 0
BBX 11 20 1 0
BITMAP
0380
0780
0480
0780
0300
3060
3060
3060
3060
3060
70E0
60E0
60E0
61C0
61C0
61C0
E3C0
66C0
7CC0
78C0
ENDCHAR
STARTCHAR Utilde.ss01
ENCODING -1
SWIDTH 800 0
DWIDTH 13 0
BBX 11 19 1 0
BITMAP
0400
0E60
0BC0
09C0
3060
3060
3060
3060
3060
70E0
60E0
60E0
61C0
61C0
61C0
E3C0
66C0
7CC0
78C0
ENDCHAR
STARTCHAR V.ss01
ENCODING -1
SWIDTH 797 0
DWIDTH 13 0
BBX 11 15 2 0
BITMAP
6060
E060
E0E0
C0E0
C0C0
C0C0
C1C0
C180
C180
C380
E300
E700
6E00
7C00
3800
ENDCHAR
STARTCHAR W.ss01
ENCODING -1
SWIDTH 1236 0
DWIDTH 20 0
BBX 18 15 2 0
BITMAP
60C0C0
E0C0C0
E0C1C0
C1C1C0
C1C180
C1C180
C1C380
C3C300
C3C300
C3C300
C6C600
E6C600
6CEC00
7C7800
387000
ENDCHAR
STARTCHAR Wacute.ss01
ENCODING -1
SWIDTH 1236 0
DWIDTH 20 0
BBX 18 19 2 0
BITMAP
000800
003C00
007000
004000
60C0C0
E0C0C0
E0C1C0
C1C1C0
C1C180
C1C180
C1C380
C3C300
C3C300
C3C300
C6C600
E6C600
6CEC00
7C7800
387000
ENDCHAR
STARTCHAR Wcircumflex.ss01
ENCODING -1
SWIDTH 1236 0
DWIDTH 20 0
BBX 18 20 2 0
BITMAP
004000
00E000
00B000
01B000
013000
60C0C0
E0C0C0
E0C1C0
C1C1C0
C1C180
C1C180
C1C380
C3C300
C3C300
C3C300
C6C600
E6C600
6CEC00
7C7800
387000
ENDCHAR
STARTCHAR Wdieresis.ss01
ENCODING -1
SWIDTH 1236 0
DWIDTH 20 0
BBX 18 18 2 0
BITMAP
01B000
01B000
01B000
60C0C0
E0C0C0
E0C1C0
C1C1C0
C1C180
C1C180
C1C380
C3C300
C3C300
C3C300
C6C600
E6C600
6CEC00
7C7800
387000
ENDCHAR
STARTCHAR Wgrave.ss01
ENCODING -1
SWIDTH 1236 0
DWIDTH 20 0
BBX 18 19 2 0
BITMAP
060000
070000
038000
00C000
60C0C0
E0C0C0
E0C1C0
C1C1C0
C1C180
C1C180
C1C380
C3C300
C3C300
C3C300
C6C600
E6C600
6CEC00
7C7800
387000
ENDCHAR
STARTCHAR X.ss01
ENCODING -1
SWIDTH 677 0
DWIDTH 11 0
BBX 13 15 -1 0
BITMAP
1818
1C38
0C70
0E60
06C0
0780
0780
0700
0780
0D80
1DC0
38C0
70C0
60E0
E060
ENDCHAR
STARTCHAR Y.ss01
ENCODING -1
SWIDTH 776 0
DWIDTH 12 0
BBX 11 15 1 0
BITMAP
3060
7060
7060
70E0
60E0
60C0
60C0
61C0
73C0
7EC0
3CC0
0180
4180
FF00
3E00
ENDCHAR
STARTCHAR Yacute.ss01
ENCODING -1
SWIDTH 776 0
DWIDTH 12 0
BBX 11 19 1 0
BITMAP
0040
00E0
0380
0200
3060
7060
7060
70E0
60E0
60C0
60C0
61C0
73C0
7EC0
3CC0
0180
4180
FF00
3E00
ENDCHAR
STARTCHAR Ycircumflex.ss01
ENCODING -1
SWIDTH 776 0
DWIDTH 12 0
BBX 11 20 1 0
BITMAP
0200
0700
0780
0D80
0980
3060
7060
7060
70E0
60E0
60C0
60C0
61C0
73C0
7EC0
3CC0
0180
4180
FF00
3E00
ENDCHAR
STARTCHAR Ydieresis.ss01
ENCODING -1
SWIDTH 776 0
DWIDTH 12 0
BBX 11 18 1 0
BITMAP
0D80
0D80
0D80
3060
7060
7060
70E0
60E0
60C0
60C0
61C0
73C0
7EC0
3CC0
0180
4180
FF00
3E00
ENDCHAR
STARTCHAR uni1EF4.ss01
ENCODING -1
SWIDTH 776 0
DWIDTH 12 0
BBX 11 19 1 -4
BITMAP
3060
7060
7060
70E0
60E0
60C0
60C0
61C0
73C0
7EC0
3CC0
0180
4180
FF00
3E00
0000
1800
1C00
1800
ENDCHAR
STARTCHAR Ygrave.ss01
ENCODING -1
SWIDTH 776 0
DWIDTH 12 0
BBX 11 19 1 0
BITMAP
3000
3800
1C00
0600
3060
7060
7060
70E0
60E0
60C0
60C0
61C0
73C0
7EC0
3CC0
0180
4180
FF00
3E00
ENDCHAR
STARTCHAR uni1EF6.ss01
ENCODING -1
SWIDTH 776 0
DWIDTH 12 0
BBX 11 19 1 0
BITMAP
0700
0780
0380
0300
3060
7060
7060
70E0
60E0
60C0
60C0
61C0
73C0
7EC0
3CC0
0180
4180
FF00
3E00
ENDCHAR
STARTCHAR uni0232.ss01
ENCODING -1
SWIDTH 776 0
DWIDTH 12 0
BBX 11 17 1 0
BITMAP
0F80
0F80
3060
7060
7060
70E0
60E0
60C0
60C0
61C0
73C0
7EC0
3CC0
0180
4180
FF00
3E00
ENDCHAR
STARTCHAR uni1EF8.ss01
ENCODING -1
SWIDTH 776 0
DWIDTH 12 0
BBX 11 19 1 0
BITMAP
0400
0E40
1BC0
1180
3060
7060
7060
70E0
60E0
60C0
60C0
61C0
73C0
7EC0
3CC0
0180
4180
FF00
3E00
ENDCHAR
STARTCHAR Z.ss01
ENCODING -1
SWIDTH 665 0
DWIDTH 11 0
BBX 11 15 0 0
BITMAP
3FE0
7FE0
00E0
01C0
0180
0380
0700
0E00
0E00
1C00
3800
3800
7000
FFC0
FFC0
ENDCHAR
STARTCHAR Zacute.ss01
ENCODING -1
SWIDTH 665 0
DWIDTH 11 0
BBX 11 19 0 0
BITMAP
0060
00E0
01C0
0300
3FE0
7FE0
00E0
01C0
0180
0380
0700
0E00
0E00
1C00
3800
3800
7000
FFC0
FFC0
ENDCHAR
STARTCHAR Zcaron.ss01
ENCODING -1
SWIDTH 665 0
DWIDTH 11 0
BBX 11 20 0 0
BITMAP
0440
04C0
0680
0780
0300
3FE0
7FE0
00E0
01C0
0180
0380
0700
0E00
0E00
1C00
3800
3800
7000
FFC0
FFC0
ENDCHAR
STARTCHAR Zdotaccent.ss01
ENCODING -1
SWIDTH 665 0
DWIDTH 11 0
BBX 11 18 0 0
BITMAP
0300
0300
0300
3FE0
7FE0
00E0
01C0
0180
0380
0700
0E00
0E00
1C00
3800
3800
7000
FFC0
FFC0
ENDCHAR
STARTCHAR i.loclTRK
ENCODING -1
SWIDTH 246 0
DWIDTH 4 0
BBX 5 12 1 0
BITMAP
60
E0
60
00
40
C0
C0
C0
C8
D8
F0
E0
ENDCHAR
STARTCHAR a.fina
ENCODING -1
SWIDTH 458 0
DWIDTH 7 0
BBX 6 8 1 0
BITMAP
30
7C
EC
CC
DC
D8
F8
F8
ENDCHAR
STARTCHAR aacute.fina
ENCODING -1
SWIDTH 458 0
DWIDTH 7 0
BBX 7 14 1 0
BITMAP
06
06
0C
08
18
00
30
7C
EC
CC
DC
D8
F8
F8
ENDCHAR
STARTCHAR abreve.fina
ENCODING -1
SWIDTH 458 0
DWIDTH 7 0
BBX 7 13 1 0
BITMAP
62
66
7E
3C
00
30
7C
EC
CC
DC
D8
F8
F8
ENDCHAR
STARTCHAR uni1EAF.fina
ENCODING -1
SWIDTH 458 0
DWIDTH 7 0
BBX 7 15 1 0
BITMAP
06
0E
4A
66
7E
3C
00
30
7C
EC
CC
DC
D8
F8
F8
ENDCHAR
STARTCHAR uni1EB7.fina
ENCODING -1
SWIDTH 458 0
DWIDTH 7 0
BBX 7 17 1 -4
BITMAP
62
66
7E
3C
00
30
7C
EC
CC
DC
D8
F8
F8
00
60
60
60
ENDCHAR
STARTCHAR uni1EB1.fina
ENCODING -1
SWIDTH 458 0
DWIDTH 7 0
BBX 7 15 1 0
BITMAP
30
38
4A
66
7E
18
00
30
7C
EC
CC
DC
D8
F8
F8
ENDCHAR
STARTCHAR uni1EB3.fina
ENCODING -1
SWIDTH 458 0
DWIDTH 7 0
BBX 7 15 1 0
BITMAP
1C
04
18
62
7E
3C
00
30
7C
EC
CC
DC
D8
F8
F8
ENDCHAR
STARTCHAR uni1EB5.fina
ENCODING -1
SWIDTH 458 0
DWIDTH 7 0
BBX 8 16 1 0
BITMAP
11
3B
6E
44
62
7E
3C
00
30
7C
EC
CC
DC
D8
F8
F8
ENDCHAR
STARTCHAR acircumflex.fina
ENCODING -1
SWIDTH 458 0
DWIDTH 7 0
BBX 7 15 1 0
BITMAP
08
1C
14
34
26
66
00
30
7C
EC
CC
DC
D8
F8
F8
ENDCHAR
STARTCHAR uni1EA5.fina
ENCODING -1
SWIDTH 458 0
DWIDTH 7 0
BBX 9 15 1 0
BITMAP
0180
0380
0A00
1C00
3400
6600
0000
3000
7C00
EC00
CC00
DC00
D800
F800
F800
ENDCHAR
STARTCHAR uni1EAD.fina
ENCODING -1
SWIDTH 458 0
DWIDTH 7 0
BBX 7 19 1 -4
BITMAP
08
1C
14
34
26
66
00
30
7C
EC
CC
DC
D8
F8
F8
00
60
60
60
ENDCHAR
STARTCHAR uni1EA7.fina
ENCODING -1
SWIDTH 458 0
DWIDTH 7 0
BBX 7 15 1 0
BITMAP
C0
E0
28
1C
34
66
00
30
7C
EC
CC
DC
D8
F8
F8
ENDCHAR
STARTCHAR uni1EA9.fina
ENCODING -1
SWIDTH 458 0
DWIDTH 7 0
BBX 9 15 1 0
BITMAP
0380
0080
1F80
3C00
6600
0000
0000
3000
7C00
EC00
CC00
DC00
D800
F800
F800
ENDCHAR
STARTCHAR uni1EAB.fina
ENCODING -1
SWIDTH 458 0
DWIDTH 7 0
BBX 8 15 1 0
BITMAP
33
2E
00
1C
34
66
00
30
7C
EC
CC
DC
D8
F8
F8
ENDCHAR
STARTCHAR uni0201.fina
ENCODING -1
SWIDTH 458 0
DWIDTH 7 0
BBX 6 14 1 0
BITMAP
D8
D8
68
6C
24
00
30
7C
EC
CC
DC
D8
F8
F8
ENDCHAR
STARTCHAR adieresis.fina
ENCODING -1
SWIDTH 458 0
DWIDTH 7 0
BBX 7 12 1 0
BITMAP
26
76
66
00
30
7C
EC
CC
DC
D8
F8
F8
ENDCHAR
STARTCHAR uni1EA1.fina
ENCODING -1
SWIDTH 458 0
DWIDTH 7 0
BBX 6 12 1 -4
BITMAP
30
7C
EC
CC
DC
D8
F8
F8
00
60
60
60
ENDCHAR
STARTCHAR agrave.fina
ENCODING -1
SWIDTH 458 0
DWIDTH 7 0
BBX 6 14 1 0
BITMAP
60
60
30
10
18
00
30
7C
EC
CC
DC
D8
F8
F8
ENDCHAR
STARTCHAR uni1EA3.fina
ENCODING -1
SWIDTH 458 0
DWIDTH 7 0
BBX 6 14 1 0
BITMAP
1C
1C
04
1C
18
00
30
7C
EC
CC
DC
D8
F8
F8
ENDCHAR
STARTCHAR uni0203.fina
ENCODING -1
SWIDTH 458 0
DWIDTH 7 0
BBX 7 13 1 0
BITMAP
1C
7E
66
42
00
30
7C
EC
CC
DC
D8
F8
F8
ENDCHAR
STARTCHAR amacron.fina
ENCODING -1
SWIDTH 458 0
DWIDTH 7 0
BBX 7 11 1 0
BITMAP
3E
7C
00
30
7C
EC
CC
DC
D8
F8
F8
ENDCHAR
STARTCHAR aogonek.fina
ENCODING -1
SWIDTH 458 0
DWIDTH 7 0
BBX 7 12 1 -4
BITMAP
30
7C
EC
CC
DC
D8
F8
F8
10
30
1C
1E
ENDCHAR
STARTCHAR aring.fina
ENCODING -1
SWIDTH 458 0
DWIDTH 7 0
BBX 6 14 1 0
BITMAP
1C
3C
24
3C
18
00
30
7C
EC
CC
DC
D8
F8
F8
ENDCHAR
STARTCHAR aringacute.fina
ENCODING -1
SWIDTH 458 0
DWIDTH 7 0
BBX 10 16 1 0
BITMAP
0080
01C0
1D80
3C00
2400
3C00
1800
0000
3000
7C00
EC00
CC00
DC00
D800
F800
F800
ENDCHAR
STARTCHAR atilde.fina
ENCODING -1
SWIDTH 458 0
DWIDTH 7 0
BBX 8 13 1 0
BITMAP
20
7B
7E
4E
00
30
7C
EC
CC
DC
D8
F8
F8
ENDCHAR
STARTCHAR ae.fina
ENCODING -1
SWIDTH 671 0
DWIDTH 11 0
BBX 10 8 1 0
BITMAP
3B80
7F80
CC80
CD80
CF00
DC40
FFC0
E780
ENDCHAR
STARTCHAR aeacute.fina
ENCODING -1
SWIDTH 671 0
DWIDTH 11 0
BBX 10 14 1 0
BITMAP
0180
0180
0300
0200
0600
0000
3B80
7F80
CC80
CD80
CF00
DC40
FFC0
E780
ENDCHAR
STARTCHAR b.fina
ENCODING -1
SWIDTH 475 0
DWIDTH 8 0
BBX 6 16 1 0
BITMAP
18
3C
2C
6C
6C
48
D8
D0
F8
FC
CC
CC
CC
CC
78
70
ENDCHAR
STARTCHAR c.fina
ENCODING -1
SWIDTH 404 0
DWIDTH 6 0
BBX 6 8 1 0
BITMAP
70
F8
D8
D0
C0
CC
F8
70
ENDCHAR
STARTCHAR cacute.fina
ENCODING -1
SWIDTH 404 0
DWIDTH 6 0
BBX 6 14 1 0
BITMAP
0C
0C
18
18
10
00
70
F8
D8
D0
C0
CC
F8
70
ENDCHAR
STARTCHAR ccaron.fina
ENCODING -1
SWIDTH 404 0
DWIDTH 6 0
BBX 7 15 1 0
BITMAP
24
66
6C
28
38
30
00
70
F8
D8
D0
C0
CC
F8
70
ENDCHAR
STARTCHAR ccedilla.fina
ENCODING -1
SWIDTH 404 0
DWIDTH 6 0
BBX 6 13 1 -5
BITMAP
70
F8
D8
D8
C0
C4
DC
F8
70
18
10
F0
C0
ENDCHAR
STARTCHAR ccircumflex.fina
ENCODING -1
SWIDTH 404 0
DWIDTH 6 0
BBX 6 15 1 0
BITMAP
10
38
38
6C
6C
CC
00
70
F8
D8
D0
C0
CC
F8
70
ENDCHAR
STARTCHAR cdotaccent.fina
ENCODING -1
SWIDTH 404 0
DWIDTH 6 0
BBX 6 12 1 0
BITMAP
30
38
30
00
70
F8
D8
D0
C0
CC
F8
70
ENDCHAR
STARTCHAR d.fina
ENCODING -1
SWIDTH 493 0
DWIDTH 8 0
BBX 9 16 1 0
BITMAP
0300
0780
0780
0580
0D80
0D00
0D00
0F00
3E00
7E00
CC00
CC00
CC00
DC00
FC00
EC00
ENDCHAR
STARTCHAR dcaron.fina
ENCODING -1
SWIDTH 458 0
DWIDTH 7 0
BBX 10 16 1 0
BITMAP
00C0
06C0
0680
0680
0600
0600
0400
0C00
3C00
7C00
EC00
CC00
DC00
D800
F800
F800
ENDCHAR
STARTCHAR dcroat.fina
ENCODING -1
SWIDTH 458 0
DWIDTH 7 0
BBX 8 15 1 0
BITMAP
06
06
06
3F
3F
04
0C
3C
7C
EC
CC
DC
D8
F8
F8
ENDCHAR
STARTCHAR uni01C6.fina
ENCODING -1
SWIDTH 876 0
DWIDTH 14 0
BBX 14 22 1 -7
BITMAP
064C
066C
0678
0678
0670
0420
0C88
3DFC
7DF8
EC30
CC60
D8C0
D9C0
FFE0
EE70
00F0
01B0
0130
0360
0260
03C0
0180
ENDCHAR
STARTCHAR e.fina
ENCODING -1
SWIDTH 411 0
DWIDTH 7 0
BBX 6 8 1 0
BITMAP
78
F8
D8
D8
F0
CC
FC
78
ENDCHAR
STARTCHAR eacute.fina
ENCODING -1
SWIDTH 411 0
DWIDTH 7 0
BBX 6 14 1 0
BITMAP
0C
0C
18
18
10
00
78
F8
D8
D8
F0
CC
FC
78
ENDCHAR
STARTCHAR ebreve.fina
ENCODING -1
SWIDTH 411 0
DWIDTH 7 0
BBX 7 13 1 0
BITMAP
C6
C6
7C
38
00
78
F8
D8
D8
F0
CC
FC
78
ENDCHAR
STARTCHAR ecaron.fina
ENCODING -1
SWIDTH 411 0
DWIDTH 7 0
BBX 7 15 1 0
BITMAP
24
66
2C
2C
38
30
00
78
F8
D8
D8
F0
CC
FC
78
ENDCHAR
STARTCHAR ecircumflex.fina
ENCODING -1
SWIDTH 411 0
DWIDTH 7 0
BBX 6 15 1 0
BITMAP
08
18
38
6C
6C
4C
00
78
F8
D8
D8
F0
CC
FC
78
ENDCHAR
STARTCHAR uni1EBF.fina
ENCODING -1
SWIDTH 411 0
DWIDTH 7 0
BBX 8 15 1 0
BITMAP
01
03
14
38
6C
4C
00
78
F8
D8
D8
F0
CC
FC
78
ENDCHAR
STARTCHAR uni1EC7.fina
ENCODING -1
SWIDTH 411 0
DWIDTH 7 0
BBX 6 19 1 -4
BITMAP
08
18
38
6C
6C
4C
00
78
F8
D8
D8
F0
CC
FC
78
00
30
70
70
ENDCHAR
STARTCHAR uni1EC1.fina
ENCODING -1
SWIDTH 411 0
DWIDTH 7 0
BBX 7 15 0 0
BITMAP
C0
E0
28
1C
36
26
00
3C
7C
6C
6C
78
66
7E
3C
ENDCHAR
STARTCHAR uni1EC3.fina
ENCODING -1
SWIDTH 411 0
DWIDTH 7 0
BBX 8 15 1 0
BITMAP
07
01
3B
28
6C
00
00
78
F8
D8
D8
F0
CC
FC
78
ENDCHAR
STARTCHAR uni1EC5.fina
ENCODING -1
SWIDTH 411 0
DWIDTH 7 0
BBX 7 15 1 0
BITMAP
32
7C
00
38
6C
4C
00
78
F8
D8
D8
F0
CC
FC
78
ENDCHAR
STARTCHAR uni0205.fina
ENCODING -1
SWIDTH 411 0
DWIDTH 7 0
BBX 7 14 0 0
BITMAP
58
FC
6C
24
24
00
3C
7C
6C
6C
78
66
7E
3C
ENDCHAR
STARTCHAR edieresis.fina
ENCODING -1
SWIDTH 411 0
DWIDTH 7 0
BBX 6 12 1 0
BITMAP
6C
6C
6C
00
78
F8
D8
D8
F0
CC
FC
78
ENDCHAR
STARTCHAR edotaccent.fina
ENCODING -1
SWIDTH 411 0
DWIDTH 7 0
BBX 6 12 1 0
BITMAP
10
38
30
00
78
F8
D8
D8
F0
CC
FC
78
ENDCHAR
STARTCHAR uni1EB9.fina
ENCODING -1
SWIDTH 411 0
DWIDTH 7 0
BBX 6 12 1 -4
BITMAP
78
F8
D8
D8
F0
CC
FC
78
00
30
70
70
ENDCHAR
STARTCHAR egrave.fina
ENCODING -1
SWIDTH 411 0
DWIDTH 7 0
BBX 6 14 1 0
BITMAP
40
E0
60
30
10
00
78
F8
D8
D8
F0
CC
FC
78
ENDCHAR
STARTCHAR uni1EBB.fina
ENCODING -1
SWIDTH 411 0
DWIDTH 7 0
BBX 6 14 1 0
BITMAP
38
3C
0C
18
38
00
78
F8
D8
D8
F0
CC
FC
78
ENDCHAR
STARTCHAR uni0207.fina
ENCODING -1
SWIDTH 411 0
DWIDTH 7 0
BBX 7 13 1 0
BITMAP
38
7C
C6
C6
00
78
F8
D8
D8
F0
CC
FC
78
ENDCHAR
STARTCHAR emacron.fina
ENCODING -1
SWIDTH 411 0
DWIDTH 7 0
BBX 6 11 1 0
BITMAP
7C
7C
00
78
F8
D8
D8
F0
CC
FC
78
ENDCHAR
STARTCHAR eogonek.fina
ENCODING -1
SWIDTH 411 0
DWIDTH 7 0
BBX 6 13 1 -5
BITMAP
78
F8
D8
D8
B0
E4
CC
F8
30
20
60
3C
18
ENDCHAR
STARTCHAR uni1EBD.fina
ENCODING -1
SWIDTH 411 0
DWIDTH 7 0
BBX 7 13 1 0
BITMAP
20
76
FE
8C
00
78
F8
D8
D8
F0
CC
FC
78
ENDCHAR
STARTCHAR g.fina
ENCODING -1
SWIDTH 449 0
DWIDTH 7 0
BBX 7 16 0 -8
BITMAP
18
3E
76
66
6E
6C
7C
7C
1C
3C
68
58
D8
D8
F0
60
ENDCHAR
STARTCHAR gbreve.fina
ENCODING -1
SWIDTH 449 0
DWIDTH 7 0
BBX 8 21 0 -8
BITMAP
31
33
3F
1E
00
18
3E
76
66
6E
6C
7C
7C
1C
3C
68
58
D8
D8
F0
60
ENDCHAR
STARTCHAR gcaron.fina
ENCODING -1
SWIDTH 449 0
DWIDTH 7 0
BBX 8 23 0 -8
BITMAP
11
1B
1B
1A
0E
0C
00
18
3E
76
66
6E
6C
7C
7C
1C
3C
68
58
D8
D8
F0
60
ENDCHAR
STARTCHAR gcircumflex.fina
ENCODING -1
SWIDTH 449 0
DWIDTH 7 0
BBX 8 23 0 -8
BITMAP
04
0E
0A
1A
13
33
00
18
3E
76
66
6E
6C
7C
7C
1C
3C
68
58
D8
D8
F0
60
ENDCHAR
STARTCHAR uni0123.fina
ENCODING -1
SWIDTH 449 0
DWIDTH 7 0
BBX 7 21 0 -8
BITMAP
04
0C
0C
0C
00
18
3E
76
66
6E
6C
7C
7C
1C
3C
68
58
D8
D8
F0
60
ENDCHAR
STARTCHAR gdotaccent.fina
ENCODING -1
SWIDTH 449 0
DWIDTH 7 0
BBX 7 20 0 -8
BITMAP
0C
0E
0C
00
18
3E
76
66
6E
6C
7C
7C
1C
3C
68
58
D8
D8
F0
60
ENDCHAR
STARTCHAR h.fina
ENCODING -1
SWIDTH 490 0
DWIDTH 8 0
BBX 6 16 1 0
BITMAP
18
3C
2C
6C
6C
48
D8
D0
EC
DC
DC
EC
EC
CC
CC
CC
ENDCHAR
STARTCHAR hbar.fina
ENCODING -1
SWIDTH 490 0
DWIDTH 8 0
BBX 6 15 1 0
BITMAP
30
30
60
FC
FC
60
60
CC
DC
DC
EC
EC
CC
CC
CC
ENDCHAR
STARTCHAR hcircumflex.fina
ENCODING -1
SWIDTH 490 0
DWIDTH 8 0
BBX 7 22 1 0
BITMAP
08
1C
1E
36
26
00
18
3C
2C
6C
6C
48
D8
D0
EC
DC
DC
EC
EC
CC
CC
CC
ENDCHAR
STARTCHAR i.fina
ENCODING -1
SWIDTH 222 0
DWIDTH 4 0
BBX 4 12 1 0
BITMAP
60
70
60
00
40
C0
C0
C0
C0
C0
C0
80
ENDCHAR
STARTCHAR dotlessi.fina
ENCODING -1
SWIDTH 222 0
DWIDTH 4 0
BBX 2 8 1 0
BITMAP
40
C0
C0
C0
C0
C0
C0
80
ENDCHAR
STARTCHAR iacute.fina
ENCODING -1
SWIDTH 222 0
DWIDTH 4 0
BBX 5 14 1 0
BITMAP
18
38
30
20
40
00
40
C0
C0
C0
C0
C0
C0
80
ENDCHAR
STARTCHAR iacute_j.loclNLD.fina
ENCODING -1
SWIDTH 479 0
DWIDTH 8 0
BBX 9 22 0 -8
BITMAP
0C80
0D80
1980
1300
3200
0000
2600
6600
6600
6E00
6C00
7C00
7C00
6C00
1C00
3C00
6800
5800
D800
D000
F000
E000
ENDCHAR
STARTCHAR ibreve.fina
ENCODING -1
SWIDTH 222 0
DWIDTH 4 0
BBX 6 13 0 0
BITMAP
84
CC
FC
78
00
20
60
60
60
60
60
60
40
ENDCHAR
STARTCHAR icircumflex.fina
ENCODING -1
SWIDTH 222 0
DWIDTH 4 0
BBX 5 15 0 0
BITMAP
10
38
38
78
C8
C8
00
20
60
60
60
60
60
60
40
ENDCHAR
STARTCHAR uni0209.fina
ENCODING -1
SWIDTH 222 0
DWIDTH 4 0
BBX 6 14 -1 0
BITMAP
D8
D8
58
6C
24
00
10
30
30
30
30
30
30
20
ENDCHAR
STARTCHAR idieresis.fina
ENCODING -1
SWIDTH 222 0
DWIDTH 4 0
BBX 6 12 0 0
BITMAP
4C
DC
CC
00
20
60
60
60
60
60
60
40
ENDCHAR
STARTCHAR i.loclTRK.fina
ENCODING -1
SWIDTH 222 0
DWIDTH 4 0
BBX 3 12 1 0
BITMAP
60
E0
60
00
40
C0
C0
C0
C0
C0
C0
80
ENDCHAR
STARTCHAR uni1ECB.fina
ENCODING -1
SWIDTH 222 0
DWIDTH 4 0
BBX 5 16 0 -4
BITMAP
30
38
30
00
20
60
60
60
60
60
60
40
00
C0
E0
C0
ENDCHAR
STARTCHAR igrave.fina
ENCODING -1
SWIDTH 222 0
DWIDTH 4 0
BBX 3 14 0 0
BITMAP
C0
C0
60
60
20
00
20
60
60
60
60
60
60
40
ENDCHAR
STARTCHAR uni1EC9.fina
ENCODING -1
SWIDTH 222 0
DWIDTH 4 0
BBX 4 14 1 0
BITMAP
60
F0
10
70
60
00
40
C0
C0
C0
C0
C0
C0
80
ENDCHAR
STARTCHAR uni020B.fina
ENCODING -1
SWIDTH 222 0
DWIDTH 4 0
BBX 6 13 0 0
BITMAP
38
FC
CC
84
00
20
60
60
60
60
60
60
40
ENDCHAR
STARTCHAR imacron.fina
ENCODING -1
SWIDTH 222 0
DWIDTH 4 0
BBX 5 11 0 0
BITMAP
F8
F8
00
20
60
60
60
60
60
60
40
ENDCHAR
STARTCHAR iogonek.fina
ENCODING -1
SWIDTH 222 0
DWIDTH 4 0
BBX 4 16 0 -4
BITMAP
30
70
30
00
20
60
60
60
60
60
60
40
80
80
F0
F0
ENDCHAR
STARTCHAR itilde.fina
ENCODING -1
SWIDTH 222 0
DWIDTH 4 0
BBX 6 13 0 0
BITMAP
40
E4
BC
98
00
20
60
60
60
60
60
60
40
ENDCHAR
STARTCHAR j.fina
ENCODING -1
SWIDTH 229 0
DWIDTH 4 0
BBX 8 20 -4 -8
BITMAP
03
07
07
00
06
06
06
06
06
06
06
04
0C
1C
3C
6C
48
D8
F0
70
ENDCHAR
STARTCHAR uni0237.fina
ENCODING -1
SWIDTH 229 0
DWIDTH 4 0
BBX 7 16 -4 -8
BITMAP
06
06
06
06
06
06
06
04
0C
1C
3C
6C
48
D8
F0
70
ENDCHAR
STARTCHAR jcircumflex.fina
ENCODING -1
SWIDTH 229 0
DWIDTH 4 0
BBX 9 23 -4 -8
BITMAP
0100
0380
0780
0780
0D80
0C80
0000
0600
0600
0600
0600
0600
0600
0600
0400
0C00
1C00
3C00
6C00
4800
D800
F000
7000
ENDCHAR
STARTCHAR k.fina
ENCODING -1
SWIDTH 521 0
DWIDTH 8 0
BBX 7 16 1 0
BITMAP
18
3C
2C
6C
68
48
D8
F0
EE
DE
F6
E6
FC
D8
DE
CE
ENDCHAR
STARTCHAR uni0137.fina
ENCODING -1
SWIDTH 521 0
DWIDTH 8 0
BBX 7 21 1 -5
BITMAP
18
3C
2C
6C
68
48
D8
F0
EE
DE
F6
E6
FC
D8
DE
CE
00
30
30
20
20
ENDCHAR
STARTCHAR kgreenlandic.fina
ENCODING -1
SWIDTH 541 0
DWIDTH 9 0
BBX 8 8 1 0
BITMAP
4E
DE
F6
F6
F0
F1
DF
DE
ENDCHAR
STARTCHAR l.fina
ENCODING -1
SWIDTH 368 0
DWIDTH 6 0
BBX 6 16 1 0
BITMAP
18
3C
2C
6C
6C
4C
C8
D8
D0
F0
E0
E0
C0
C8
F8
70
ENDCHAR
STARTCHAR lacute.fina
ENCODING -1
SWIDTH 368 0
DWIDTH 6 0
BBX 9 21 1 0
BITMAP
0100
0780
0E00
0800
0000
1800
3C00
2C00
6C00
6C00
4C00
C800
D800
D000
F000
E000
E000
C000
C800
F800
7000
ENDCHAR
STARTCHAR lcaron.fina
ENCODING -1
SWIDTH 368 0
DWIDTH 6 0
BBX 8 16 1 0
BITMAP
19
3F
2F
6F
6C
4C
C8
D8
D0
F0
E0
E0
C0
C8
F8
70
ENDCHAR
STARTCHAR uni013C.fina
ENCODING -1
SWIDTH 368 0
DWIDTH 6 0
BBX 6 21 1 -5
BITMAP
18
3C
2C
6C
6C
4C
C8
D8
D0
F0
E0
E0
C0
C8
F8
70
00
60
60
40
40
ENDCHAR
STARTCHAR ldot.fina
ENCODING -1
SWIDTH 466 0
DWIDTH 7 0
BBX 7 16 1 0
BITMAP
30
30
70
60
60
60
60
F8
D8
D8
C0
C0
C2
C6
FC
78
ENDCHAR
STARTCHAR uni01C9.fina
ENCODING -1
SWIDTH 555 0
DWIDTH 9 0
BBX 8 24 1 -8
BITMAP
18
3C
2C
6C
6F
4F
CB
D8
D3
F6
E6
E6
C6
CE
FE
76
0E
1C
3C
6C
4C
58
78
70
ENDCHAR
STARTCHAR lslash.fina
ENCODING -1
SWIDTH 368 0
DWIDTH 6 0
BBX 8 18 1 0
BITMAP
0E
3F
60
18
3C
6C
6C
6C
C8
C8
D8
D0
F0
E0
C0
C8
78
70
ENDCHAR
STARTCHAR m.fina
ENCODING -1
SWIDTH 732 0
DWIDTH 12 0
BBX 10 8 1 0
BITMAP
4CC0
DDC0
FFC0
EEC0
EEC0
CCC0
CCC0
CCC0
ENDCHAR
STARTCHAR n.fina
ENCODING -1
SWIDTH 484 0
DWIDTH 8 0
BBX 6 8 1 0
BITMAP
4C
DC
FC
EC
EC
CC
CC
CC
ENDCHAR
STARTCHAR nacute.fina
ENCODING -1
SWIDTH 484 0
DWIDTH 8 0
BBX 7 14 1 0
BITMAP
06
06
0C
08
18
00
4C
DC
FC
EC
EC
CC
CC
CC
ENDCHAR
STARTCHAR napostrophe.fina
ENCODING -1
SWIDTH 484 0
DWIDTH 8 0
BBX 7 13 0 0
BITMAP
C0
C0
C0
80
00
26
6E
7E
76
76
66
66
66
ENDCHAR
STARTCHAR ncaron.fina
ENCODING -1
SWIDTH 484 0
DWIDTH 8 0
BBX 7 15 1 0
BITMAP
22
32
36
14
1C
18
00
4C
DC
FC
EC
EC
CC
CC
CC
ENDCHAR
STARTCHAR uni0146.fina
ENCODING -1
SWIDTH 484 0
DWIDTH 8 0
BBX 6 13 1 -5
BITMAP
4C
DC
FC
EC
EC
CC
CC
CC
00
30
30
20
20
ENDCHAR
STARTCHAR eng.fina
ENCODING -1
SWIDTH 484 0
DWIDTH 8 0
BBX 7 13 0 -5
BITMAP
26
6E
7E
76
76
66
64
6C
0C
0C
48
D8
70
ENDCHAR
STARTCHAR uni01CC.fina
ENCODING -1
SWIDTH 725 0
DWIDTH 12 0
BBX 11 20 1 -8
BITMAP
0060
00E0
00E0
0000
4CC0
DCC0
FCC0
ECC0
ECC0
CDC0
CFC0
CE80
0180
0380
0780
0D80
0900
1B00
1E00
0E00
ENDCHAR
STARTCHAR ntilde.fina
ENCODING -1
SWIDTH 484 0
DWIDTH 8 0
BBX 8 13 1 0
BITMAP
20
7B
7E
46
00
4C
DC
FC
EC
EC
CC
CC
CC
ENDCHAR
STARTCHAR o.fina
ENCODING -1
SWIDTH 453 0
DWIDTH 7 0
BBX 6 8 1 0
BITMAP
78
F8
CC
CC
CC
CC
F8
70
ENDCHAR
STARTCHAR oacute.fina
ENCODING -1
SWIDTH 453 0
DWIDTH 7 0
BBX 6 14 1 0
BITMAP
0C
0C
18
18
10
00
78
F8
CC
CC
CC
CC
F8
70
ENDCHAR
STARTCHAR obreve.fina
ENCODING -1
SWIDTH 453 0
DWIDTH 7 0
BBX 7 13 1 0
BITMAP
C6
C6
7C
78
00
78
F8
CC
CC
CC
CC
F8
70
ENDCHAR
STARTCHAR ocircumflex.fina
ENCODING -1
SWIDTH 453 0
DWIDTH 7 0
BBX 6 15 1 0
BITMAP
10
38
38
6C
6C
CC
00
78
F8
CC
CC
CC
CC
F8
70
ENDCHAR
STARTCHAR uni1ED1.fina
ENCODING -1
SWIDTH 453 0
DWIDTH 7 0
BBX 8 15 1 0
BITMAP
03
07
14
38
6C
CC
00
78
F8
CC
CC
CC
CC
F8
70
ENDCHAR
STARTCHAR uni1ED9.fina
ENCODING -1
SWIDTH 453 0
DWIDTH 7 0
BBX 6 19 1 -4
BITMAP
10
38
38
6C
6C
CC
00
78
F8
CC
CC
CC
CC
F8
70
00
60
70
60
ENDCHAR
STARTCHAR uni1ED3.fina
ENCODING -1
SWIDTH 453 0
DWIDTH 7 0
BBX 7 15 0 0
BITMAP
C0
E0
28
1C
36
66
00
3C
7C
66
66
66
66
7C
38
ENDCHAR
STARTCHAR uni1ED5.fina
ENCODING -1
SWIDTH 453 0
DWIDTH 7 0
BBX 8 15 1 0
BITMAP
07
01
3B
68
EC
00
00
78
F8
CC
CC
CC
CC
F8
70
ENDCHAR
STARTCHAR uni1ED7.fina
ENCODING -1
SWIDTH 453 0
DWIDTH 7 0
BBX 7 15 1 0
BITMAP
36
5C
00
38
6C
CC
00
78
F8
CC
CC
CC
CC
F8
70
ENDCHAR
STARTCHAR uni020D.fina
ENCODING -1
SWIDTH 453 0
DWIDTH 7 0
BBX 7 14 0 0
BITMAP
D8
F8
6C
2C
24
00
3C
7C
66
66
66
66
7C
38
ENDCHAR
STARTCHAR odieresis.fina
ENCODING -1
SWIDTH 453 0
DWIDTH 7 0
BBX 6 12 1 0
BITMAP
6C
6C
6C
00
78
F8
CC
CC
CC
CC
F8
70
ENDCHAR
STARTCHAR uni022B.fina
ENCODING -1
SWIDTH 453 0
DWIDTH 7 0
BBX 6 15 1 0
BITMAP
7C
7C
00
6C
6C
6C
00
78
F8
CC
CC
CC
CC
F8
70
ENDCHAR
STARTCHAR uni0231.fina
ENCODING -1
SWIDTH 453 0
DWIDTH 7 0
BBX 6 15 1 0
BITMAP
7C
7C
00
30
38
30
00
78
F8
CC
CC
CC
CC
F8
70
ENDCHAR
STARTCHAR uni1ECD.fina
ENCODING -1
SWIDTH 453 0
DWIDTH 7 0
BBX 6 12 1 -4
BITMAP
78
F8
CC
CC
CC
CC
F8
70
00
60
70
60
ENDCHAR
STARTCHAR ograve.fina
ENCODING -1
SWIDTH 453 0
DWIDTH 7 0
BBX 6 14 1 0
BITMAP
C0
E0
60
20
10
00
78
F8
CC
CC
CC
CC
F8
70
ENDCHAR
STARTCHAR uni1ECF.fina
ENCODING -1
SWIDTH 453 0
DWIDTH 7 0
BBX 6 14 1 0
BITMAP
38
38
0C
38
38
00
78
F8
CC
CC
CC
CC
F8
70
ENDCHAR
STARTCHAR ohorn.fina
ENCODING -1
SWIDTH 453 0
DWIDTH 7 0
BBX 7 10 1 0
BITMAP
06
06
7C
F8
CC
CC
CC
CC
F8
70
ENDCHAR
STARTCHAR uni1EDB.fina
ENCODING -1
SWIDTH 453 0
DWIDTH 7 0
BBX 7 14 1 0
BITMAP
0C
0C
18
10
36
06
7C
F8
CC
CC
CC
CC
F8
70
ENDCHAR
STARTCHAR uni1EE3.fina
ENCODING -1
SWIDTH 453 0
DWIDTH 7 0
BBX 7 14 1 -4
BITMAP
06
06
7C
F8
CC
CC
CC
CC
F8
70
00
60
70
60
ENDCHAR
STARTCHAR uni1EDD.fina
ENCODING -1
SWIDTH 453 0
DWIDTH 7 0
BBX 7 14 1 0
BITMAP
C0
C0
60
60
26
06
7C
F8
CC
CC
CC
CC
F8
70
ENDCHAR
STARTCHAR uni1EDF.fina
ENCODING -1
SWIDTH 453 0
DWIDTH 7 0
BBX 7 14 1 0
BITMAP
38
78
08
38
36
06
7C
F8
CC
CC
CC
CC
F8
70
ENDCHAR
STARTCHAR uni1EE1.fina
ENCODING -1
SWIDTH 453 0
DWIDTH 7 0
BBX 7 13 1 0
BITMAP
44
64
FC
9E
06
7C
F8
CC
CC
CC
CC
F8
70
ENDCHAR
STARTCHAR ohungarumlaut.fina
ENCODING -1
SWIDTH 453 0
DWIDTH 7 0
BBX 7 14 1 0
BITMAP
36
36
34
6C
48
00
78
F8
CC
CC
CC
CC
F8
70
ENDCHAR
STARTCHAR uni020F.fina
ENCODING -1
SWIDTH 453 0
DWIDTH 7 0
BBX 7 13 1 0
BITMAP
38
7C
C6
C6
00
78
F8
CC
CC
CC
CC
F8
70
ENDCHAR
STARTCHAR omacron.fina
ENCODING -1
SWIDTH 453 0
DWIDTH 7 0
BBX 6 11 1 0
BITMAP
7C
7C
00
78
F8
CC
CC
CC
CC
F8
70
ENDCHAR
STARTCHAR uni01EB.fina
ENCODING -1
SWIDTH 453 0
DWIDTH 7 0
BBX 6 12 1 -4
BITMAP
78
F8
CC
CC
CC
CC
F8
70
60
60
78
38
ENDCHAR
STARTCHAR oslash.fina
ENCODING -1
SWIDTH 463 0
DWIDTH 7 0
BBX 6 12 1 -2
BITMAP
10
10
78
FC
DC
EC
AC
EC
F8
70
20
40
ENDCHAR
STARTCHAR oslashacute.fina
ENCODING -1
SWIDTH 463 0
DWIDTH 7 0
BBX 6 16 1 -2
BITMAP
18
38
30
20
50
10
78
FC
DC
EC
AC
EC
F8
70
20
40
ENDCHAR
STARTCHAR otilde.fina
ENCODING -1
SWIDTH 453 0
DWIDTH 7 0
BBX 7 13 1 0
BITMAP
20
76
FE
8C
00
78
F8
CC
CC
CC
CC
F8
70
ENDCHAR
STARTCHAR uni022D.fina
ENCODING -1
SWIDTH 453 0
DWIDTH 7 0
BBX 7 15 1 0
BITMAP
7C
7C
20
76
FE
8C
00
78
F8
CC
CC
CC
CC
F8
70
ENDCHAR
STARTCHAR oe.fina
ENCODING -1
SWIDTH 686 0
DWIDTH 11 0
BBX 10 8 1 0
BITMAP
7380
FFC0
CCC0
CD80
CF00
CC40
FFC0
7780
ENDCHAR
STARTCHAR p.fina
ENCODING -1
SWIDTH 457 0
DWIDTH 7 0
BBX 9 16 -2 -8
BITMAP
1B00
1F80
1980
1980
1980
1B00
3F00
3E00
5800
5800
5800
D000
D000
F000
F000
6000
ENDCHAR
STARTCHAR thorn.fina
ENCODING -1
SWIDTH 483 0
DWIDTH 8 0
BBX 8 19 0 -5
BITMAP
10
30
30
30
60
60
6E
7E
77
76
66
6E
7C
70
C0
C0
C0
C0
C0
ENDCHAR
STARTCHAR q.fina
ENCODING -1
SWIDTH 449 0
DWIDTH 7 0
BBX 6 14 1 -5
BITMAP
04
3C
7C
EC
CC
D8
D8
F8
F8
18
18
30
30
30
ENDCHAR
STARTCHAR r.fina
ENCODING -1
SWIDTH 495 0
DWIDTH 8 0
BBX 7 8 1 0
BITMAP
4C
DC
FE
EE
EC
C0
C0
C0
ENDCHAR
STARTCHAR racute.fina
ENCODING -1
SWIDTH 495 0
DWIDTH 8 0
BBX 7 14 1 0
BITMAP
04
0E
0C
18
10
00
4C
DC
FE
EE
EC
C0
C0
C0
ENDCHAR
STARTCHAR rcaron.fina
ENCODING -1
SWIDTH 495 0
DWIDTH 8 0
BBX 7 15 1 0
BITMAP
22
26
34
3C
38
18
00
4C
DC
FE
EE
EC
C0
C0
C0
ENDCHAR
STARTCHAR uni0157.fina
ENCODING -1
SWIDTH 495 0
DWIDTH 8 0
BBX 7 13 1 -5
BITMAP
4C
DC
FE
EE
EC
C0
C0
C0
00
C0
C0
80
80
ENDCHAR
STARTCHAR uni0211.fina
ENCODING -1
SWIDTH 495 0
DWIDTH 8 0
BBX 7 14 1 0
BITMAP
D8
D8
D8
6C
24
00
4C
DC
FE
EE
EC
C0
C0
C0
ENDCHAR
STARTCHAR uni0213.fina
ENCODING -1
SWIDTH 495 0
DWIDTH 8 0
BBX 7 13 1 0
BITMAP
3C
7E
66
42
00
4C
DC
FE
EE
EC
C0
C0
C0
ENDCHAR
STARTCHAR s.fina
ENCODING -1
SWIDTH 394 0
DWIDTH 6 0
BBX 6 8 0 0
BITMAP
18
18
38
38
6C
CC
BC
38
ENDCHAR
STARTCHAR sacute.fina
ENCODING -1
SWIDTH 394 0
DWIDTH 6 0
BBX 7 14 0 0
BITMAP
06
06
0C
0C
08
00
18
18
38
38
6C
CC
BC
38
ENDCHAR
STARTCHAR scaron.fina
ENCODING -1
SWIDTH 394 0
DWIDTH 6 0
BBX 8 15 0 0
BITMAP
12
33
36
14
1C
18
00
18
18
38
38
6C
CC
BC
38
ENDCHAR
STARTCHAR scedilla.fina
ENCODING -1
SWIDTH 394 0
DWIDTH 6 0
BBX 6 13 0 -5
BITMAP
18
18
38
38
6C
CC
BC
3C
38
0C
08
78
60
ENDCHAR
STARTCHAR scircumflex.fina
ENCODING -1
SWIDTH 394 0
DWIDTH 6 0
BBX 7 15 0 0
BITMAP
08
0C
1C
36
36
26
00
18
18
38
38
6C
CC
BC
38
ENDCHAR
STARTCHAR uni0219.fina
ENCODING -1
SWIDTH 394 0
DWIDTH 6 0
BBX 6 13 0 -5
BITMAP
18
18
38
38
6C
CC
BC
38
00
10
18
10
30
ENDCHAR
STARTCHAR germandbls.fina
ENCODING -1
SWIDTH 580 0
DWIDTH 9 0
BBX 8 17 1 -3
BITMAP
0E
3F
73
63
43
CE
CC
D8
DC
CF
D7
F3
FB
DE
C0
C0
C0
ENDCHAR
STARTCHAR uni01C9.ss01.fina
ENCODING -1
SWIDTH 466 0
DWIDTH 7 0
BBX 8 23 0 -8
BITMAP
18
38
30
33
37
37
60
66
66
66
66
66
6E
7C
7C
0C
1C
2C
68
D8
D8
F0
60
ENDCHAR
STARTCHAR eng.ss01.fina
ENCODING -1
SWIDTH 484 0
DWIDTH 8 0
BBX 7 16 0 -8
BITMAP
26
6E
7E
76
76
66
66
66
0C
1C
3C
6C
48
D8
F0
70
ENDCHAR
STARTCHAR p.ss01.fina
ENCODING -1
SWIDTH 488 0
DWIDTH 8 0
BBX 9 16 -2 -8
BITMAP
0D80
0F80
1F80
1D80
1980
1980
1980
3980
3800
7800
5800
D000
9000
B000
F000
6000
ENDCHAR
STARTCHAR z.ss01.fina
ENCODING -1
SWIDTH 406 0
DWIDTH 7 0
BBX 8 16 -1 -7
BITMAP
21
3F
1F
0C
18
30
38
1C
0C
1C
3C
6C
4C
D8
F0
60
ENDCHAR
STARTCHAR zacute.ss01.fina
ENCODING -1
SWIDTH 406 0
DWIDTH 7 0
BBX 8 21 -1 -7
BITMAP
03
03
06
06
04
21
3F
1F
0C
18
30
38
1C
0C
1C
3C
6C
4C
D8
F0
60
ENDCHAR
STARTCHAR zcaron.ss01.fina
ENCODING -1
SWIDTH 406 0
DWIDTH 7 0
BBX 9 22 -1 -7
BITMAP
0900
1980
1B00
0A00
0E00
0C00
2100
3F00
1F00
0C00
1800
3000
3800
1C00
0C00
1C00
3C00
6C00
4C00
D800
F000
6000
ENDCHAR
STARTCHAR zdotaccent.ss01.fina
ENCODING -1
SWIDTH 406 0
DWIDTH 7 0
BBX 8 19 -1 -7
BITMAP
0C
0E
0C
21
3F
1F
0C
18
30
38
1C
0C
1C
3C
6C
4C
D8
F0
60
ENDCHAR
STARTCHAR t.fina
ENCODING -1
SWIDTH 413 0
DWIDTH 7 0
BBX 7 15 0 0
BITMAP
0C
1E
1E
36
36
34
38
FE
FE
60
60
60
32
3E
1C
ENDCHAR
STARTCHAR tbar.fina
ENCODING -1
SWIDTH 387 0
DWIDTH 6 0
BBX 6 13 0 0
BITMAP
18
38
30
30
FC
FC
60
FC
FC
60
64
3C
3C
ENDCHAR
STARTCHAR tcaron.fina
ENCODING -1
SWIDTH 413 0
DWIDTH 7 0
BBX 10 16 0 0
BITMAP
0040
0CC0
1EC0
1E80
3600
3600
3400
3800
FE00
FE00
6000
6000
6000
3200
3E00
1C00
ENDCHAR
STARTCHAR uni0163.fina
ENCODING -1
SWIDTH 413 0
DWIDTH 7 0
BBX 7 20 0 -5
BITMAP
0C
0E
1E
16
36
34
38
FE
FE
60
60
60
30
3E
3C
38
0C
0C
78
70
ENDCHAR
STARTCHAR uni021B.fina
ENCODING -1
SWIDTH 413 0
DWIDTH 7 0
BBX 7 20 0 -5
BITMAP
0C
1E
1E
36
36
34
38
FE
FE
60
60
60
32
3E
1C
00
18
18
10
10
ENDCHAR
STARTCHAR u.fina
ENCODING -1
SWIDTH 460 0
DWIDTH 7 0
BBX 6 8 1 0
BITMAP
4C
CC
CC
DC
DC
FC
F8
D8
ENDCHAR
STARTCHAR uacute.fina
ENCODING -1
SWIDTH 460 0
DWIDTH 7 0
BBX 7 14 1 0
BITMAP
06
0E
0C
08
10
00
4C
CC
CC
DC
DC
FC
F8
D8
ENDCHAR
STARTCHAR ubreve.fina
ENCODING -1
SWIDTH 460 0
DWIDTH 7 0
BBX 7 13 1 0
BITMAP
42
66
7E
3C
00
4C
CC
CC
DC
DC
FC
F8
D8
ENDCHAR
STARTCHAR ucircumflex.fina
ENCODING -1
SWIDTH 460 0
DWIDTH 7 0
BBX 6 15 1 0
BITMAP
08
1C
3C
3C
64
64
00
4C
CC
CC
DC
DC
FC
F8
D8
ENDCHAR
STARTCHAR uni0215.fina
ENCODING -1
SWIDTH 460 0
DWIDTH 7 0
BBX 6 14 1 0
BITMAP
D8
D8
D8
6C
24
00
4C
CC
CC
DC
DC
FC
F8
D8
ENDCHAR
STARTCHAR udieresis.fina
ENCODING -1
SWIDTH 460 0
DWIDTH 7 0
BBX 7 12 1 0
BITMAP
64
6E
64
00
4C
CC
CC
DC
DC
FC
F8
D8
ENDCHAR
STARTCHAR uni1EE5.fina
ENCODING -1
SWIDTH 460 0
DWIDTH 7 0
BBX 6 12 1 -4
BITMAP
4C
CC
CC
DC
DC
FC
F8
D8
00
60
70
60
ENDCHAR
STARTCHAR ugrave.fina
ENCODING -1
SWIDTH 460 0
DWIDTH 7 0
BBX 6 14 1 0
BITMAP
60
60
30
30
10
00
4C
CC
CC
DC
DC
FC
F8
D8
ENDCHAR
STARTCHAR uni1EE7.fina
ENCODING -1
SWIDTH 460 0
DWIDTH 7 0
BBX 6 14 1 0
BITMAP
38
3C
04
1C
18
00
4C
CC
CC
DC
DC
FC
F8
D8
ENDCHAR
STARTCHAR uhorn.fina
ENCODING -1
SWIDTH 472 0
DWIDTH 8 0
BBX 8 10 1 0
BITMAP
01
03
4F
CE
CC
DC
DC
FC
F8
D8
ENDCHAR
STARTCHAR uni1EE9.fina
ENCODING -1
SWIDTH 472 0
DWIDTH 8 0
BBX 8 14 1 0
BITMAP
06
0E
0C
08
11
03
4F
CE
CC
DC
DC
FC
F8
D8
ENDCHAR
STARTCHAR uni1EF1.fina
ENCODING -1
SWIDTH 472 0
DWIDTH 8 0
BBX 8 14 1 -4
BITMAP
01
03
4F
CE
CC
DC
DC
FC
F8
D8
00
60
70
60
ENDCHAR
STARTCHAR uni1EEB.fina
ENCODING -1
SWIDTH 472 0
DWIDTH 8 0
BBX 8 14 1 0
BITMAP
60
60
30
30
11
03
4F
CE
CC
DC
DC
FC
F8
D8
ENDCHAR
STARTCHAR uni1EED.fina
ENCODING -1
SWIDTH 472 0
DWIDTH 8 0
BBX 8 14 1 0
BITMAP
38
3C
04
1C
19
03
4F
CE
CC
DC
DC
FC
F8
D8
ENDCHAR
STARTCHAR uni1EEF.fina
ENCODING -1
SWIDTH 472 0
DWIDTH 8 0
BBX 8 13 1 0
BITMAP
22
76
7C
4D
03
4F
CE
CC
DC
DC
FC
F8
D8
ENDCHAR
STARTCHAR uhungarumlaut.fina
ENCODING -1
SWIDTH 460 0
DWIDTH 7 0
BBX 8 14 1 0
BITMAP
1A
1F
36
34
24
00
4C
CC
CC
DC
DC
FC
F8
D8
ENDCHAR
STARTCHAR uni0217.fina
ENCODING -1
SWIDTH 460 0
DWIDTH 7 0
BBX 7 13 1 0
BITMAP
3C
7E
66
42
00
4C
CC
CC
DC
DC
FC
F8
D8
ENDCHAR
STARTCHAR umacron.fina
ENCODING -1
SWIDTH 460 0
DWIDTH 7 0
BBX 6 11 1 0
BITMAP
7C
7C
00
4C
CC
CC
DC
DC
FC
F8
D8
ENDCHAR
STARTCHAR uogonek.fina
ENCODING -1
SWIDTH 460 0
DWIDTH 7 0
BBX 7 12 1 -4
BITMAP
4C
CC
CC
DC
DC
F8
F8
D8
10
30
1E
1C
ENDCHAR
STARTCHAR uring.fina
ENCODING -1
SWIDTH 460 0
DWIDTH 7 0
BBX 6 14 1 0
BITMAP
18
3C
24
3C
18
00
4C
CC
CC
DC
DC
FC
F8
D8
ENDCHAR
STARTCHAR utilde.fina
ENCODING -1
SWIDTH 460 0
DWIDTH 7 0
BBX 7 13 1 0
BITMAP
20
72
DE
4C
00
4C
CC
CC
DC
DC
FC
F8
D8
ENDCHAR
STARTCHAR v.fina
ENCODING -1
SWIDTH 420 0
DWIDTH 7 0
BBX 6 8 1 0
BITMAP
CC
CC
CC
D8
D8
F0
F0
E0
ENDCHAR
STARTCHAR w.fina
ENCODING -1
SWIDTH 666 0
DWIDTH 11 0
BBX 10 8 1 0
BITMAP
CCC0
CCC0
DCC0
DD80
DD80
FF00
EF00
6600
ENDCHAR
STARTCHAR wacute.fina
ENCODING -1
SWIDTH 666 0
DWIDTH 11 0
BBX 10 14 1 0
BITMAP
0300
0300
0600
0600
0400
0000
CCC0
CCC0
DCC0
DD80
DD80
FF00
EF00
6600
ENDCHAR
STARTCHAR wcircumflex.fina
ENCODING -1
SWIDTH 666 0
DWIDTH 11 0
BBX 10 15 1 0
BITMAP
0400
0E00
0A00
1A00
1B00
3300
0000
CCC0
CCC0
DCC0
DD80
DD80
FF00
EF00
6600
ENDCHAR
STARTCHAR wdieresis.fina
ENCODING -1
SWIDTH 666 0
DWIDTH 11 0
BBX 10 12 1 0
BITMAP
1B00
3B00
1300
0000
CCC0
CCC0
DCC0
DD80
DD80
FF00
EF00
6600
ENDCHAR
STARTCHAR wgrave.fina
ENCODING -1
SWIDTH 666 0
DWIDTH 11 0
BBX 10 14 1 0
BITMAP
3000
3000
1800
0800
0C00
0000
CCC0
CCC0
DCC0
DD80
DD80
FF00
EF00
6600
ENDCHAR
STARTCHAR x.fina
ENCODING -1
SWIDTH 580 0
DWIDTH 9 0
BBX 10 8 0 0
BITMAP
3B80
7F80
6D00
0C00
4C00
DCC0
FF80
7700
ENDCHAR
STARTCHAR y.fina
ENCODING -1
SWIDTH 449 0
DWIDTH 7 0
BBX 7 16 0 -8
BITMAP
26
66
66
6E
6C
7C
7C
6C
1C
3C
68
58
D8
D0
F0
E0
ENDCHAR
STARTCHAR yacute.fina
ENCODING -1
SWIDTH 449 0
DWIDTH 7 0
BBX 8 22 0 -8
BITMAP
03
07
06
04
08
00
26
66
66
6E
6C
7C
7C
6C
1C
3C
68
58
D8
D0
F0
E0
ENDCHAR
STARTCHAR ycircumflex.fina
ENCODING -1
SWIDTH 449 0
DWIDTH 7 0
BBX 7 23 0 -8
BITMAP
04
0E
1E
1E
32
32
00
26
66
66
6E
6C
7C
7C
6C
1C
3C
68
58
D8
D0
F0
E0
ENDCHAR
STARTCHAR ydieresis.fina
ENCODING -1
SWIDTH 449 0
DWIDTH 7 0
BBX 8 20 0 -8
BITMAP
32
37
32
00
26
66
66
6E
6C
7C
7C
6C
1C
3C
68
58
D8
D0
F0
E0
ENDCHAR
STARTCHAR uni1EF5.fina
ENCODING -1
SWIDTH 449 0
DWIDTH 7 0
BBX 8 16 0 -8
BITMAP
26
66
66
6E
6C
7C
7C
6C
1C
3C
68
58
D8
D6
F7
E6
ENDCHAR
STARTCHAR ygrave.fina
ENCODING -1
SWIDTH 449 0
DWIDTH 7 0
BBX 7 22 0 -8
BITMAP
30
30
18
18
08
00
26
66
66
6E
6C
7C
7C
6C
1C
3C
68
58
D8
D0
F0
E0
ENDCHAR
STARTCHAR uni1EF7.fina
ENCODING -1
SWIDTH 449 0
DWIDTH 7 0
BBX 7 22 0 -8
BITMAP
1C
1E
02
0E
0C
00
26
66
66
6E
6C
7C
7C
6C
1C
3C
68
58
D8
D0
F0
E0
ENDCHAR
STARTCHAR uni0233.fina
ENCODING -1
SWIDTH 449 0
DWIDTH 7 0
BBX 7 19 0 -8
BITMAP
3E
3E
00
26
66
66
6E
6C
7C
7C
6C
1C
3C
68
58
D8
D0
F0
E0
ENDCHAR
STARTCHAR uni1EF9.fina
ENCODING -1
SWIDTH 449 0
DWIDTH 7 0
BBX 8 21 0 -8
BITMAP
10
39
6F
26
00
26
66
66
6E
6C
7C
7C
6C
1C
3C
68
58
D8
D0
F0
E0
ENDCHAR
STARTCHAR z.fina
ENCODING -1
SWIDTH 412 0
DWIDTH 7 0
BBX 7 8 0 0
BITMAP
7E
7E
1C
30
60
E0
FE
FE
ENDCHAR
STARTCHAR zacute.fina
ENCODING -1
SWIDTH 412 0
DWIDTH 7 0
BBX 7 14 0 0
BITMAP
06
06
06
0C
08
00
7E
7E
1C
30
60
E0
FE
FE
ENDCHAR
STARTCHAR zcaron.fina
ENCODING -1
SWIDTH 412 0
DWIDTH 7 0
BBX 8 15 0 0
BITMAP
12
33
16
16
1C
18
00
7E
7E
1C
30
60
E0
FE
FE
ENDCHAR
STARTCHAR zdotaccent.fina
ENCODING -1
SWIDTH 412 0
DWIDTH 7 0
BBX 7 12 0 0
BITMAP
0C
1C
1C
00
7E
7E
1C
30
60
E0
FE
FE
ENDCHAR
STARTCHAR iacute_j.loclNLD
ENCODING -1
SWIDTH 479 0
DWIDTH 8 0
BBX 9 22 0 -8
BITMAP
0C80
0D80
1980
1300
3200
0000
2600
6600
6600
6E00
6C80
7D80
7F00
6E00
1C00
3C00
6800
5800
D800
D000
F000
E000
ENDCHAR
STARTCHAR b.ss01
ENCODING -1
SWIDTH 449 0
DWIDTH 7 0
BBX 8 16 1 0
BITMAP
18
3C
2C
6C
6C
48
D8
F0
E8
DC
DC
CF
CF
CC
F8
70
ENDCHAR
STARTCHAR d.ss01
ENCODING -1
SWIDTH 470 0
DWIDTH 8 0
BBX 9 15 1 0
BITMAP
0600
0600
0600
0600
0600
0400
0C00
3C00
7C00
EC00
CC00
D880
D980
FF00
EE00
ENDCHAR
STARTCHAR f.ss01
ENCODING -1
SWIDTH 323 0
DWIDTH 5 0
BBX 9 24 -2 -8
BITMAP
0300
0780
0580
0D80
0D80
0900
1900
1B00
1A00
1E00
1C00
1F80
1F80
1800
1800
1800
1800
5800
D800
9000
B000
B000
F000
E000
ENDCHAR
STARTCHAR l.ss01
ENCODING -1
SWIDTH 237 0
DWIDTH 4 0
BBX 5 15 1 0
BITMAP
30
60
60
60
60
60
C0
C0
C0
C0
C0
C8
D8
F0
E0
ENDCHAR
STARTCHAR lacute.ss01
ENCODING -1
SWIDTH 237 0
DWIDTH 4 0
BBX 7 19 1 0
BITMAP
06
0E
1C
30
30
60
60
60
60
60
C0
C0
C0
C0
C0
C8
D8
F0
E0
ENDCHAR
STARTCHAR uni013C.ss01
ENCODING -1
SWIDTH 237 0
DWIDTH 4 0
BBX 5 20 1 -5
BITMAP
30
60
60
60
60
60
C0
C0
C0
C0
C0
C8
D8
F0
E0
00
C0
C0
C0
80
ENDCHAR
STARTCHAR uni01C9.ss01
ENCODING -1
SWIDTH 491 0
DWIDTH 8 0
BBX 10 23 0 -8
BITMAP
1800
3800
3000
3600
3700
3600
6000
6600
6600
6600
6600
6640
6FC0
7F00
7E00
0C00
1C00
2C00
6800
D800
D800
F000
6000
ENDCHAR
STARTCHAR lslash.ss01
ENCODING -1
SWIDTH 324 0
DWIDTH 5 0
BBX 7 16 0 0
BITMAP
18
18
18
30
34
3C
38
F0
E0
60
60
60
62
66
7C
38
ENDCHAR
STARTCHAR eng.ss01
ENCODING -1
SWIDTH 508 0
DWIDTH 8 0
BBX 10 16 0 -8
BITMAP
2600
6E00
7E00
7600
7640
67C0
6780
6600
0C00
1C00
3C00
6C00
4800
D800
F000
7000
ENDCHAR
STARTCHAR o.ss01
ENCODING -1
SWIDTH 451 0
DWIDTH 7 0
BBX 8 8 1 0
BITMAP
7C
FE
CF
CD
CC
CC
F8
70
ENDCHAR
STARTCHAR oacute.ss01
ENCODING -1
SWIDTH 451 0
DWIDTH 7 0
BBX 8 14 1 0
BITMAP
0C
0C
18
18
10
00
7C
FE
CF
CD
CC
CC
F8
70
ENDCHAR
STARTCHAR obreve.ss01
ENCODING -1
SWIDTH 451 0
DWIDTH 7 0
BBX 8 13 1 0
BITMAP
C6
C6
7C
78
00
7C
FE
CF
CD
CC
CC
F8
70
ENDCHAR
STARTCHAR ocircumflex.ss01
ENCODING -1
SWIDTH 451 0
DWIDTH 7 0
BBX 8 15 1 0
BITMAP
10
38
38
6C
6C
CC
00
7C
FE
CF
CD
CC
CC
F8
70
ENDCHAR
STARTCHAR uni1ED1.ss01
ENCODING -1
SWIDTH 451 0
DWIDTH 7 0
BBX 8 15 1 0
BITMAP
03
07
14
38
6C
CC
00
7C
FE
CF
CD
CC
CC
F8
70
ENDCHAR
STARTCHAR uni1ED9.ss01
ENCODING -1
SWIDTH 451 0
DWIDTH 7 0
BBX 8 19 1 -4
BITMAP
10
38
38
6C
6C
CC
00
7C
FE
CF
CD
CC
CC
F8
70
00
60
70
60
ENDCHAR
STARTCHAR uni1ED3.ss01
ENCODING -1
SWIDTH 451 0
DWIDTH 7 0
BBX 9 15 0 0
BITMAP
C000
E000
2800
1C00
3600
6600
0000
3E00
7F00
6780
6680
6600
6600
7C00
3800
ENDCHAR
STARTCHAR uni1ED5.ss01
ENCODING -1
SWIDTH 451 0
DWIDTH 7 0
BBX 8 15 1 0
BITMAP
07
01
3B
68
EC
00
00
7C
FE
CF
CD
CC
CC
F8
70
ENDCHAR
STARTCHAR uni1ED7.ss01
ENCODING -1
SWIDTH 451 0
DWIDTH 7 0
BBX 8 15 1 0
BITMAP
36
5C
00
38
6C
CC
00
7C
FE
CF
CD
CC
CC
F8
70
ENDCHAR
STARTCHAR uni020D.ss01
ENCODING -1
SWIDTH 451 0
DWIDTH 7 0
BBX 9 14 0 0
BITMAP
D800
F800
6C00
2C00
2400
0000
3E00
7F00
6780
6680
6600
6600
7C00
3800
ENDCHAR
STARTCHAR odieresis.ss01
ENCODING -1
SWIDTH 451 0
DWIDTH 7 0
BBX 8 12 1 0
BITMAP
6C
6C
6C
00
7C
FE
CF
CD
CC
CC
F8
70
ENDCHAR
STARTCHAR uni022B.ss01
ENCODING -1
SWIDTH 451 0
DWIDTH 7 0
BBX 8 15 1 0
BITMAP
7C
7C
00
6C
6C
6C
00
7C
FE
CF
CD
CC
CC
F8
70
ENDCHAR
STARTCHAR uni0231.ss01
ENCODING -1
SWIDTH 451 0
DWIDTH 7 0
BBX 8 15 1 0
BITMAP
7C
7C
00
30
38
30
00
7C
FE
CF
CD
CC
CC
F8
70
ENDCHAR
STARTCHAR uni1ECD.ss01
ENCODING -1
SWIDTH 451 0
DWIDTH 7 0
BBX 8 12 1 -4
BITMAP
7C
FE
CF
CD
CC
CC
F8
70
00
60
70
60
ENDCHAR
STARTCHAR ograve.ss01
ENCODING -1
SWIDTH 451 0
DWIDTH 7 0
BBX 8 14 1 0
BITMAP
C0
E0
60
20
10
00
7C
FE
CF
CD
CC
CC
F8
70
ENDCHAR
STARTCHAR uni1ECF.ss01
ENCODING -1
SWIDTH 451 0
DWIDTH 7 0
BBX 8 14 1 0
BITMAP
38
38
0C
38
38
00
7C
FE
CF
CD
CC
CC
F8
70
ENDCHAR
STARTCHAR ohorn.ss01
ENCODING -1
SWIDTH 451 0
DWIDTH 7 0
BBX 8 10 1 0
BITMAP
02
06
7E
FE
CF
CD
CC
CC
F8
70
ENDCHAR
STARTCHAR uni1EDB.ss01
ENCODING -1
SWIDTH 451 0
DWIDTH 7 0
BBX 8 14 1 0
BITMAP
0C
0C
18
10
32
06
7E
FE
CF
CD
CC
CC
F8
70
ENDCHAR
STARTCHAR uni1EE3.ss01
ENCODING -1
SWIDTH 451 0
DWIDTH 7 0
BBX 8 14 1 -4
BITMAP
02
06
7E
FE
CF
CD
CC
CC
F8
70
00
60
70
60
ENDCHAR
STARTCHAR uni1EDD.ss01
ENCODING -1
SWIDTH 451 0
DWIDTH 7 0
BBX 8 14 1 0
BITMAP
C0
C0
60
60
22
06
7E
FE
CF
CD
CC
CC
F8
70
ENDCHAR
STARTCHAR uni1EDF.ss01
ENCODING -1
SWIDTH 451 0
DWIDTH 7 0
BBX 8 14 1 0
BITMAP
38
78
08
38
32
06
7E
FE
CF
CD
CC
CC
F8
70
ENDCHAR
STARTCHAR uni1EE1.ss01
ENCODING -1
SWIDTH 451 0
DWIDTH 7 0
BBX 8 13 1 0
BITMAP
44
64
FC
9A
06
7E
FE
CF
CD
CC
CC
F8
70
ENDCHAR
STARTCHAR ohungarumlaut.ss01
ENCODING -1
SWIDTH 451 0
DWIDTH 7 0
BBX 8 14 1 0
BITMAP
36
36
34
6C
48
00
7C
FE
CF
CD
CC
CC
F8
70
ENDCHAR
STARTCHAR uni020F.ss01
ENCODING -1
SWIDTH 451 0
DWIDTH 7 0
BBX 8 13 1 0
BITMAP
38
7C
C6
C6
00
7C
FE
CF
CD
CC
CC
F8
70
ENDCHAR
STARTCHAR omacron.ss01
ENCODING -1
SWIDTH 451 0
DWIDTH 7 0
BBX 8 11 1 0
BITMAP
7C
7C
00
7C
FE
CF
CD
CC
CC
F8
70
ENDCHAR
STARTCHAR uni01EB.ss01
ENCODING -1
SWIDTH 451 0
DWIDTH 7 0
BBX 8 12 1 -4
BITMAP
7C
FE
CF
CD
CC
C8
F8
70
60
60
78
38
ENDCHAR
STARTCHAR oslash.ss01
ENCODING -1
SWIDTH 451 0
DWIDTH 7 0
BBX 8 13 1 -2
BITMAP
10
10
10
7C
FE
FF
ED
EC
E8
F8
70
60
40
ENDCHAR
STARTCHAR oslashacute.ss01
ENCODING -1
SWIDTH 451 0
DWIDTH 7 0
BBX 8 16 1 -2
BITMAP
18
38
30
30
50
10
7C
FE
FF
ED
EC
E8
F8
70
60
40
ENDCHAR
STARTCHAR otilde.ss01
ENCODING -1
SWIDTH 451 0
DWIDTH 7 0
BBX 8 13 1 0
BITMAP
20
76
FE
8C
00
7C
FE
CF
CD
CC
CC
F8
70
ENDCHAR
STARTCHAR uni022D.ss01
ENCODING -1
SWIDTH 451 0
DWIDTH 7 0
BBX 8 15 1 0
BITMAP
7C
7C
20
76
FE
8C
00
7C
FE
CF
CD
CC
CC
F8
70
ENDCHAR
STARTCHAR p.ss01
ENCODING -1
SWIDTH 500 0
DWIDTH 8 0
BBX 12 16 -2 -8
BITMAP
0D80
0F80
1F80
1D80
1990
19B0
19E0
39C0
3800
7800
5800
D000
9000
B000
F000
6000
ENDCHAR
STARTCHAR t.ss01
ENCODING -1
SWIDTH 343 0
DWIDTH 5 0
BBX 8 13 0 0
BITMAP
18
38
30
30
FC
FC
60
60
60
61
62
7E
3C
ENDCHAR
STARTCHAR uni0163.ss01
ENCODING -1
SWIDTH 343 0
DWIDTH 5 0
BBX 8 18 0 -4
BITMAP
10
18
30
30
30
FC
FC
60
60
60
63
76
3C
38
0C
0C
78
70
ENDCHAR
STARTCHAR uni021B.ss01
ENCODING -1
SWIDTH 343 0
DWIDTH 5 0
BBX 8 18 0 -5
BITMAP
18
38
30
30
FC
FC
60
60
60
61
62
7E
3C
00
18
18
10
10
ENDCHAR
STARTCHAR z.ss01
ENCODING -1
SWIDTH 432 0
DWIDTH 7 0
BBX 10 16 -1 -7
BITMAP
2100
3F00
0F00
0C00
1800
30C0
3980
1F00
0C00
1C00
3C00
6C00
4C00
D800
F000
6000
ENDCHAR
STARTCHAR zacute.ss01
ENCODING -1
SWIDTH 432 0
DWIDTH 7 0
BBX 10 21 -1 -7
BITMAP
0300
0300
0600
0600
0400
2100
3F00
0F00
0C00
1800
30C0
3980
1F00
0C00
1C00
3C00
6C00
4C00
D800
F000
6000
ENDCHAR
STARTCHAR zcaron.ss01
ENCODING -1
SWIDTH 432 0
DWIDTH 7 0
BBX 10 22 -1 -7
BITMAP
0900
1980
1B00
0A00
0E00
0C00
2100
3F00
0F00
0C00
1800
30C0
3980
1F00
0C00
1C00
3C00
6C00
4C00
D800
F000
6000
ENDCHAR
STARTCHAR zdotaccent.ss01
ENCODING -1
SWIDTH 432 0
DWIDTH 7 0
BBX 10 19 -1 -7
BITMAP
0C00
0E00
0C00
2100
3F00
0F00
0C00
1800
30C0
3980
1F00
0C00
1C00
3C00
6C00
4C00
D800
F000
6000
ENDCHAR
STARTCHAR f_f
ENCODING -1
SWIDTH 684 0
DWIDTH 11 0
BBX 12 22 1 -6
BITMAP
1C60
1CE0
35A0
25A0
6F20
6F20
6B60
7B40
D6C0
F680
E780
DF00
FEF0
D7E0
D680
D680
D680
D680
D680
D680
F780
6300
ENDCHAR
STARTCHAR f_j
ENCODING -1
SWIDTH 633 0
DWIDTH 10 0
BBX 12 21 0 -5
BITMAP
0600
0F00
0B00
1B00
1BC0
32C0
36C0
3C00
7F80
FF80
6180
6580
6D90
65B0
65E0
65C0
6D80
7D80
3B00
3B00
0300
ENDCHAR
STARTCHAR lslash_lslash
ENCODING -1
SWIDTH 654 0
DWIDTH 10 0
BBX 14 18 1 0
BITMAP
0FF8
3FFC
7000
18C0
3DE0
6D20
6F20
6F60
CB60
CE40
DEC0
D680
F780
E700
C610
CE20
7FE0
73C0
ENDCHAR
STARTCHAR t_t
ENCODING -1
SWIDTH 706 0
DWIDTH 11 0
BBX 13 15 0 0
BITMAP
0E70
1EF0
1EF0
37B0
35A0
3DE0
FFF0
FFF0
6300
6300
6300
3388
3398
3FF8
1CE0
ENDCHAR
STARTCHAR f_j.fina
ENCODING -1
SWIDTH 624 0
DWIDTH 10 0
BBX 10 22 0 -6
BITMAP
0600
0F00
0B00
1B00
1BC0
32C0
36C0
3C00
7F80
FF80
6180
6180
6D80
6580
6580
6580
6580
6D80
3B00
3B00
3300
0300
ENDCHAR
STARTCHAR fi.fina
ENCODING -1
SWIDTH 603 0
DWIDTH 10 0
BBX 11 21 0 -5
BITMAP
0600
0F00
0B00
1B00
1BC0
32E0
36C0
3C00
7FC0
FF80
6180
6D80
6580
6580
6580
6580
6400
6C00
3C00
3800
3800
ENDCHAR
STARTCHAR fl.fina
ENCODING -1
SWIDTH 730 0
DWIDTH 12 0
BBX 12 22 1 -6
BITMAP
0C60
1CF0
35B0
35B0
6530
6F20
6F20
7B60
D340
F3C0
E380
DF00
FF00
F320
F3E0
D1C0
D000
D000
D000
D000
F000
6000
ENDCHAR
STARTCHAR f_ij.loclNLD.fina
ENCODING -1
SWIDTH 837 0
DWIDTH 13 0
BBX 14 24 0 -8
BITMAP
0600
0F00
0B00
1B00
1BCC
32FC
36CC
3C00
7F88
FF98
6198
6D98
65B8
65B0
65F0
64F0
6430
6470
6CF0
39A0
3B60
3360
03C0
0180
ENDCHAR
STARTCHAR i_j.loclNLD.fina
ENCODING -1
SWIDTH 451 0
DWIDTH 7 0
BBX 8 20 0 -8
BITMAP
33
37
37
00
26
66
66
6E
6C
7C
7C
6C
1C
3C
68
58
D8
D0
F0
E0
ENDCHAR
STARTCHAR t_t.ss01.fina
ENCODING -1
SWIDTH 666 0
DWIDTH 11 0
BBX 11 13 0 0
BITMAP
1980
3980
3180
3180
FFE0
FFE0
6300
6300
6300
6300
6720
7FE0
39C0
ENDCHAR
STARTCHAR I_J.loclNLD
ENCODING -1
SWIDTH 776 0
DWIDTH 12 0
BBX 11 15 1 0
BITMAP
3060
7060
7060
70E0
60E0
60C0
60C0
61C0
73C0
7EC0
3CC0
0180
4180
FF00
3E00
ENDCHAR
STARTCHAR f_ij.loclNLD
ENCODING -1
SWIDTH 865 0
DWIDTH 14 0
BBX 16 24 0 -8
BITMAP
0600
0B00
0B00
1B00
13CC
36FC
36CC
3C00
7F88
FF98
6198
6598
6DB8
65BB
65FE
64F8
6430
6470
6CF0
39A0
3B60
3360
03C0
0180
ENDCHAR
STARTCHAR i_j.loclNLD
ENCODING -1
SWIDTH 479 0
DWIDTH 8 0
BBX 9 20 0 -8
BITMAP
3300
3700
3700
0000
2600
6600
6600
6E00
6C80
7D80
7F00
6E00
1C00
3C00
6800
5800
D800
D000
F000
E000
ENDCHAR
STARTCHAR t_t.ss01
ENCODING -1
SWIDTH 632 0
DWIDTH 10 0
BBX 12 13 0 0
BITMAP
1980
3980
3180
3180
FFE0
FFE0
6300
6300
6300
6310
6730
7FE0
39C0
ENDCHAR
STARTCHAR uni0410.ss01
ENCODING -1
SWIDTH 780 0
DWIDTH 12 0
BBX 12 15 1 0
BITMAP
03F0
0FF0
1C00
3860
70E0
60C0
E0C0
E0C0
C1C0
C1C0
C1C0
C3C0
E380
7F80
3D80
ENDCHAR
STARTCHAR uni0411.ss01
ENCODING -1
SWIDTH 881 0
DWIDTH 14 0
BBX 11 16 3 -1
BITMAP
7FC0
FFC0
3000
3000
3000
3000
7000
7F80
FFC0
E0E0
60E0
60E0
60E0
61C0
EF80
4E00
ENDCHAR
STARTCHAR uni0412.ss01
ENCODING -1
SWIDTH 826 0
DWIDTH 13 0
BBX 12 15 1 0
BITMAP
1F80
3FE0
2070
0070
3030
3070
70E0
67C0
67C0
60E0
60E0
60E0
E1C0
FF80
7F00
ENDCHAR
STARTCHAR uni0413.ss01
ENCODING -1
SWIDTH 634 0
DWIDTH 10 0
BBX 11 15 3 0
BITMAP
7FE0
FFE0
3000
3000
3000
3000
7000
7000
6000
6000
6000
6000
6000
E000
6000
ENDCHAR
STARTCHAR uni0403.ss01
ENCODING -1
SWIDTH 634 0
DWIDTH 10 0
BBX 11 19 3 0
BITMAP
0180
0380
0700
0C00
7FE0
FFE0
3000
3000
3000
3000
7000
7000
6000
6000
6000
6000
6000
E000
6000
ENDCHAR
STARTCHAR uni0490.ss01
ENCODING -1
SWIDTH 639 0
DWIDTH 10 0
BBX 11 19 3 0
BITMAP
0020
0060
0060
0060
FFE0
FFC0
3000
3000
3000
3000
7000
7000
6000
6000
6000
6000
6000
E000
6000
ENDCHAR
STARTCHAR uni0414.ss01
ENCODING -1
SWIDTH 836 0
DWIDTH 13 0
BBX 12 15 1 0
BITMAP
1F80
FFC0
E0E0
8070
3870
3030
3030
3030
7030
6070
6060
60E0
61C0
7F80
7E00
ENDCHAR
STARTCHAR uni0415.ss01
ENCODING -1
SWIDTH 720 0
DWIDTH 12 0
BBX 10 15 1 0
BITMAP
0F80
3FC0
70C0
60C0
60C0
70C0
3E00
3E00
6000
C000
C000
C040
E0C0
7F80
3F00
ENDCHAR
STARTCHAR uni0400.ss01
ENCODING -1
SWIDTH 720 0
DWIDTH 12 0
BBX 10 19 1 0
BITMAP
3000
3800
1C00
0600
0F80
3FC0
70C0
60C0
60C0
70C0
3E00
3E00
6000
C000
C000
C040
E0C0
7F80
3F00
ENDCHAR
STARTCHAR uni0401.ss01
ENCODING -1
SWIDTH 720 0
DWIDTH 12 0
BBX 10 18 1 0
BITMAP
0D80
0D80
0D80
0F80
3FC0
70C0
60C0
60C0
70C0
3E00
3E00
6000
C000
C000
C040
E0C0
7F80
3F00
ENDCHAR
STARTCHAR uni0416.ss01
ENCODING -1
SWIDTH 1196 0
DWIDTH 19 0
BBX 19 15 0 0
BITMAP
3C30E0
3C31E0
063380
067300
066300
036600
036E00
01F800
03FC00
066C00
0CEE00
0CC600
18C700
F8C3E0
70C1C0
ENDCHAR
STARTCHAR uni0417.ss01
ENCODING -1
SWIDTH 725 0
DWIDTH 12 0
BBX 10 15 1 0
BITMAP
1F00
3F80
7180
6180
6180
2180
0300
1F80
1DC0
00C0
C0C0
C1C0
C380
7F80
3E00
ENDCHAR
STARTCHAR uni0418.ss01
ENCODING -1
SWIDTH 800 0
DWIDTH 13 0
BBX 11 15 1 0
BITMAP
3060
3060
3060
3060
3060
70E0
60E0
60E0
61C0
61C0
61C0
E3C0
66C0
7CC0
78C0
ENDCHAR
STARTCHAR uni0419.ss01
ENCODING -1
SWIDTH 800 0
DWIDTH 13 0
BBX 11 19 1 0
BITMAP
0040
0C40
0FC0
0780
3060
3060
3060
3060
3060
70E0
60E0
60E0
61C0
61C0
61C0
E3C0
66C0
7CC0
78C0
ENDCHAR
STARTCHAR uni040D.ss01
ENCODING -1
SWIDTH 800 0
DWIDTH 13 0
BBX 11 19 1 0
BITMAP
1000
3C00
0E00
0200
3060
3060
3060
3060
3060
70E0
60E0
60E0
61C0
61C0
61C0
E3C0
66C0
7CC0
78C0
ENDCHAR
STARTCHAR uni048A.ss01
ENCODING -1
SWIDTH 815 0
DWIDTH 13 0
BBX 12 18 1 -3
BITMAP
3060
3060
3060
3060
3060
70E0
60E0
60E0
61C0
61C0
61C0
E3C0
66C0
7CF0
78E0
00C0
00C0
0180
ENDCHAR
STARTCHAR uni041A.ss01
ENCODING -1
SWIDTH 779 0
DWIDTH 12 0
BBX 11 15 1 0
BITMAP
3060
3060
30E0
30C0
30C0
3180
7300
FE00
FC00
6600
6700
6300
E380
E1E0
C0E0
ENDCHAR
STARTCHAR uni040C.ss01
ENCODING -1
SWIDTH 779 0
DWIDTH 12 0
BBX 11 19 1 0
BITMAP
0060
00E0
01C0
0300
3060
3060
30E0
30C0
30C0
3180
7300
FE00
FC00
6600
6700
6300
E380
E1E0
C0E0
ENDCHAR
STARTCHAR uni041B.ss01
ENCODING -1
SWIDTH 706 0
DWIDTH 11 0
BBX 12 15 -1 0
BITMAP
00C0
01C0
01C0
03C0
03C0
03C0
06C0
06C0
06C0
0EC0
0CC0
1CC0
18C0
70F0
E070
ENDCHAR
STARTCHAR uni041C.ss01
ENCODING -1
SWIDTH 967 0
DWIDTH 15 0
BBX 15 15 0 0
BITMAP
061C
061C
0E3C
0E3C
0E3C
0E7C
1A68
1A78
1BD8
1BD8
3BDC
339C
738C
E38E
E106
ENDCHAR
STARTCHAR uni041D.ss01
ENCODING -1
SWIDTH 846 0
DWIDTH 14 0
BBX 12 15 1 0
BITMAP
3030
3070
3070
3070
3060
3060
3060
FFF0
FFF0
60E0
60C0
60C0
60C0
E0C0
60C0
ENDCHAR
STARTCHAR uni041E.ss01
ENCODING -1
SWIDTH 816 0
DWIDTH 13 0
BBX 12 15 1 0
BITMAP
0F80
1FC0
38E0
7060
6070
E070
E070
C070
C070
C060
E060
E0E0
71C0
3F80
1E00
ENDCHAR
STARTCHAR uni041F.ss01
ENCODING -1
SWIDTH 847 0
DWIDTH 14 0
BBX 12 15 2 0
BITMAP
FFF0
FFF0
60C0
60C0
60C0
60C0
60C0
E1C0
C180
C180
C180
C180
C180
C180
C180
ENDCHAR
STARTCHAR uni0420.ss01
ENCODING -1
SWIDTH 662 0
DWIDTH 11 0
BBX 10 15 1 0
BITMAP
3E00
FF80
7180
31C0
31C0
31C0
3180
7380
FF00
FC00
6000
6000
6000
6000
6000
ENDCHAR
STARTCHAR uni0421.ss01
ENCODING -1
SWIDTH 704 0
DWIDTH 11 0
BBX 10 15 1 0
BITMAP
0F80
1FC0
38C0
70C0
60C0
E0C0
E000
C000
C000
C000
E000
E040
70C0
3F80
1F00
ENDCHAR
STARTCHAR uni0422.ss01
ENCODING -1
SWIDTH 631 0
DWIDTH 10 0
BBX 11 15 1 0
BITMAP
FFE0
FFE0
0C00
0C00
0C00
0C00
1C00
1C00
1800
1800
1800
1800
1800
3800
1800
ENDCHAR
STARTCHAR uni0423.ss01
ENCODING -1
SWIDTH 776 0
DWIDTH 12 0
BBX 11 15 1 0
BITMAP
3060
7060
7060
70E0
60E0
60C0
60C0
61C0
73C0
7EC0
3CC0
0180
4180
FF00
3E00
ENDCHAR
STARTCHAR uni040E.ss01
ENCODING -1
SWIDTH 776 0
DWIDTH 12 0
BBX 11 19 1 0
BITMAP
0040
0CC0
0F80
0700
3060
7060
7060
70E0
60E0
60C0
60C0
61C0
73C0
7EC0
3CC0
0180
4180
FF00
3E00
ENDCHAR
STARTCHAR uni0424.ss01
ENCODING -1
SWIDTH 978 0
DWIDTH 16 0
BBX 14 16 1 -1
BITMAP
0180
0180
1D98
3FFC
73CC
618C
E38C
C30C
C30C
C70C
CF18
FBF8
73F0
0600
0600
0600
ENDCHAR
STARTCHAR uni0425.ss01
ENCODING -1
SWIDTH 677 0
DWIDTH 11 0
BBX 13 15 -1 0
BITMAP
1818
1C38
0C70
0E60
06C0
0780
0780
0700
0780
0D80
1DC0
38C0
70C0
60E0
E060
ENDCHAR
STARTCHAR uni0427.ss01
ENCODING -1
SWIDTH 773 0
DWIDTH 12 0
BBX 10 15 2 0
BITMAP
60C0
E0C0
E0C0
E1C0
E1C0
C180
C180
C380
E780
FD80
7980
0180
0380
0380
0300
ENDCHAR
STARTCHAR uni0426.ss01
ENCODING -1
SWIDTH 822 0
DWIDTH 13 0
BBX 12 21 1 -6
BITMAP
3060
3060
3060
3060
3060
70E0
60E0
60C0
61C0
61C0
61C0
E3C0
66F0
7CF0
7870
00E0
01A0
0360
0360
03C0
0380
ENDCHAR
STARTCHAR uni0428.ss01
ENCODING -1
SWIDTH 1174 0
DWIDTH 19 0
BBX 17 15 1 0
BITMAP
306180
306180
30E180
30C180
30C180
70C380
60C380
61C300
618700
618700
638700
E38B00
679B00
7DF700
78E600
ENDCHAR
STARTCHAR uni0429.ss01
ENCODING -1
SWIDTH 1194 0
DWIDTH 19 0
BBX 18 21 1 -6
BITMAP
306180
306180
30E180
30C180
30C180
70C380
60C380
61C300
61C300
618700
638700
E38B00
679BC0
7DF3C0
78E1C0
000380
000780
000D80
000D80
000F00
000E00
ENDCHAR
STARTCHAR uni040F.ss01
ENCODING -1
SWIDTH 800 0
DWIDTH 13 0
BBX 11 18 1 -3
BITMAP
3060
3060
3060
3060
3060
70E0
60E0
60E0
61C0
61C0
61C0
E3C0
66C0
7CC0
7CC0
1800
1800
1800
ENDCHAR
STARTCHAR uni042C.ss01
ENCODING -1
SWIDTH 721 0
DWIDTH 12 0
BBX 11 15 0 0
BITMAP
1800
1800
1800
1800
3800
3780
3FE0
F0E0
7060
3060
3060
3060
30C0
1FC0
0F00
ENDCHAR
STARTCHAR uni042A.ss01
ENCODING -1
SWIDTH 863 0
DWIDTH 14 0
BBX 12 14 2 0
BITMAP
FE00
FE00
1C00
1800
1F80
3FE0
7060
7070
3070
3060
3060
38E0
1FC0
0F00
ENDCHAR
STARTCHAR uni042B.ss01
ENCODING -1
SWIDTH 1078 0
DWIDTH 17 0
BBX 17 15 0 0
BITMAP
180180
180380
180380
180300
380300
378300
3FE300
F0E300
706700
306700
306600
306600
30C600
1FC600
0F0600
ENDCHAR
STARTCHAR uni0409.ss01
ENCODING -1
SWIDTH 998 0
DWIDTH 16 0
BBX 17 15 -1 0
BITMAP
00C000
01C000
01C000
03C000
03C000
03C000
02FE00
06FF00
06C380
0EC380
0CC380
1CC300
18C700
70FE00
E03C00
ENDCHAR
STARTCHAR uni040A.ss01
ENCODING -1
SWIDTH 1102 0
DWIDTH 18 0
BBX 16 15 1 0
BITMAP
30C0
30C0
30C0
30C0
30C0
31C0
33FE
FFFF
F983
6183
6183
6183
6187
E0FE
6078
ENDCHAR
STARTCHAR uni0405.ss01
ENCODING -1
SWIDTH 693 0
DWIDTH 11 0
BBX 10 15 1 0
BITMAP
1F00
3F80
60C0
60C0
60C0
7080
7800
3F00
0F80
8380
C1C0
C180
C180
FF00
3E00
ENDCHAR
STARTCHAR uni0404.ss01
ENCODING -1
SWIDTH 704 0
DWIDTH 11 0
BBX 10 15 1 0
BITMAP
0F80
1FC0
38C0
70C0
60C0
E0C0
E000
FE00
FE00
C000
E000
E040
70C0
3F80
1F00
ENDCHAR
STARTCHAR uni042D.ss01
ENCODING -1
SWIDTH 755 0
DWIDTH 12 0
BBX 11 15 1 0
BITMAP
1F00
7F80
61C0
40C0
00E0
00E0
00E0
3FE0
3FE0
00C0
C0C0
C1C0
C380
FF00
7E00
ENDCHAR
STARTCHAR uni0406.ss01
ENCODING -1
SWIDTH 357 0
DWIDTH 6 0
BBX 4 15 1 0
BITMAP
30
30
30
30
30
70
60
60
60
60
60
E0
E0
E0
C0
ENDCHAR
STARTCHAR uni0407.ss01
ENCODING -1
SWIDTH 357 0
DWIDTH 6 0
BBX 6 18 1 0
BITMAP
6C
6C
6C
30
30
30
30
30
70
60
60
60
60
60
E0
E0
E0
C0
ENDCHAR
STARTCHAR uni0408.ss01
ENCODING -1
SWIDTH 716 0
DWIDTH 11 0
BBX 11 15 1 0
BITMAP
1FC0
7FE0
61C0
C1C0
C180
E180
0180
0180
0180
0180
0300
C300
E700
7E00
3C00
ENDCHAR
STARTCHAR uni040B.ss01
ENCODING -1
SWIDTH 884 0
DWIDTH 14 0
BBX 12 15 1 0
BITMAP
FFE0
FFE0
0C00
0C00
0C00
0C00
1C00
1DE0
1BF0
1E30
1C30
1830
1830
3830
1830
ENDCHAR
STARTCHAR uni042E.ss01
ENCODING -1
SWIDTH 1166 0
DWIDTH 19 0
BBX 17 15 1 0
BITMAP
303E00
307F00
30C380
318180
318180
330180
330180
FF0180
FF0180
630180
630380
630300
638600
E1FE00
60F800
ENDCHAR
STARTCHAR uni042F.ss01
ENCODING -1
SWIDTH 827 0
DWIDTH 13 0
BBX 12 15 1 0
BITMAP
0FF0
1FF0
1860
3060
3060
3060
30E0
38E0
1FE0
0FE0
0360
0760
0E60
FC60
F060
ENDCHAR
STARTCHAR uni0402.ss01
ENCODING -1
SWIDTH 843 0
DWIDTH 13 0
BBX 12 23 1 -8
BITMAP
FFE0
FFE0
0C00
0C00
0C00
0C00
1C00
1DE0
1BF0
1E30
1C30
1830
1830
3830
1870
00F0
01E0
03E0
0360
06C0
06C0
0780
0300
ENDCHAR
STARTCHAR uni0462.ss01
ENCODING -1
SWIDTH 721 0
DWIDTH 12 0
BBX 11 15 0 0
BITMAP
1800
1800
7E00
7E00
1800
3780
3FE0
70E0
F060
3060
3060
3060
30C0
1FC0
0F00
ENDCHAR
STARTCHAR uni046A.ss01
ENCODING -1
SWIDTH 1196 0
DWIDTH 19 0
BBX 19 15 0 0
BITMAP
3FFFE0
3FFFE0
060380
060300
060300
030600
030E00
01F800
03FC00
066C00
0CEE00
0CC600
18C700
F8C3E0
F0C1C0
ENDCHAR
STARTCHAR uni0472.ss01
ENCODING -1
SWIDTH 816 0
DWIDTH 13 0
BBX 12 15 1 0
BITMAP
0F80
1FC0
38E0
7060
6070
E070
FC70
FFF0
C3F0
C060
E060
E0E0
71C0
3F80
1E00
ENDCHAR
STARTCHAR uni0474.ss01
ENCODING -1
SWIDTH 797 0
DWIDTH 13 0
BBX 14 15 2 0
BITMAP
6078
E07C
E0E0
C0E0
C0C0
C0C0
C1C0
C180
C180
C380
E300
E700
6E00
7C00
3800
ENDCHAR
STARTCHAR uni0492.ss01
ENCODING -1
SWIDTH 634 0
DWIDTH 10 0
BBX 12 15 2 0
BITMAP
3FF0
7FF0
1800
1800
1800
1800
3800
7E00
FC00
3000
3000
3000
3000
7000
3000
ENDCHAR
ENDFONT
